<?xml version="1.0" encoding="UTF-8" standalone="no"?>
<svg
   xmlns:dc="http://purl.org/dc/elements/1.1/"
   xmlns:cc="http://creativecommons.org/ns#"
   xmlns:rdf="http://www.w3.org/1999/02/22-rdf-syntax-ns#"
   xmlns:svg="http://www.w3.org/2000/svg"
   xmlns="http://www.w3.org/2000/svg"
   xmlns:sodipodi="http://sodipodi.sourceforge.net/DTD/sodipodi-0.dtd"
   xmlns:inkscape="http://www.inkscape.org/namespaces/inkscape"
   sodipodi:docname="patternfly-template.pdf"
   viewBox="0 0 534.66669 542.66669"
   height="542.66669"
   width="534.66669"
   xml:space="preserve"
   id="svg2"
   version="1.1"><metadata
     id="metadata8"><rdf:RDF><cc:Work
         rdf:about=""><dc:format>image/svg+xml</dc:format><dc:type
           rdf:resource="http://purl.org/dc/dcmitype/StillImage" /></cc:Work></rdf:RDF></metadata><defs
     id="defs6"><clipPath
       id="clipPath20"
       clipPathUnits="userSpaceOnUse"><path
         id="path18"
         clip-rule="evenodd"
         d="M 48,129 H 310 V 71 H 48 Z" /></clipPath><clipPath
       id="clipPath26"
       clipPathUnits="userSpaceOnUse"><path
         id="path24"
         d="M 0,0 H 401 V 407 H 0 Z" /></clipPath><clipPath
       id="clipPath36"
       clipPathUnits="userSpaceOnUse"><path
         id="path34"
         clip-rule="evenodd"
         d="m 48,129 h 3 V 71 h -3 z" /></clipPath><clipPath
       id="clipPath42"
       clipPathUnits="userSpaceOnUse"><path
         id="path40"
         d="M 0,0 H 401 V 407 H 0 Z" /></clipPath><clipPath
       id="clipPath52"
       clipPathUnits="userSpaceOnUse"><path
         id="path50"
         d="m 64,79 h 230 v 42 H 64 Z" /></clipPath><clipPath
       id="clipPath72"
       clipPathUnits="userSpaceOnUse"><path
         id="path70"
         clip-rule="evenodd"
         d="M 48,129 H 64 V 71 H 48 Z" /></clipPath><clipPath
       id="clipPath78"
       clipPathUnits="userSpaceOnUse"><path
         id="path76"
         d="M 0,0 H 401 V 407 H 0 Z" /></clipPath><clipPath
       id="clipPath88"
       clipPathUnits="userSpaceOnUse"><path
         id="path86"
         clip-rule="evenodd"
         d="M 48,129 H 64 V 71 H 48 Z" /></clipPath><clipPath
       id="clipPath94"
       clipPathUnits="userSpaceOnUse"><path
         id="path92"
         d="M 0,0 H 401 V 407 H 0 Z" /></clipPath><clipPath
       id="clipPath106"
       clipPathUnits="userSpaceOnUse"><path
         id="path104"
         clip-rule="evenodd"
         d="m 294,129 h 16 V 71 h -16 z" /></clipPath><clipPath
       id="clipPath112"
       clipPathUnits="userSpaceOnUse"><path
         id="path110"
         d="M 0,0 H 401 V 407 H 0 Z" /></clipPath><clipPath
       id="clipPath122"
       clipPathUnits="userSpaceOnUse"><path
         id="path120"
         clip-rule="evenodd"
         d="m 294,129 h 16 V 71 h -16 z" /></clipPath><clipPath
       id="clipPath128"
       clipPathUnits="userSpaceOnUse"><path
         id="path126"
         d="M 0,0 H 401 V 407 H 0 Z" /></clipPath><clipPath
       id="clipPath140"
       clipPathUnits="userSpaceOnUse"><path
         id="path138"
         clip-rule="evenodd"
         d="m 64,129 h 230 v -8 H 64 Z" /></clipPath><clipPath
       id="clipPath146"
       clipPathUnits="userSpaceOnUse"><path
         id="path144"
         d="M 0,0 H 401 V 407 H 0 Z" /></clipPath><clipPath
       id="clipPath156"
       clipPathUnits="userSpaceOnUse"><path
         id="path154"
         clip-rule="evenodd"
         d="m 64,129 h 230 v -8 H 64 Z" /></clipPath><clipPath
       id="clipPath162"
       clipPathUnits="userSpaceOnUse"><path
         id="path160"
         d="M 0,0 H 401 V 407 H 0 Z" /></clipPath><clipPath
       id="clipPath174"
       clipPathUnits="userSpaceOnUse"><path
         id="path172"
         clip-rule="evenodd"
         d="M 64,79 H 294 V 71 H 64 Z" /></clipPath><clipPath
       id="clipPath180"
       clipPathUnits="userSpaceOnUse"><path
         id="path178"
         d="M 0,0 H 401 V 407 H 0 Z" /></clipPath><clipPath
       id="clipPath190"
       clipPathUnits="userSpaceOnUse"><path
         id="path188"
         clip-rule="evenodd"
         d="M 64,79 H 294 V 71 H 64 Z" /></clipPath><clipPath
       id="clipPath196"
       clipPathUnits="userSpaceOnUse"><path
         id="path194"
         d="M 0,0 H 401 V 407 H 0 Z" /></clipPath><clipPath
       id="clipPath208"
       clipPathUnits="userSpaceOnUse"><path
         id="path206"
         d="M 0,0 H 401 V 407 H 0 Z" /></clipPath><clipPath
       id="clipPath222"
       clipPathUnits="userSpaceOnUse"><path
         id="path220"
         clip-rule="evenodd"
         d="M 48,288 H 310 V 248 H 48 Z" /></clipPath><clipPath
       id="clipPath228"
       clipPathUnits="userSpaceOnUse"><path
         id="path226"
         d="M 0,0 H 401 V 407 H 0 Z" /></clipPath><clipPath
       id="clipPath238"
       clipPathUnits="userSpaceOnUse"><path
         id="path236"
         clip-rule="evenodd"
         d="m 280.9859,263.2172 4.25,4.25 c 0.2938,0.2938 0.2938,0.7687 -0.003,1.0625 l -4.25,4.25 c -0.2906,0.2937 -0.7656,0.2937 -1.0594,0 l -0.7031,-0.7125 c -0.2937,-0.2906 -0.2937,-0.7656 0,-1.0594 l 3.0125,-3.0125 -3.0125,-3.0125 c -0.2937,-0.2906 -0.2937,-0.7656 0,-1.0594 l 0.7063,-0.7062 c 0.2906,-0.2938 0.7656,-0.2938 1.0593,0 z" /></clipPath><clipPath
       id="clipPath244"
       clipPathUnits="userSpaceOnUse"><path
         id="path242"
         d="M 0,0 H 401 V 407 H 0 Z" /></clipPath><clipPath
       id="clipPath254"
       clipPathUnits="userSpaceOnUse"><path
         id="path252"
         d="M 0,0 H 401 V 407 H 0 Z" /></clipPath><clipPath
       id="clipPath268"
       clipPathUnits="userSpaceOnUse"><path
         id="path266"
         clip-rule="evenodd"
         d="m 64,288 h 230 v -8 H 64 Z" /></clipPath><clipPath
       id="clipPath274"
       clipPathUnits="userSpaceOnUse"><path
         id="path272"
         d="M 0,0 H 401 V 407 H 0 Z" /></clipPath><clipPath
       id="clipPath284"
       clipPathUnits="userSpaceOnUse"><path
         id="path282"
         clip-rule="evenodd"
         d="m 64,288 h 230 v -8 H 64 Z" /></clipPath><clipPath
       id="clipPath290"
       clipPathUnits="userSpaceOnUse"><path
         id="path288"
         d="M 0,0 H 401 V 407 H 0 Z" /></clipPath><clipPath
       id="clipPath302"
       clipPathUnits="userSpaceOnUse"><path
         id="path300"
         clip-rule="evenodd"
         d="m 64,256 h 230 v -8 H 64 Z" /></clipPath><clipPath
       id="clipPath308"
       clipPathUnits="userSpaceOnUse"><path
         id="path306"
         d="M 0,0 H 401 V 407 H 0 Z" /></clipPath><clipPath
       id="clipPath318"
       clipPathUnits="userSpaceOnUse"><path
         id="path316"
         clip-rule="evenodd"
         d="m 64,256 h 230 v -8 H 64 Z" /></clipPath><clipPath
       id="clipPath324"
       clipPathUnits="userSpaceOnUse"><path
         id="path322"
         d="M 0,0 H 401 V 407 H 0 Z" /></clipPath><clipPath
       id="clipPath336"
       clipPathUnits="userSpaceOnUse"><path
         id="path334"
         d="M 0,0 H 401 V 407 H 0 Z" /></clipPath><clipPath
       id="clipPath350"
       clipPathUnits="userSpaceOnUse"><path
         id="path348"
         clip-rule="evenodd"
         d="M 48,288 H 64 V 248 H 48 Z" /></clipPath><clipPath
       id="clipPath356"
       clipPathUnits="userSpaceOnUse"><path
         id="path354"
         d="M 0,0 H 401 V 407 H 0 Z" /></clipPath><clipPath
       id="clipPath366"
       clipPathUnits="userSpaceOnUse"><path
         id="path364"
         clip-rule="evenodd"
         d="M 48,288 H 64 V 248 H 48 Z" /></clipPath><clipPath
       id="clipPath372"
       clipPathUnits="userSpaceOnUse"><path
         id="path370"
         d="M 0,0 H 401 V 407 H 0 Z" /></clipPath><clipPath
       id="clipPath384"
       clipPathUnits="userSpaceOnUse"><path
         id="path382"
         clip-rule="evenodd"
         d="m 294,288 h 16 v -40 h -16 z" /></clipPath><clipPath
       id="clipPath390"
       clipPathUnits="userSpaceOnUse"><path
         id="path388"
         d="M 0,0 H 401 V 407 H 0 Z" /></clipPath><clipPath
       id="clipPath400"
       clipPathUnits="userSpaceOnUse"><path
         id="path398"
         clip-rule="evenodd"
         d="m 294,288 h 16 v -40 h -16 z" /></clipPath><clipPath
       id="clipPath406"
       clipPathUnits="userSpaceOnUse"><path
         id="path404"
         d="M 0,0 H 401 V 407 H 0 Z" /></clipPath></defs><sodipodi:namedview
     id="namedview4"
     inkscape:window-height="480"
     inkscape:window-width="640"
     inkscape:pageshadow="2"
     inkscape:pageopacity="0"
     guidetolerance="10"
     gridtolerance="10"
     objecttolerance="10"
     borderopacity="1"
     bordercolor="#666666"
     pagecolor="#ffffff" /><g
     transform="matrix(1.3333333,0,0,-1.3333333,0,542.66667)"
     inkscape:label="patternfly-template"
     inkscape:groupmode="layer"
     id="g10"><g
       id="g12" /><g
       id="g14"><g
         clip-path="url(#clipPath20)"
         id="g16"><g
           clip-path="url(#clipPath26)"
           id="g22"><path
             id="path28"
             style="fill:#ffffff;fill-opacity:1;fill-rule:nonzero;stroke:none"
             d="M 43,134 H 315 V 66 H 43 Z" /></g></g></g><g
       id="g30"><g
         clip-path="url(#clipPath36)"
         id="g32"><g
           clip-path="url(#clipPath42)"
           id="g38"><path
             id="path44"
             style="fill:#0066cc;fill-opacity:1;fill-rule:nonzero;stroke:none"
             d="M 43,134 H 56 V 66 H 43 Z" /></g></g></g><g
       id="g46"><g
         clip-path="url(#clipPath52)"
         id="g48"><g
           transform="matrix(1,0,0,-1,64,121)"
           id="g54"><text
             id="text58"
             style="font-variant:normal;font-weight:normal;font-size:14px;font-family:'Red Hat Text';-inkscape-font-specification:RedHatText-Regular;writing-mode:lr-tb;fill:#6a6e73;fill-opacity:1;fill-rule:nonzero;stroke:none"
             transform="translate(0,14)"><tspan
               id="tspan56"
               sodipodi:role="line"
               y="0"
               x="0 7.1259999 12.418 17.346001 20.468 27.888 35.686001 43.414001 48.706001 56.504002 61.431999 64.694 69.986 78.120003 81.382004 88.746002 96.893997 105.042 108.304 111.426 114.548 122.276 130.07401 136.40199 139.664 142.786 150.51401 153.776 161.91 168.924 176.722 181.64999 186.578 189.7 197.84801 205.646">ctrl+enter to add lines in override.</tspan></text></g><g
           transform="matrix(1,0,0,-1,64,121)"
           id="g60"><text
             id="text64"
             style="font-variant:normal;font-weight:normal;font-size:14px;font-family:'Red Hat Text';-inkscape-font-specification:RedHatText-Regular;writing-mode:lr-tb;fill:#6a6e73;fill-opacity:1;fill-rule:nonzero;stroke:none"
             transform="translate(0,35)"><tspan
               id="tspan62"
               sodipodi:role="line"
               y="0"
               x="0 10.192 17.99 23.17 30.534 38.262001 41.383999 46.675999 49.938 57.666 65.463997 68.585999 76.734001 84.461998 89.753998 93.015999 96.138 102.466 105.728 111.034 116.214 119.336 126.154 133.952 142.10001">Default height is “fixed”</tspan></text></g></g></g><g
       id="g66"><g
         clip-path="url(#clipPath72)"
         id="g68"><g
           clip-path="url(#clipPath78)"
           id="g74"><path
             id="path80"
             style="fill:#3f9c35;fill-opacity:0.9;fill-rule:nonzero;stroke:none"
             d="M 48,129 H 64 V 71 H 48 Z" /></g></g></g><g
       id="g82"><g
         clip-path="url(#clipPath88)"
         id="g84"><g
           clip-path="url(#clipPath94)"
           id="g90"><g
             transform="matrix(1,0,0,-1,48,129)"
             id="g96"><path
               id="path98"
               style="fill:none;stroke:#418a38;stroke-width:2;stroke-linecap:butt;stroke-linejoin:miter;stroke-miterlimit:10;stroke-dasharray:none;stroke-opacity:1"
               d="M 0,0 H 16 V 58 H 0 Z" /></g></g></g></g><g
       id="g100"><g
         clip-path="url(#clipPath106)"
         id="g102"><g
           clip-path="url(#clipPath112)"
           id="g108"><path
             id="path114"
             style="fill:#3f9c35;fill-opacity:0.9;fill-rule:nonzero;stroke:none"
             d="m 294,129 h 16 V 71 h -16 z" /></g></g></g><g
       id="g116"><g
         clip-path="url(#clipPath122)"
         id="g118"><g
           clip-path="url(#clipPath128)"
           id="g124"><g
             transform="matrix(1,0,0,-1,294,129)"
             id="g130"><path
               id="path132"
               style="fill:none;stroke:#418a38;stroke-width:2;stroke-linecap:butt;stroke-linejoin:miter;stroke-miterlimit:10;stroke-dasharray:none;stroke-opacity:1"
               d="M 0,0 H 16 V 58 H 0 Z" /></g></g></g></g><g
       id="g134"><g
         clip-path="url(#clipPath140)"
         id="g136"><g
           clip-path="url(#clipPath146)"
           id="g142"><path
             id="path148"
             style="fill:#92d400;fill-opacity:0.9;fill-rule:nonzero;stroke:none"
             d="m 64,129 h 230 v -8 H 64 Z" /></g></g></g><g
       id="g150"><g
         clip-path="url(#clipPath156)"
         id="g152"><g
           clip-path="url(#clipPath162)"
           id="g158"><g
             transform="matrix(1,0,0,-1,64,129)"
             id="g164"><path
               id="path166"
               style="fill:none;stroke:#7fb300;stroke-width:2;stroke-linecap:butt;stroke-linejoin:miter;stroke-miterlimit:10;stroke-dasharray:none;stroke-opacity:1"
               d="M 0,0 H 230 V 8 H 0 Z" /></g></g></g></g><g
       id="g168"><g
         clip-path="url(#clipPath174)"
         id="g170"><g
           clip-path="url(#clipPath180)"
           id="g176"><path
             id="path182"
             style="fill:#92d400;fill-opacity:0.9;fill-rule:nonzero;stroke:none"
             d="M 64,79 H 294 V 71 H 64 Z" /></g></g></g><g
       id="g184"><g
         clip-path="url(#clipPath190)"
         id="g186"><g
           clip-path="url(#clipPath196)"
           id="g192"><g
             transform="matrix(1,0,0,-1,64,79)"
             id="g198"><path
               id="path200"
               style="fill:none;stroke:#7fb300;stroke-width:2;stroke-linecap:butt;stroke-linejoin:miter;stroke-miterlimit:10;stroke-dasharray:none;stroke-opacity:1"
               d="M 0,0 H 230 V 8 H 0 Z" /></g></g></g></g><g
       id="g202"><g
         clip-path="url(#clipPath208)"
         id="g204"><g
           transform="matrix(1,0,0,-1,48,200)"
           id="g210"><text
             id="text214"
             style="font-variant:normal;font-weight:500;font-size:36px;font-family:'Red Hat Display';-inkscape-font-specification:RedHatDisplay-Medium;writing-mode:lr-tb;fill:#ff00ff;fill-opacity:1;fill-rule:nonzero;stroke:none"
             transform="translate(0,35.8)"><tspan
               id="tspan212"
               sodipodi:role="line"
               y="0"
               x="0 22.608 41.220001 63.071999 82.223999 102.636 124.488 145.116 166.968 174.492 193.248 214.884 235.29601 249.3 269.92801 290.34">Expanded content</tspan></text></g></g></g><g
       id="g216"><g
         clip-path="url(#clipPath222)"
         id="g218"><g
           clip-path="url(#clipPath228)"
           id="g224"><path
             id="path230"
             style="fill:#ffffff;fill-opacity:1;fill-rule:nonzero;stroke:none"
             d="M 43,293 H 315 V 243 H 43 Z" /></g></g></g><g
       id="g232"><g
         clip-path="url(#clipPath238)"
         id="g234"><g
           clip-path="url(#clipPath244)"
           id="g240"><path
             id="path246"
             style="fill:#151515;fill-opacity:1;fill-rule:nonzero;stroke:none"
             d="m 274,278 h 16.4558 V 257.9969 H 274 Z" /></g></g></g><g
       id="g248"><g
         clip-path="url(#clipPath254)"
         id="g250"><g
           transform="matrix(1,0,0,-1,64,280)"
           id="g256"><text
             id="text260"
             style="font-variant:normal;font-weight:normal;font-size:16px;font-family:'Red Hat Text';-inkscape-font-specification:RedHatText-Regular;writing-mode:lr-tb;fill:#151515;fill-opacity:1;fill-rule:nonzero;stroke:none"
             transform="translate(0,17)"><tspan
               id="tspan258"
               sodipodi:role="line"
               y="0"
               x="0 4.0320001 10.08 18.992001 32.512001 36.240002">Item 1</tspan></text></g></g></g><g
       id="g262"><g
         clip-path="url(#clipPath268)"
         id="g264"><g
           clip-path="url(#clipPath274)"
           id="g270"><path
             id="path276"
             style="fill:#92d400;fill-opacity:0.9;fill-rule:nonzero;stroke:none"
             d="m 64,288 h 230 v -8 H 64 Z" /></g></g></g><g
       id="g278"><g
         clip-path="url(#clipPath284)"
         id="g280"><g
           clip-path="url(#clipPath290)"
           id="g286"><g
             transform="matrix(1,0,0,-1,64,288)"
             id="g292"><path
               id="path294"
               style="fill:none;stroke:#7fb300;stroke-width:2;stroke-linecap:butt;stroke-linejoin:miter;stroke-miterlimit:10;stroke-dasharray:none;stroke-opacity:1"
               d="M 0,0 H 230 V 8 H 0 Z" /></g></g></g></g><g
       id="g296"><g
         clip-path="url(#clipPath302)"
         id="g298"><g
           clip-path="url(#clipPath308)"
           id="g304"><path
             id="path310"
             style="fill:#92d400;fill-opacity:0.9;fill-rule:nonzero;stroke:none"
             d="m 64,256 h 230 v -8 H 64 Z" /></g></g></g><g
       id="g312"><g
         clip-path="url(#clipPath318)"
         id="g314"><g
           clip-path="url(#clipPath324)"
           id="g320"><g
             transform="matrix(1,0,0,-1,64,256)"
             id="g326"><path
               id="path328"
               style="fill:none;stroke:#7fb300;stroke-width:2;stroke-linecap:butt;stroke-linejoin:miter;stroke-miterlimit:10;stroke-dasharray:none;stroke-opacity:1"
               d="M 0,0 H 230 V 8 H 0 Z" /></g></g></g></g><g
       id="g330"><g
         clip-path="url(#clipPath336)"
         id="g332"><g
           transform="matrix(1,0,0,-1,48,359)"
           id="g338"><text
             id="text342"
             style="font-variant:normal;font-weight:500;font-size:36px;font-family:'Red Hat Display';-inkscape-font-specification:RedHatDisplay-Medium;writing-mode:lr-tb;fill:#ff00ff;fill-opacity:1;fill-rule:nonzero;stroke:none"
             transform="translate(0,35.8)"><tspan
               id="tspan340"
               sodipodi:role="line"
               y="0"
               x="0 8.9280005 22.931999 43.560001">Item</tspan></text></g></g></g><g
       id="g344"><g
         clip-path="url(#clipPath350)"
         id="g346"><g
           clip-path="url(#clipPath356)"
           id="g352"><path
             id="path358"
             style="fill:#3f9c35;fill-opacity:0.9;fill-rule:nonzero;stroke:none"
             d="M 48,288 H 64 V 248 H 48 Z" /></g></g></g><g
       id="g360"><g
         clip-path="url(#clipPath366)"
         id="g362"><g
           clip-path="url(#clipPath372)"
           id="g368"><g
             transform="matrix(1,0,0,-1,48,288)"
             id="g374"><path
               id="path376"
               style="fill:none;stroke:#418a38;stroke-width:2;stroke-linecap:butt;stroke-linejoin:miter;stroke-miterlimit:10;stroke-dasharray:none;stroke-opacity:1"
               d="M 0,0 H 16 V 40 H 0 Z" /></g></g></g></g><g
       id="g378"><g
         clip-path="url(#clipPath384)"
         id="g380"><g
           clip-path="url(#clipPath390)"
           id="g386"><path
             id="path392"
             style="fill:#3f9c35;fill-opacity:0.9;fill-rule:nonzero;stroke:none"
             d="m 294,288 h 16 v -40 h -16 z" /></g></g></g><g
       id="g394"><g
         clip-path="url(#clipPath400)"
         id="g396"><g
           clip-path="url(#clipPath406)"
           id="g402"><g
             transform="matrix(1,0,0,-1,294,288)"
             id="g408"><path
               id="path410"
               style="fill:none;stroke:#418a38;stroke-width:2;stroke-linecap:butt;stroke-linejoin:miter;stroke-miterlimit:10;stroke-dasharray:none;stroke-opacity:1"
               d="M 0,0 H 16 V 40 H 0 Z" /></g></g></g></g></g></svg>
