<?xml version="1.0" encoding="UTF-8" standalone="no"?>
<svg
   xmlns:dc="http://purl.org/dc/elements/1.1/"
   xmlns:cc="http://creativecommons.org/ns#"
   xmlns:rdf="http://www.w3.org/1999/02/22-rdf-syntax-ns#"
   xmlns:svg="http://www.w3.org/2000/svg"
   xmlns="http://www.w3.org/2000/svg"
   xmlns:sodipodi="http://sodipodi.sourceforge.net/DTD/sodipodi-0.dtd"
   xmlns:inkscape="http://www.inkscape.org/namespaces/inkscape"
   sodipodi:docname="patternfly-template.pdf"
   viewBox="0 0 1666.6667 2344"
   height="2344"
   width="1666.6667"
   xml:space="preserve"
   id="svg2"
   version="1.1"><metadata
     id="metadata8"><rdf:RDF><cc:Work
         rdf:about=""><dc:format>image/svg+xml</dc:format><dc:type
           rdf:resource="http://purl.org/dc/dcmitype/StillImage" /></cc:Work></rdf:RDF></metadata><defs
     id="defs6"><clipPath
       id="clipPath20"
       clipPathUnits="userSpaceOnUse"><path
         id="path18"
         clip-rule="evenodd"
         d="M 48,1372 H 926 V 1186 H 48 Z" /></clipPath><clipPath
       id="clipPath26"
       clipPathUnits="userSpaceOnUse"><path
         id="path24"
         d="M 0,0 H 1250 V 1758 H 0 Z" /></clipPath><clipPath
       id="clipPath36"
       clipPathUnits="userSpaceOnUse"><path
         id="path34"
         clip-rule="evenodd"
         d="m 48,1372 h 878 v -6 H 48 Z" /></clipPath><clipPath
       id="clipPath42"
       clipPathUnits="userSpaceOnUse"><path
         id="path40"
         d="M 0,0 H 1250 V 1758 H 0 Z" /></clipPath><clipPath
       id="clipPath52"
       clipPathUnits="userSpaceOnUse"><path
         id="path50"
         clip-rule="evenodd"
         d="m 115.9938,1306 c 1.1949,0 2,0.975 2.0062,2 0.003,0.472 -0.1632,0.954 -0.5382,1.357 -1.2074,1.297 -3.4668,3.249 -3.4668,9.643 0,4.856 -3.405,8.744 -7.9962,9.698 V 1330 c 0,1.104 -0.895,2 -1.9988,2 -1.1037,0 -1.9988,-0.896 -1.9988,-2 v -1.302 c -4.5912,-0.954 -7.99616,-4.842 -7.99616,-9.698 0,-6.394 -2.2594,-8.346 -3.46685,-9.643 -0.375,-0.403 -0.54126,-0.885 -0.53819,-1.357 0.0069,-1.025 0.81132,-2 2.00626,-2 z M 104,1300 c 2.2075,0 3.9981,1.791 3.9981,4 h -7.9962 c 0,-2.209 1.7906,-4 3.9981,-4 z" /></clipPath><clipPath
       id="clipPath58"
       clipPathUnits="userSpaceOnUse"><path
         id="path56"
         d="M 0,0 H 1250 V 1758 H 0 Z" /></clipPath><clipPath
       id="clipPath68"
       clipPathUnits="userSpaceOnUse"><path
         id="path66"
         clip-rule="evenodd"
         d="m 864.7456,1304.576 6.2544,6.254 6.2544,-6.254 c 0.7674,-0.768 2.0124,-0.768 2.7799,0 l 1.39,1.39 c 0.7676,0.767 0.7676,2.012 0,2.78 l -6.2543,6.254 6.2543,6.254 c 0.7676,0.768 0.7676,2.012 0,2.78 l -1.39,1.39 c -0.7675,0.768 -2.0118,0.768 -2.7799,0 L 871,1319.17 l -6.2544,6.254 c -0.7674,0.768 -2.0118,0.768 -2.78,0 l -1.39,-1.39 c -0.7675,-0.767 -0.7675,-2.011 0,-2.78 l 6.2544,-6.254 -6.2544,-6.254 c -0.7675,-0.768 -0.7675,-2.012 0,-2.78 l 1.39,-1.39 c 0.7676,-0.768 2.0126,-0.768 2.78,0 z" /></clipPath><clipPath
       id="clipPath74"
       clipPathUnits="userSpaceOnUse"><path
         id="path72"
         d="M 0,0 H 1250 V 1758 H 0 Z" /></clipPath><clipPath
       id="clipPath84"
       clipPathUnits="userSpaceOnUse"><path
         id="path82"
         d="m 136,1218 h 690.4724 v 42 H 136 Z" /></clipPath><clipPath
       id="clipPath98"
       clipPathUnits="userSpaceOnUse"><path
         id="path96"
         d="m 136,1296 h 710 v 40 H 136 Z" /></clipPath><clipPath
       id="clipPath112"
       clipPathUnits="userSpaceOnUse"><path
         id="path110"
         clip-rule="evenodd"
         d="M 50,1516 H 928 V 1404 H 50 Z" /></clipPath><clipPath
       id="clipPath118"
       clipPathUnits="userSpaceOnUse"><path
         id="path116"
         d="M 0,0 H 1250 V 1758 H 0 Z" /></clipPath><clipPath
       id="clipPath128"
       clipPathUnits="userSpaceOnUse"><path
         id="path126"
         clip-rule="evenodd"
         d="m 50,1516 h 878 v -6 H 50 Z" /></clipPath><clipPath
       id="clipPath134"
       clipPathUnits="userSpaceOnUse"><path
         id="path132"
         d="M 0,0 H 1250 V 1758 H 0 Z" /></clipPath><clipPath
       id="clipPath144"
       clipPathUnits="userSpaceOnUse"><path
         id="path142"
         clip-rule="evenodd"
         d="m 105.5,1445 c 8.5598,0 15.4999,6.938 15.4999,15.5 0,8.557 -6.9401,15.5 -15.4999,15.5 -8.55983,0 -15.5,-6.943 -15.5,-15.5 0,-8.562 6.94017,-15.5 15.5,-15.5 z m 0,18.875 c -1.4498,0 -2.625,1.175 -2.625,2.625 0,1.45 1.1752,2.625 2.625,2.625 1.4497,0 2.625,-1.175 2.625,-2.625 0,-1.45 -1.1753,-2.625 -2.625,-2.625 z m 2.75,-11.375 h -5.5 c -0.4142,0 -0.75,0.336 -0.75,0.75 v 1.5 c 0,0.414 0.3358,0.75 0.75,0.75 h 0.75 v 4 h -0.75 c -0.4142,0 -0.75,0.336 -0.75,0.75 v 1.5 c 0,0.414 0.3358,0.75 0.75,0.75 h 4 c 0.4141,0 0.75,-0.336 0.75,-0.75 v -6.25 h 0.75 c 0.4141,0 0.75,-0.336 0.75,-0.75 v -1.5 c 0,-0.414 -0.3359,-0.75 -0.75,-0.75 z" /></clipPath><clipPath
       id="clipPath150"
       clipPathUnits="userSpaceOnUse"><path
         id="path148"
         d="M 0,0 H 1250 V 1758 H 0 Z" /></clipPath><clipPath
       id="clipPath160"
       clipPathUnits="userSpaceOnUse"><path
         id="path158"
         d="m 138,1440 h 758 v 40 H 138 Z" /></clipPath><clipPath
       id="clipPath174"
       clipPathUnits="userSpaceOnUse"><path
         id="path172"
         clip-rule="evenodd"
         d="M 48,1710 H 488 V 1548 H 48 Z" /></clipPath><clipPath
       id="clipPath180"
       clipPathUnits="userSpaceOnUse"><path
         id="path178"
         d="M 0,0 H 1250 V 1758 H 0 Z" /></clipPath><clipPath
       id="clipPath190"
       clipPathUnits="userSpaceOnUse"><path
         id="path188"
         clip-rule="evenodd"
         d="m 48,1710 h 440 v -6 H 48 Z" /></clipPath><clipPath
       id="clipPath196"
       clipPathUnits="userSpaceOnUse"><path
         id="path194"
         d="M 0,0 H 1250 V 1758 H 0 Z" /></clipPath><clipPath
       id="clipPath206"
       clipPathUnits="userSpaceOnUse"><path
         id="path204"
         clip-rule="evenodd"
         d="m 103.5,1639 c 8.5604,0 15.4999,6.94 15.4999,15.5 0,8.56 -6.9395,15.5 -15.4999,15.5 -8.56044,0 -15.5,-6.94 -15.5,-15.5 0,-8.56 6.93956,-15.5 15.5,-15.5 z m -3.2072,7.293 -6.49997,6.5 c -0.39044,0.39 -0.39044,1.024 0,1.414 l 1.41425,1.414 c 0.3905,0.391 1.02374,0.391 1.41424,0 l 4.37868,-4.378 9.3786,9.378 c 0.3906,0.391 1.0238,0.391 1.4143,0 l 1.4142,-1.414 c 0.3904,-0.39 0.3904,-1.024 0,-1.414 l -11.5,-11.5 c -0.3905,-0.391 -1.0237,-0.391 -1.4143,0 z" /></clipPath><clipPath
       id="clipPath212"
       clipPathUnits="userSpaceOnUse"><path
         id="path210"
         d="M 0,0 H 1250 V 1758 H 0 Z" /></clipPath><clipPath
       id="clipPath222"
       clipPathUnits="userSpaceOnUse"><path
         id="path220"
         d="m 136,1584 h 320 v 90 H 136 Z" /></clipPath><clipPath
       id="clipPath242"
       clipPathUnits="userSpaceOnUse"><path
         id="path240"
         clip-rule="evenodd"
         d="M 50,726 H 928 V 446 H 50 Z" /></clipPath><clipPath
       id="clipPath248"
       clipPathUnits="userSpaceOnUse"><path
         id="path246"
         d="M 0,0 H 1250 V 1758 H 0 Z" /></clipPath><clipPath
       id="clipPath258"
       clipPathUnits="userSpaceOnUse"><path
         id="path256"
         clip-rule="evenodd"
         d="m 50,726 h 878 v -6 H 50 Z" /></clipPath><clipPath
       id="clipPath264"
       clipPathUnits="userSpaceOnUse"><path
         id="path262"
         d="M 0,0 H 1250 V 1758 H 0 Z" /></clipPath><clipPath
       id="clipPath274"
       clipPathUnits="userSpaceOnUse"><path
         id="path272"
         clip-rule="evenodd"
         d="m 120.9962,654.0001 c 2.3041,0 3.7522,2.4995 2.5985,4.4992 l -14.9961,26.0016 c -1.1522,1.997 -4.043,2.0006 -5.1972,0 L 88.40482,658.4993 c -1.15136,-1.9958 0.29004,-4.4992 2.59857,-4.4992 z M 107.5171,665 h -3.0342 c -0.3983,0 -0.7272,0.3115 -0.7488,0.7092 l -0.4637,8.4999 C 103.247,674.6388 103.589,675 104.0192,675 h 3.9615 c 0.4302,0 0.7723,-0.3612 0.7488,-0.7909 l -0.4636,-8.4999 C 108.2443,665.3115 107.9154,665 107.5171,665 Z M 106,658.1251 c -1.5878,0 -2.875,1.2871 -2.875,2.875 0,1.5878 1.2872,2.875 2.875,2.875 1.5878,0 2.875,-1.2872 2.875,-2.875 0,-1.5879 -1.2872,-2.875 -2.875,-2.875 z" /></clipPath><clipPath
       id="clipPath280"
       clipPathUnits="userSpaceOnUse"><path
         id="path278"
         d="M 0,0 H 1250 V 1758 H 0 Z" /></clipPath><clipPath
       id="clipPath290"
       clipPathUnits="userSpaceOnUse"><path
         id="path288"
         clip-rule="evenodd"
         d="M 866.7456,658.5757 873,664.83 l 6.2544,-6.2543 c 0.7674,-0.7676 2.0124,-0.7676 2.7799,0 l 1.39,1.39 c 0.7676,0.7675 0.7676,2.0118 0,2.7799 L 877.17,669 l 6.2543,6.2544 c 0.7676,0.7674 0.7676,2.0118 0,2.78 l -1.39,1.39 c -0.7675,0.7675 -2.0118,0.7675 -2.7799,0 L 873,673.17 l -6.2544,6.2544 c -0.7674,0.7675 -2.0118,0.7675 -2.78,0 l -1.39,-1.39 c -0.7675,-0.7676 -0.7675,-2.0119 0,-2.78 L 868.83,669 l -6.2544,-6.2544 c -0.7675,-0.7674 -0.7675,-2.0118 0,-2.7799 l 1.39,-1.39 c 0.7676,-0.7676 2.0126,-0.7676 2.78,0 z" /></clipPath><clipPath
       id="clipPath296"
       clipPathUnits="userSpaceOnUse"><path
         id="path294"
         d="M 0,0 H 1250 V 1758 H 0 Z" /></clipPath><clipPath
       id="clipPath306"
       clipPathUnits="userSpaceOnUse"><path
         id="path304"
         d="m 138,478 h 690.4724 v 42 H 138 Z" /></clipPath><clipPath
       id="clipPath320"
       clipPathUnits="userSpaceOnUse"><path
         id="path318"
         d="m 138,552 h 758 v 86 H 138 Z" /></clipPath><clipPath
       id="clipPath340"
       clipPathUnits="userSpaceOnUse"><path
         id="path338"
         d="m 138,650 h 710 v 40 H 138 Z" /></clipPath><clipPath
       id="clipPath354"
       clipPathUnits="userSpaceOnUse"><path
         id="path352"
         d="M 0,0 H 1250 V 1758 H 0 Z" /></clipPath><clipPath
       id="clipPath368"
       clipPathUnits="userSpaceOnUse"><path
         id="path366"
         clip-rule="evenodd"
         d="M 50,414 H 928 V 138 H 50 Z" /></clipPath><clipPath
       id="clipPath374"
       clipPathUnits="userSpaceOnUse"><path
         id="path372"
         d="M 0,0 H 1250 V 1758 H 0 Z" /></clipPath><clipPath
       id="clipPath384"
       clipPathUnits="userSpaceOnUse"><path
         id="path382"
         clip-rule="evenodd"
         d="m 50,414 h 878 v -6 H 50 Z" /></clipPath><clipPath
       id="clipPath390"
       clipPathUnits="userSpaceOnUse"><path
         id="path388"
         d="M 0,0 H 1250 V 1758 H 0 Z" /></clipPath><clipPath
       id="clipPath400"
       clipPathUnits="userSpaceOnUse"><path
         id="path398"
         clip-rule="evenodd"
         d="m 105.5,343.0001 c 8.5604,0 15.4999,6.9395 15.4999,15.4999 0,8.5604 -6.9395,15.5 -15.4999,15.5 -8.56044,0 -15.5,-6.9396 -15.5,-15.5 0,-8.5604 6.93956,-15.4999 15.5,-15.4999 z m -3.2072,7.2929 -6.49997,6.4999 c -0.39044,0.3906 -0.39044,1.0238 0,1.4143 l 1.41425,1.4142 c 0.3905,0.3905 1.02374,0.3905 1.41424,0 L 103,355.2427 l 9.3786,9.3786 c 0.3906,0.3906 1.0238,0.3906 1.4143,0 l 1.4142,-1.4142 c 0.3904,-0.3905 0.3904,-1.0237 0,-1.4142 l -11.5,-11.5 c -0.3905,-0.3904 -1.0237,-0.3904 -1.4143,1e-4 z" /></clipPath><clipPath
       id="clipPath406"
       clipPathUnits="userSpaceOnUse"><path
         id="path404"
         d="M 0,0 H 1250 V 1758 H 0 Z" /></clipPath><clipPath
       id="clipPath416"
       clipPathUnits="userSpaceOnUse"><path
         id="path414"
         clip-rule="evenodd"
         d="M 866.7456,346.5757 873,352.83 l 6.2544,-6.2543 c 0.7674,-0.7676 2.0124,-0.7676 2.7799,0 l 1.39,1.39 c 0.7676,0.7675 0.7676,2.0118 0,2.7799 L 877.17,357 l 6.2543,6.2544 c 0.7676,0.7674 0.7676,2.0118 0,2.78 l -1.39,1.39 c -0.7675,0.7675 -2.0118,0.7675 -2.7799,0 L 873,361.17 l -6.2544,6.2544 c -0.7674,0.7675 -2.0118,0.7675 -2.78,0 l -1.39,-1.39 c -0.7675,-0.7676 -0.7675,-2.0119 0,-2.78 L 868.83,357 l -6.2544,-6.2544 c -0.7675,-0.7674 -0.7675,-2.0118 0,-2.7799 l 1.39,-1.39 c 0.7676,-0.7676 2.0126,-0.7676 2.78,0 z" /></clipPath><clipPath
       id="clipPath422"
       clipPathUnits="userSpaceOnUse"><path
         id="path420"
         d="M 0,0 H 1250 V 1758 H 0 Z" /></clipPath><clipPath
       id="clipPath432"
       clipPathUnits="userSpaceOnUse"><path
         id="path430"
         d="m 138,170 h 690.4724 v 42 H 138 Z" /></clipPath><clipPath
       id="clipPath442"
       clipPathUnits="userSpaceOnUse"><path
         id="path440"
         d="m 138,244 h 758 v 82 H 138 Z" /></clipPath><clipPath
       id="clipPath462"
       clipPathUnits="userSpaceOnUse"><path
         id="path460"
         d="m 138,338 h 710 v 40 H 138 Z" /></clipPath><clipPath
       id="clipPath476"
       clipPathUnits="userSpaceOnUse"><path
         id="path474"
         d="M 0,0 H 1250 V 1758 H 0 Z" /></clipPath><clipPath
       id="clipPath490"
       clipPathUnits="userSpaceOnUse"><path
         id="path488"
         clip-rule="evenodd"
         d="m 154,170 c 8.8366,0 16,7.1634 16,16 0,8.8366 -7.1634,16 -16,16 -8.8366,0 -16,-7.1634 -16,-16 0,-8.8366 7.1634,-16 16,-16 z" /></clipPath><clipPath
       id="clipPath496"
       clipPathUnits="userSpaceOnUse"><path
         id="path494"
         d="M 0,0 H 1250 V 1758 H 0 Z" /></clipPath><clipPath
       id="clipPath502"
       clipPathUnits="userSpaceOnUse"><path
         id="path500"
         d="m 138,170 h 32 v 32 h -32 z" /></clipPath><clipPath
       id="clipPath506"
       clipPathUnits="userSpaceOnUse"><path
         id="path504"
         clip-rule="evenodd"
         d="m 154,170 c 8.8366,0 16,7.1634 16,16 0,8.8366 -7.1634,16 -16,16 -8.8366,0 -16,-7.1634 -16,-16 0,-8.8366 7.1634,-16 16,-16 z" /></clipPath><clipPath
       id="clipPath510"
       clipPathUnits="userSpaceOnUse"><path
         id="path508"
         d="m 138,170 h 32 v 32 h -32 z" /></clipPath><clipPath
       id="clipPath514"
       clipPathUnits="userSpaceOnUse"><path
         id="path512"
         d="m 138,170 h 32 v 32 h -32 z" /></clipPath><clipPath
       id="clipPath544"
       clipPathUnits="userSpaceOnUse"><path
         id="path542"
         d="M 0,0 H 1250 V 1758 H 0 Z" /></clipPath><clipPath
       id="clipPath558"
       clipPathUnits="userSpaceOnUse"><path
         id="path556"
         clip-rule="evenodd"
         d="m 370,170 c 8.8366,0 16,7.1634 16,16 0,8.8366 -7.1634,16 -16,16 -8.8366,0 -16,-7.1634 -16,-16 0,-8.8366 7.1634,-16 16,-16 z" /></clipPath><clipPath
       id="clipPath564"
       clipPathUnits="userSpaceOnUse"><path
         id="path562"
         d="M 0,0 H 1250 V 1758 H 0 Z" /></clipPath><clipPath
       id="clipPath570"
       clipPathUnits="userSpaceOnUse"><path
         id="path568"
         d="m 354,170 h 32 v 32 h -32 z" /></clipPath><clipPath
       id="clipPath574"
       clipPathUnits="userSpaceOnUse"><path
         id="path572"
         clip-rule="evenodd"
         d="m 370,170 c 8.8366,0 16,7.1634 16,16 0,8.8366 -7.1634,16 -16,16 -8.8366,0 -16,-7.1634 -16,-16 0,-8.8366 7.1634,-16 16,-16 z" /></clipPath><clipPath
       id="clipPath578"
       clipPathUnits="userSpaceOnUse"><path
         id="path576"
         d="m 354,170 h 32 v 32 h -32 z" /></clipPath><clipPath
       id="clipPath582"
       clipPathUnits="userSpaceOnUse"><path
         id="path580"
         d="m 354,170 h 32 v 32 h -32 z" /></clipPath><clipPath
       id="clipPath612"
       clipPathUnits="userSpaceOnUse"><path
         id="path610"
         clip-rule="evenodd"
         d="M 48,1154 H 924 V 952 H 48 Z" /></clipPath><clipPath
       id="clipPath618"
       clipPathUnits="userSpaceOnUse"><path
         id="path616"
         d="M 0,0 H 1250 V 1758 H 0 Z" /></clipPath><clipPath
       id="clipPath628"
       clipPathUnits="userSpaceOnUse"><path
         id="path626"
         clip-rule="evenodd"
         d="m 48,1154 h 876 v -6 H 48 Z" /></clipPath><clipPath
       id="clipPath634"
       clipPathUnits="userSpaceOnUse"><path
         id="path632"
         d="M 0,0 H 1250 V 1758 H 0 Z" /></clipPath><clipPath
       id="clipPath644"
       clipPathUnits="userSpaceOnUse"><path
         id="path642"
         clip-rule="evenodd"
         d="m 103.5,1083 c 8.5598,0 15.4999,6.938 15.4999,15.5 0,8.557 -6.9401,15.5 -15.4999,15.5 -8.55983,0 -15.5,-6.943 -15.5,-15.5 0,-8.562 6.94017,-15.5 15.5,-15.5 z m 1.517,13.5 h -3.0341 c -0.3983,0 -0.7272,0.311 -0.7489,0.709 l -0.4636,8.5 c -0.0234,0.43 0.3186,0.791 0.7488,0.791 h 3.9615 c 0.4302,0 0.7722,-0.361 0.7488,-0.791 l -0.4636,-8.5 c -0.0217,-0.398 -0.3505,-0.709 -0.7489,-0.709 z m -1.517,-6.875 c -1.5879,0 -2.875,1.287 -2.875,2.875 0,1.588 1.2871,2.875 2.875,2.875 1.5878,0 2.875,-1.287 2.875,-2.875 0,-1.588 -1.2872,-2.875 -2.875,-2.875 z" /></clipPath><clipPath
       id="clipPath650"
       clipPathUnits="userSpaceOnUse"><path
         id="path648"
         d="M 0,0 H 1250 V 1758 H 0 Z" /></clipPath><clipPath
       id="clipPath660"
       clipPathUnits="userSpaceOnUse"><path
         id="path658"
         d="m 136,984 h 756 v 82 H 136 Z" /></clipPath><clipPath
       id="clipPath680"
       clipPathUnits="userSpaceOnUse"><path
         id="path678"
         d="m 136,1078 h 756 v 40 H 136 Z" /></clipPath><clipPath
       id="clipPath694"
       clipPathUnits="userSpaceOnUse"><path
         id="path692"
         clip-rule="evenodd"
         d="M 50,920 H 928 V 758 H 50 Z" /></clipPath><clipPath
       id="clipPath700"
       clipPathUnits="userSpaceOnUse"><path
         id="path698"
         d="M 0,0 H 1250 V 1758 H 0 Z" /></clipPath><clipPath
       id="clipPath710"
       clipPathUnits="userSpaceOnUse"><path
         id="path708"
         clip-rule="evenodd"
         d="m 50,920 h 878 v -6 H 50 Z" /></clipPath><clipPath
       id="clipPath716"
       clipPathUnits="userSpaceOnUse"><path
         id="path714"
         d="M 0,0 H 1250 V 1758 H 0 Z" /></clipPath><clipPath
       id="clipPath726"
       clipPathUnits="userSpaceOnUse"><path
         id="path724"
         clip-rule="evenodd"
         d="m 105.5,849.0001 c 8.5598,0 15.4999,6.9376 15.4999,15.4999 0,8.5573 -6.9401,15.5 -15.4999,15.5 -8.55983,0 -15.5,-6.9427 -15.5,-15.5 0,-8.5623 6.94017,-15.4999 15.5,-15.4999 z m 0,18.8749 c -1.4498,0 -2.625,1.1753 -2.625,2.625 0,1.4498 1.1752,2.625 2.625,2.625 1.4497,0 2.625,-1.1752 2.625,-2.625 0,-1.4497 -1.1753,-2.625 -2.625,-2.625 z m 2.75,-11.3749 h -5.5 c -0.4142,0 -0.75,0.3358 -0.75,0.75 v 1.5 c 0,0.4141 0.3358,0.7499 0.75,0.7499 h 0.75 v 4 h -0.75 c -0.4142,0 -0.75,0.3359 -0.75,0.75 v 1.5 c 0,0.4142 0.3358,0.75 0.75,0.75 h 4 c 0.4141,0 0.75,-0.3358 0.75,-0.75 v -6.25 h 0.75 c 0.4141,0 0.75,-0.3358 0.75,-0.7499 v -1.5 c 0,-0.4142 -0.3359,-0.75 -0.75,-0.75 z" /></clipPath><clipPath
       id="clipPath732"
       clipPathUnits="userSpaceOnUse"><path
         id="path730"
         d="M 0,0 H 1250 V 1758 H 0 Z" /></clipPath><clipPath
       id="clipPath742"
       clipPathUnits="userSpaceOnUse"><path
         id="path740"
         clip-rule="evenodd"
         d="M 866.7456,852.5757 873,858.83 l 6.2544,-6.2543 c 0.7674,-0.7676 2.0124,-0.7676 2.7799,0 l 1.39,1.39 c 0.7676,0.7675 0.7676,2.0118 0,2.7799 L 877.17,863 l 6.2543,6.2544 c 0.7676,0.7674 0.7676,2.0118 0,2.78 l -1.39,1.39 c -0.7675,0.7675 -2.0118,0.7675 -2.7799,0 L 873,867.17 l -6.2544,6.2544 c -0.7674,0.7675 -2.0118,0.7675 -2.78,0 l -1.39,-1.39 c -0.7675,-0.7676 -0.7675,-2.0119 0,-2.78 L 868.83,863 l -6.2544,-6.2544 c -0.7675,-0.7674 -0.7675,-2.0118 0,-2.7799 l 1.39,-1.39 c 0.7676,-0.7676 2.0126,-0.7676 2.78,0 z" /></clipPath><clipPath
       id="clipPath748"
       clipPathUnits="userSpaceOnUse"><path
         id="path746"
         d="M 0,0 H 1250 V 1758 H 0 Z" /></clipPath><clipPath
       id="clipPath758"
       clipPathUnits="userSpaceOnUse"><path
         id="path756"
         d="m 138,790 h 758 v 42 H 138 Z" /></clipPath><clipPath
       id="clipPath772"
       clipPathUnits="userSpaceOnUse"><path
         id="path770"
         d="m 138,844 h 710 v 40 H 138 Z" /></clipPath></defs><sodipodi:namedview
     id="namedview4"
     inkscape:window-height="480"
     inkscape:window-width="640"
     inkscape:pageshadow="2"
     inkscape:pageopacity="0"
     guidetolerance="10"
     gridtolerance="10"
     objecttolerance="10"
     borderopacity="1"
     bordercolor="#666666"
     pagecolor="#ffffff" /><g
     transform="matrix(1.3333333,0,0,-1.3333333,0,2344)"
     inkscape:label="patternfly-template"
     inkscape:groupmode="layer"
     id="g10"><g
       id="g12" /><g
       id="g14"><g
         clip-path="url(#clipPath20)"
         id="g16"><g
           clip-path="url(#clipPath26)"
           id="g22"><path
             id="path28"
             style="fill:#f2f9f9;fill-opacity:1;fill-rule:nonzero;stroke:none"
             d="M 38,1382 H 936 V 1176 H 38 Z" /></g></g></g><g
       id="g30"><g
         clip-path="url(#clipPath36)"
         id="g32"><g
           clip-path="url(#clipPath42)"
           id="g38"><path
             id="path44"
             style="fill:#73c5c5;fill-opacity:1;fill-rule:nonzero;stroke:none"
             d="m 38,1382 h 898 v -26 H 38 Z" /></g></g></g><g
       id="g46"><g
         clip-path="url(#clipPath52)"
         id="g48"><g
           clip-path="url(#clipPath58)"
           id="g54"><path
             id="path60"
             style="fill:#73c5c5;fill-opacity:1;fill-rule:nonzero;stroke:none"
             d="M 79.99996,1342 H 128 v -52 H 79.99996 Z" /></g></g></g><g
       id="g62"><g
         clip-path="url(#clipPath68)"
         id="g64"><g
           clip-path="url(#clipPath74)"
           id="g70"><path
             id="path76"
             style="fill:#6a6e73;fill-opacity:1;fill-rule:nonzero;stroke:none"
             d="m 850,1336 h 42 v -42 h -42 z" /></g></g></g><g
       id="g78"><g
         clip-path="url(#clipPath84)"
         id="g80"><g
           transform="matrix(2,0,0,-2,136,1260)"
           id="g86"><text
             id="text90"
             style="font-variant:normal;font-weight:normal;font-size:14px;font-family:'Red Hat Text';-inkscape-font-specification:RedHatText-Regular;writing-mode:lr-tb;fill:#0066cc;fill-opacity:1;fill-rule:nonzero;stroke:none"
             transform="translate(0,14)"><tspan
               id="tspan88"
               sodipodi:role="line"
               y="0"
               x="0 9.2399998 16.365999 21.658001 24.780001 32.914001 40.641998 43.903999 47.026001 50.147999 57.875999">Action link</tspan></text></g></g></g><g
       id="g92"><g
         clip-path="url(#clipPath98)"
         id="g94"><g
           transform="matrix(2,0,0,-2,136,1336)"
           id="g100"><text
             id="text104"
             style="font-variant:normal;font-weight:500;font-size:14px;font-family:'Red Hat Text';-inkscape-font-specification:RedHatText-Medium;writing-mode:lr-tb;fill:#003737;fill-opacity:1;fill-rule:nonzero;stroke:none"
             transform="translate(0,14)"><tspan
               id="tspan102"
               sodipodi:role="line"
               y="0"
               x="0 10.388 18.41 24.164 31.864 40.012001 43.540001 49.335999 52.486 56.014 64.162003 67.690002 71.218002 79.365997 87.388 90.538002 98.237999 101.766 109.788 115.29 121.086 124.236 130.032 133.56 139.356 142.884 150.90601 154.056 162.078 169.554 177.254 189.51801 198.07201 201.60001">Default inline alert title example</tspan></text></g></g></g><g
       id="g106"><g
         clip-path="url(#clipPath112)"
         id="g108"><g
           clip-path="url(#clipPath118)"
           id="g114"><path
             id="path120"
             style="fill:#e7f1fa;fill-opacity:1;fill-rule:nonzero;stroke:none"
             d="M 40,1526 H 938 V 1394 H 40 Z" /></g></g></g><g
       id="g122"><g
         clip-path="url(#clipPath128)"
         id="g124"><g
           clip-path="url(#clipPath134)"
           id="g130"><path
             id="path136"
             style="fill:#2b9af3;fill-opacity:1;fill-rule:nonzero;stroke:none"
             d="m 40,1526 h 898 v -26 H 40 Z" /></g></g></g><g
       id="g138"><g
         clip-path="url(#clipPath144)"
         id="g140"><g
           clip-path="url(#clipPath150)"
           id="g146"><path
             id="path152"
             style="fill:#2b9af3;fill-opacity:1;fill-rule:nonzero;stroke:none"
             d="m 80,1486 h 50.9999 v -51 H 80 Z" /></g></g></g><g
       id="g154"><g
         clip-path="url(#clipPath160)"
         id="g156"><g
           transform="matrix(2,0,0,-2,138,1480)"
           id="g162"><text
             id="text166"
             style="font-variant:normal;font-weight:500;font-size:14px;font-family:'Red Hat Text';-inkscape-font-specification:RedHatText-Medium;writing-mode:lr-tb;fill:#004368;fill-opacity:1;fill-rule:nonzero;stroke:none"
             transform="translate(0,14)"><tspan
               id="tspan164"
               sodipodi:role="line"
               y="0"
               x="0 3.878 12.026 17.780001 26.152 29.302 32.830002 40.978001 44.506001 48.034 56.181999 64.204002 67.353996 75.054001 78.582001 86.603996 92.106003 97.902 101.052 106.848 110.376 116.172 119.7">Info inline alert title</tspan></text></g></g></g><g
       id="g168"><g
         clip-path="url(#clipPath174)"
         id="g170"><g
           clip-path="url(#clipPath180)"
           id="g176"><path
             id="path182"
             style="fill:#f3faf2;fill-opacity:1;fill-rule:nonzero;stroke:none"
             d="M 38,1720 H 498 V 1538 H 38 Z" /></g></g></g><g
       id="g184"><g
         clip-path="url(#clipPath190)"
         id="g186"><g
           clip-path="url(#clipPath196)"
           id="g192"><path
             id="path198"
             style="fill:#3e8635;fill-opacity:1;fill-rule:nonzero;stroke:none"
             d="m 38,1720 h 460 v -26 H 38 Z" /></g></g></g><g
       id="g200"><g
         clip-path="url(#clipPath206)"
         id="g202"><g
           clip-path="url(#clipPath212)"
           id="g208"><path
             id="path214"
             style="fill:#3e8635;fill-opacity:1;fill-rule:nonzero;stroke:none"
             d="m 78,1680 h 50.9999 v -51 H 78 Z" /></g></g></g><g
       id="g216"><g
         clip-path="url(#clipPath222)"
         id="g218"><g
           transform="matrix(2,0,0,-2,136,1674)"
           id="g224"><text
             id="text228"
             style="font-variant:normal;font-weight:500;font-size:14px;font-family:'Red Hat Text';-inkscape-font-specification:RedHatText-Medium;writing-mode:lr-tb;fill:#1e4f18;fill-opacity:1;fill-rule:nonzero;stroke:none"
             transform="translate(0,14)"><tspan
               id="tspan226"
               sodipodi:role="line"
               y="0"
               x="0 8.9180002 17.066 24.388 31.709999 39.731998 46.438 53.144001 56.293999 59.821999 67.970001 71.498001 75.026001 83.174004 91.195999 94.346001 102.046 105.574 113.596 119.098 124.894 128.04401 133.84 137.368 143.164 146.692 154.714">Success inline alert title </tspan></text></g><g
           transform="matrix(2,0,0,-2,136,1674)"
           id="g230"><text
             id="text234"
             style="font-variant:normal;font-weight:500;font-size:14px;font-family:'Red Hat Text';-inkscape-font-specification:RedHatText-Medium;writing-mode:lr-tb;fill:#1e4f18;fill-opacity:1;fill-rule:nonzero;stroke:none"
             transform="translate(0,35)"><tspan
               id="tspan232"
               sodipodi:role="line"
               y="0"
               x="0 8.0220003 15.498 23.198 35.462002 44.015999 47.543999 55.566002 58.716 64.512001 72.660004 80.360001 86.155998 89.306 96.627998 104.328 112.476 115.626 125.944 131.446 139.146">example that can wrap</tspan></text></g></g></g><g
       id="g236"><g
         clip-path="url(#clipPath242)"
         id="g238"><g
           clip-path="url(#clipPath248)"
           id="g244"><path
             id="path250"
             style="fill:#fdf7e7;fill-opacity:1;fill-rule:nonzero;stroke:none"
             d="M 40,736 H 938 V 436 H 40 Z" /></g></g></g><g
       id="g252"><g
         clip-path="url(#clipPath258)"
         id="g254"><g
           clip-path="url(#clipPath264)"
           id="g260"><path
             id="path266"
             style="fill:#f0ab00;fill-opacity:1;fill-rule:nonzero;stroke:none"
             d="M 40,736 H 938 V 710 H 40 Z" /></g></g></g><g
       id="g268"><g
         clip-path="url(#clipPath274)"
         id="g270"><g
           clip-path="url(#clipPath280)"
           id="g276"><path
             id="path282"
             style="fill:#f0ab00;fill-opacity:1;fill-rule:nonzero;stroke:none"
             d="m 78,696 h 55.9999 V 644.0001 H 78 Z" /></g></g></g><g
       id="g284"><g
         clip-path="url(#clipPath290)"
         id="g286"><g
           clip-path="url(#clipPath296)"
           id="g292"><path
             id="path298"
             style="fill:#6a6e73;fill-opacity:1;fill-rule:nonzero;stroke:none"
             d="m 852,690 h 42 v -42 h -42 z" /></g></g></g><g
       id="g300"><g
         clip-path="url(#clipPath306)"
         id="g302"><g
           transform="matrix(2,0,0,-2,138,520)"
           id="g308"><text
             id="text312"
             style="font-variant:normal;font-weight:normal;font-size:14px;font-family:'Red Hat Text';-inkscape-font-specification:RedHatText-Regular;writing-mode:lr-tb;fill:#0066cc;fill-opacity:1;fill-rule:nonzero;stroke:none"
             transform="translate(0,14)"><tspan
               id="tspan310"
               sodipodi:role="line"
               y="0"
               x="0 9.2399998 16.365999 21.658001 24.780001 32.914001 40.641998 43.903999">Action 1</tspan></text></g></g></g><g
       id="g314"><g
         clip-path="url(#clipPath320)"
         id="g316"><g
           transform="matrix(2,0,0,-2,138,638)"
           id="g322"><text
             id="text326"
             style="font-variant:normal;font-weight:normal;font-size:14px;font-family:'Red Hat Text';-inkscape-font-specification:RedHatText-Regular;writing-mode:lr-tb;fill:#151515;fill-opacity:1;fill-rule:nonzero;stroke:none"
             transform="translate(0,14)"><tspan
               id="tspan324"
               sodipodi:role="line"
               y="0"
               x="0 12.558 19.922001 24.85 32.577999 35.700001 43.428001 51.576 54.838001 57.959999 65.688004 68.809998 71.931999 79.660004 87.458 90.720001 98.084 101.206 109.004 113.932 119.224 122.486 130.634 138.43201 144.75999 151.886 156.814 159.936 168.09801 173.39 176.51199 184.646 192.37399 195.636 203.43401 210.252 217.616 229.446 237.608 240.73 248.528 251.78999 257.082 264.81 272.17401 277.466 280.728 287.854 295.21799 302.94601 306.20801 313.57199 316.694 323.022 331.15601 334.418 344.19 349.11801 356.48199 364.64401">Warning inline alert description example that can also wrap </tspan></text></g><g
           transform="matrix(2,0,0,-2,138,638)"
           id="g328"><text
             id="text332"
             style="font-variant:normal;font-weight:normal;font-size:14px;font-family:'Red Hat Text';-inkscape-font-specification:RedHatText-Regular;writing-mode:lr-tb;fill:#151515;fill-opacity:1;fill-rule:nonzero;stroke:none"
             transform="translate(0,35)"><tspan
               id="tspan330"
               sodipodi:role="line"
               y="0"
               x="0 5.2919998 13.426 16.688 24.052 30.379999 33.641998 45.472 52.835999 60.563999 67.536003 70.797997 73.919998 77.042 84.769997 92.568001 98.896004 102.158 109.522 115.85 119.112 126.84 134.638 141.76401 149.562 155.89 162.218 169.582 174.50999">to as many lines as necessary</tspan></text></g></g></g><g
       id="g334"><g
         clip-path="url(#clipPath340)"
         id="g336"><g
           transform="matrix(2,0,0,-2,138,690)"
           id="g342"><text
             id="text346"
             style="font-variant:normal;font-weight:500;font-size:14px;font-family:'Red Hat Text';-inkscape-font-specification:RedHatText-Medium;writing-mode:lr-tb;fill:#795600;fill-opacity:1;fill-rule:nonzero;stroke:none"
             transform="translate(0,14)"><tspan
               id="tspan344"
               sodipodi:role="line"
               y="0"
               x="0 13.104 20.804001 26.306 34.453999 37.981998 46.130001 54.655998 57.806 61.334 69.482002 73.010002 76.538002 84.685997 92.708 95.858002 103.558 107.086 115.108 120.61 126.406 129.556 135.35201 138.88 144.67599 148.20399 156.226 159.37601 167.39799 174.87399 182.57401 194.838 203.392 206.92">Warning inline alert title example</tspan></text></g></g></g><g
       id="g348"><g
         clip-path="url(#clipPath354)"
         id="g350"><g
           transform="matrix(2,0,0,-2,284,520)"
           id="g356"><text
             id="text360"
             style="font-variant:normal;font-weight:normal;font-size:14px;font-family:'Red Hat Text';-inkscape-font-specification:RedHatText-Regular;writing-mode:lr-tb;fill:#0066cc;fill-opacity:1;fill-rule:nonzero;stroke:none"
             transform="translate(0,14)"><tspan
               id="tspan358"
               sodipodi:role="line"
               y="0"
               x="0 9.2399998 16.365999 21.658001 24.780001 32.914001 40.641998 43.903999">Action 2</tspan></text></g></g></g><g
       id="g362"><g
         clip-path="url(#clipPath368)"
         id="g364"><g
           clip-path="url(#clipPath374)"
           id="g370"><path
             id="path376"
             style="fill:#f3faf2;fill-opacity:1;fill-rule:nonzero;stroke:none"
             d="M 40,424 H 938 V 128 H 40 Z" /></g></g></g><g
       id="g378"><g
         clip-path="url(#clipPath384)"
         id="g380"><g
           clip-path="url(#clipPath390)"
           id="g386"><path
             id="path392"
             style="fill:#3e8635;fill-opacity:1;fill-rule:nonzero;stroke:none"
             d="M 40,424 H 938 V 398 H 40 Z" /></g></g></g><g
       id="g394"><g
         clip-path="url(#clipPath400)"
         id="g396"><g
           clip-path="url(#clipPath406)"
           id="g402"><path
             id="path408"
             style="fill:#3e8635;fill-opacity:1;fill-rule:nonzero;stroke:none"
             d="m 80,384 h 50.9999 V 333.0001 H 80 Z" /></g></g></g><g
       id="g410"><g
         clip-path="url(#clipPath416)"
         id="g412"><g
           clip-path="url(#clipPath422)"
           id="g418"><path
             id="path424"
             style="fill:#6a6e73;fill-opacity:1;fill-rule:nonzero;stroke:none"
             d="m 852,378 h 42 v -42 h -42 z" /></g></g></g><g
       id="g426"><g
         clip-path="url(#clipPath432)"
         id="g428"><g
           transform="matrix(2,0,0,-2,138,212)"
           id="g434" /></g></g><g
       id="g436"><g
         clip-path="url(#clipPath442)"
         id="g438"><g
           transform="matrix(2,0,0,-2,138,326)"
           id="g444"><text
             id="text448"
             style="font-variant:normal;font-weight:normal;font-size:14px;font-family:'Red Hat Text';-inkscape-font-specification:RedHatText-Regular;writing-mode:lr-tb;fill:#151515;fill-opacity:1;fill-rule:nonzero;stroke:none"
             transform="translate(0,14)"><tspan
               id="tspan446"
               sodipodi:role="line"
               y="0"
               x="0 9.0439997 17.177999 24.906 29.834 33.096001 40.459999 48.622002 56.784 59.905998 63.028 70.153999 77.517998 82.809998 85.931999 94.066002 101.794 105.056 114.828 122.192 128.52 131.782 138.11 145.838 152.964 160.09 167.888 174.216 180.54401 185.724 193.452 196.57401 199.65401 202.916 212.688 220.416 227.78 233.07201 236.334 246.106 254.24001 261.96799 265.09 273.23801 276.5 283.47198 291.60599 299.33401 302.59601 305.71799 308.84 315.686 323.48401 326.746 332.03799 340.172 343.43399 351.582 359.716">Your application was successful, what would you like to do </tspan></text></g><g
           transform="matrix(2,0,0,-2,138,326)"
           id="g450"><text
             id="text454"
             style="font-variant:normal;font-weight:normal;font-size:14px;font-family:'Red Hat Text';-inkscape-font-specification:RedHatText-Regular;writing-mode:lr-tb;fill:#151515;fill-opacity:1;fill-rule:nonzero;stroke:none"
             transform="translate(0,35)"><tspan
               id="tspan452"
               sodipodi:role="line"
               y="0"
               x="0 7.7280002 15.862 25.634001">now?</tspan></text></g></g></g><g
       id="g456"><g
         clip-path="url(#clipPath462)"
         id="g458"><g
           transform="matrix(2,0,0,-2,138,378)"
           id="g464"><text
             id="text468"
             style="font-variant:normal;font-weight:500;font-size:14px;font-family:'Red Hat Text';-inkscape-font-specification:RedHatText-Medium;writing-mode:lr-tb;fill:#1e4f18;fill-opacity:1;fill-rule:nonzero;stroke:none"
             transform="translate(0,14)"><tspan
               id="tspan466"
               sodipodi:role="line"
               y="0"
               x="0 9.7580004 18.312 26.865999 30.393999 33.922001 41.243999 48.944 54.740002 58.268002 66.639999 74.788002 77.938004 85.260002 93.632004 105.896 114.45 117.978 126 131.79601">Application complete</tspan></text></g></g></g><g
       id="g470"><g
         clip-path="url(#clipPath476)"
         id="g472"><g
           transform="matrix(2,0,0,-2,186,206)"
           id="g478"><text
             id="text482"
             style="font-variant:normal;font-weight:normal;font-size:14px;font-family:'Red Hat Text';-inkscape-font-specification:RedHatText-Regular;writing-mode:lr-tb;fill:#151515;fill-opacity:1;fill-rule:nonzero;stroke:none"
             transform="translate(0,14)"><tspan
               id="tspan480"
               sodipodi:role="line"
               y="0"
               x="0 11.34 19.502001 24.794001 27.916 36.049999 43.778 47.040001">Option 1</tspan></text></g></g></g><g
       id="g484"><g
         clip-path="url(#clipPath490)"
         id="g486"><g
           clip-path="url(#clipPath496)"
           id="g492"><g
             id="g498" /><g
             id="g536"><g
               id="g534"
               clip-path="url(#clipPath502)"><g
                 id="g516" /><g
                 id="g524"><g
                   id="g522"
                   clip-path="url(#clipPath506)"><g
                     id="g520"
                     clip-path="url(#clipPath510)"><path
                       id="path518"
                       style="fill:#ffffff;fill-opacity:1;fill-rule:nonzero;stroke:none"
                       d="m 154,170 c 8.8366,0 16,7.1634 16,16 0,8.8366 -7.1634,16 -16,16 -8.8366,0 -16,-7.1634 -16,-16 0,-8.8366 7.1634,-16 16,-16 z" /></g></g></g><g
                 id="g532"><g
                   id="g530"
                   clip-path="url(#clipPath514)"><g
                     id="g528"
                     transform="matrix(2,0,0,-2,138,202)"><path
                       id="path526"
                       style="fill:none;stroke:#6a6e73;stroke-width:2;stroke-linecap:butt;stroke-linejoin:miter;stroke-miterlimit:10;stroke-dasharray:none;stroke-opacity:1"
                       d="m 8,16 c 4.41828,0 8,-3.58172 8,-8 C 16,3.581722 12.41828,0 8,0 3.581722,0 0,3.581722 0,8 c 0,4.41828 3.581722,8 8,8 z" /></g></g></g></g></g></g></g></g><g
       id="g538"><g
         clip-path="url(#clipPath544)"
         id="g540"><g
           transform="matrix(2,0,0,-2,402,206)"
           id="g546"><text
             id="text550"
             style="font-variant:normal;font-weight:normal;font-size:14px;font-family:'Red Hat Text';-inkscape-font-specification:RedHatText-Regular;writing-mode:lr-tb;fill:#151515;fill-opacity:1;fill-rule:nonzero;stroke:none"
             transform="translate(0,14)"><tspan
               id="tspan548"
               sodipodi:role="line"
               y="0"
               x="0 11.34 19.502001 24.794001 27.916 36.049999 43.778 47.040001">Option 2</tspan></text></g></g></g><g
       id="g552"><g
         clip-path="url(#clipPath558)"
         id="g554"><g
           clip-path="url(#clipPath564)"
           id="g560"><g
             id="g566" /><g
             id="g604"><g
               id="g602"
               clip-path="url(#clipPath570)"><g
                 id="g584" /><g
                 id="g592"><g
                   id="g590"
                   clip-path="url(#clipPath574)"><g
                     id="g588"
                     clip-path="url(#clipPath578)"><path
                       id="path586"
                       style="fill:#ffffff;fill-opacity:1;fill-rule:nonzero;stroke:none"
                       d="m 370,170 c 8.8366,0 16,7.1634 16,16 0,8.8366 -7.1634,16 -16,16 -8.8366,0 -16,-7.1634 -16,-16 0,-8.8366 7.1634,-16 16,-16 z" /></g></g></g><g
                 id="g600"><g
                   id="g598"
                   clip-path="url(#clipPath582)"><g
                     id="g596"
                     transform="matrix(2,0,0,-2,354,202)"><path
                       id="path594"
                       style="fill:none;stroke:#6a6e73;stroke-width:2;stroke-linecap:butt;stroke-linejoin:miter;stroke-miterlimit:10;stroke-dasharray:none;stroke-opacity:1"
                       d="m 8,16 c 4.41828,0 8,-3.58172 8,-8 C 16,3.581722 12.41828,0 8,0 3.581722,0 0,3.581722 0,8 c 0,4.41828 3.581722,8 8,8 z" /></g></g></g></g></g></g></g></g><g
       id="g606"><g
         clip-path="url(#clipPath612)"
         id="g608"><g
           clip-path="url(#clipPath618)"
           id="g614"><path
             id="path620"
             style="fill:#faeae8;fill-opacity:1;fill-rule:nonzero;stroke:none"
             d="M 38,1164 H 934 V 942 H 38 Z" /></g></g></g><g
       id="g622"><g
         clip-path="url(#clipPath628)"
         id="g624"><g
           clip-path="url(#clipPath634)"
           id="g630"><path
             id="path636"
             style="fill:#c9190b;fill-opacity:1;fill-rule:nonzero;stroke:none"
             d="m 38,1164 h 896 v -26 H 38 Z" /></g></g></g><g
       id="g638"><g
         clip-path="url(#clipPath644)"
         id="g640"><g
           clip-path="url(#clipPath650)"
           id="g646"><path
             id="path652"
             style="fill:#c9190b;fill-opacity:1;fill-rule:nonzero;stroke:none"
             d="m 78,1124 h 50.9999 v -51 H 78 Z" /></g></g></g><g
       id="g654"><g
         clip-path="url(#clipPath660)"
         id="g656"><g
           transform="matrix(2,0,0,-2,136,1066)"
           id="g662"><text
             id="text666"
             style="font-variant:normal;font-weight:normal;font-size:14px;font-family:'Red Hat Text';-inkscape-font-specification:RedHatText-Regular;writing-mode:lr-tb;fill:#151515;fill-opacity:1;fill-rule:nonzero;stroke:none"
             transform="translate(0,14)"><tspan
               id="tspan664"
               sodipodi:role="line"
               y="0"
               x="0 10.192 17.556 25.284 33.431999 41.23 46.158001 49.419998 52.542 60.27 63.391998 66.514 74.241997 82.040001 85.302002 92.666 95.788002 103.586 108.514 113.806 117.068 125.216 133.01401 139.342 146.468 151.396 154.51801 162.67999 167.972 171.09399 179.228 186.95599 190.218 198.01601 204.834 212.198 224.028 232.19 235.312 243.11 246.37199 251.664 259.392 266.75601 272.048 275.31 282.436 289.79999 297.52802 300.79001 308.15399 311.276 317.604 325.73801 329 338.772 343.70001 351.064 359.22601 362.48801 367.78 375.914">Danger inline alert description example that can also wrap to </tspan></text></g><g
           transform="matrix(2,0,0,-2,136,1066)"
           id="g668"><text
             id="text672"
             style="font-variant:normal;font-weight:normal;font-size:14px;font-family:'Red Hat Text';-inkscape-font-specification:RedHatText-Regular;writing-mode:lr-tb;fill:#151515;fill-opacity:1;fill-rule:nonzero;stroke:none"
             transform="translate(0,35)"><tspan
               id="tspan670"
               sodipodi:role="line"
               y="0"
               x="0 7.3639998 13.692 16.954 28.784 36.147999 43.875999 50.848 54.110001 57.231998 60.354 68.082001 75.879997 82.208 85.470001 92.834 99.162003 102.424 110.152 117.95 125.076 132.87399 139.202 145.53 152.894 157.82201">as many lines as necessary</tspan></text></g></g></g><g
       id="g674"><g
         clip-path="url(#clipPath680)"
         id="g676"><g
           transform="matrix(2,0,0,-2,136,1118)"
           id="g682"><text
             id="text686"
             style="font-variant:normal;font-weight:500;font-size:14px;font-family:'Red Hat Text';-inkscape-font-specification:RedHatText-Medium;writing-mode:lr-tb;fill:#7d1007;fill-opacity:1;fill-rule:nonzero;stroke:none"
             transform="translate(0,14)"><tspan
               id="tspan684"
               sodipodi:role="line"
               y="0"
               x="0 10.388 18.087999 26.236 34.762001 42.784 48.285999 51.436001 54.964001 63.112 66.639999 70.167999 78.316002 86.337997 89.487999 97.188004 100.716 108.738 114.24 120.036 123.186 128.98199 132.50999 138.306 141.834">Danger inline alert title</tspan></text></g></g></g><g
       id="g688"><g
         clip-path="url(#clipPath694)"
         id="g690"><g
           clip-path="url(#clipPath700)"
           id="g696"><path
             id="path702"
             style="fill:#e7f1fa;fill-opacity:1;fill-rule:nonzero;stroke:none"
             d="M 40,930 H 938 V 748 H 40 Z" /></g></g></g><g
       id="g704"><g
         clip-path="url(#clipPath710)"
         id="g706"><g
           clip-path="url(#clipPath716)"
           id="g712"><path
             id="path718"
             style="fill:#2b9af3;fill-opacity:1;fill-rule:nonzero;stroke:none"
             d="M 40,930 H 938 V 904 H 40 Z" /></g></g></g><g
       id="g720"><g
         clip-path="url(#clipPath726)"
         id="g722"><g
           clip-path="url(#clipPath732)"
           id="g728"><path
             id="path734"
             style="fill:#2b9af3;fill-opacity:1;fill-rule:nonzero;stroke:none"
             d="m 80,890 h 50.9999 V 839.0001 H 80 Z" /></g></g></g><g
       id="g736"><g
         clip-path="url(#clipPath742)"
         id="g738"><g
           clip-path="url(#clipPath748)"
           id="g744"><path
             id="path750"
             style="fill:#6a6e73;fill-opacity:1;fill-rule:nonzero;stroke:none"
             d="m 852,884 h 42 v -42 h -42 z" /></g></g></g><g
       id="g752"><g
         clip-path="url(#clipPath758)"
         id="g754"><g
           transform="matrix(2,0,0,-2,138,832)"
           id="g760"><text
             id="text764"
             style="font-variant:normal;font-weight:normal;font-size:14px;font-family:'Red Hat Text';-inkscape-font-specification:RedHatText-Regular;writing-mode:lr-tb;fill:#151515;fill-opacity:1;fill-rule:nonzero;stroke:none"
             transform="translate(0,14)"><tspan
               id="tspan762"
               sodipodi:role="line"
               y="0"
               x="0 3.5280001 11.256 16.436001 24.57 27.832001 35.195999 38.318001 46.116001 51.043999 56.335999 59.598 67.746002 75.543999 81.872002 88.998001 93.926003 97.047997 105.21 110.502 113.624 121.758 129.48599 132.748 140.54601 147.364 154.728 166.558 174.72 177.842">Info alert description example</tspan></text></g></g></g><g
       id="g766"><g
         clip-path="url(#clipPath772)"
         id="g768"><g
           transform="matrix(2,0,0,-2,138,884)"
           id="g774"><text
             id="text778"
             style="font-variant:normal;font-weight:500;font-size:14px;font-family:'Red Hat Text';-inkscape-font-specification:RedHatText-Medium;writing-mode:lr-tb;fill:#004368;fill-opacity:1;fill-rule:nonzero;stroke:none"
             transform="translate(0,14)"><tspan
               id="tspan776"
               sodipodi:role="line"
               y="0"
               x="0 3.878 12.026 17.780001 26.152 29.302 32.830002 40.978001 44.506001 48.034 56.181999 64.204002 67.353996 75.054001 78.582001 86.603996 92.106003 97.902 101.052 106.848 110.376 116.172 119.7">Info inline alert title</tspan></text></g></g></g></g></svg>
