<?xml version="1.0" encoding="UTF-8" standalone="no"?>
<svg
   xmlns:dc="http://purl.org/dc/elements/1.1/"
   xmlns:cc="http://creativecommons.org/ns#"
   xmlns:rdf="http://www.w3.org/1999/02/22-rdf-syntax-ns#"
   xmlns:svg="http://www.w3.org/2000/svg"
   xmlns="http://www.w3.org/2000/svg"
   xmlns:sodipodi="http://sodipodi.sourceforge.net/DTD/sodipodi-0.dtd"
   xmlns:inkscape="http://www.inkscape.org/namespaces/inkscape"
   sodipodi:docname="patternfly-template.pdf"
   viewBox="0 0 833.33331 50.666668"
   height="50.666668"
   width="833.33331"
   xml:space="preserve"
   id="svg2"
   version="1.1"><metadata
     id="metadata8"><rdf:RDF><cc:Work
         rdf:about=""><dc:format>image/svg+xml</dc:format><dc:type
           rdf:resource="http://purl.org/dc/dcmitype/StillImage" /></cc:Work></rdf:RDF></metadata><defs
     id="defs6"><clipPath
       id="clipPath20"
       clipPathUnits="userSpaceOnUse"><path
         id="path18"
         clip-rule="evenodd"
         d="m 3,38 h 619 c 1.6569,0 3,-1.34315 3,-3 V 5 c 0,-1.656854 -1.3431,-3 -3,-3 H 3 C 1.343146,2 0,3.343146 0,5 v 30 c 0,1.65685 1.343146,3 3,3 z" /></clipPath><clipPath
       id="clipPath26"
       clipPathUnits="userSpaceOnUse"><path
         id="path24"
         d="M 0,0 H 625 V 38 H 0 Z" /></clipPath><clipPath
       id="clipPath36"
       clipPathUnits="userSpaceOnUse"><path
         id="path34"
         d="M 0,0 H 625 V 38 H 0 Z" /></clipPath><clipPath
       id="clipPath50"
       clipPathUnits="userSpaceOnUse"><path
         id="path48"
         clip-rule="evenodd"
         d="m 546,34 h 68 c 1.6569,0 3,-1.34315 3,-3 V 11 c 0,-1.656854 -1.3431,-3 -3,-3 h -68 c -1.6569,0 -3,1.343146 -3,3 v 20 c 0,1.65685 1.3431,3 3,3 z" /></clipPath><clipPath
       id="clipPath56"
       clipPathUnits="userSpaceOnUse"><path
         id="path54"
         d="M 0,0 H 625 V 38 H 0 Z" /></clipPath><clipPath
       id="clipPath62"
       clipPathUnits="userSpaceOnUse"><path
         id="path60"
         d="m 543,8 h 74 v 26 h -74 z" /></clipPath><clipPath
       id="clipPath66"
       clipPathUnits="userSpaceOnUse"><path
         id="path64"
         clip-rule="evenodd"
         d="m 546,34 h 68 c 1.6569,0 3,-1.34315 3,-3 V 11 c 0,-1.656854 -1.3431,-3 -3,-3 h -68 c -1.6569,0 -3,1.343146 -3,3 v 20 c 0,1.65685 1.3431,3 3,3 z" /></clipPath><clipPath
       id="clipPath70"
       clipPathUnits="userSpaceOnUse"><path
         id="path68"
         d="m 543,8 h 74 v 26 h -74 z" /></clipPath><clipPath
       id="clipPath74"
       clipPathUnits="userSpaceOnUse"><path
         id="path72"
         d="m 543,8 h 74 v 26 h -74 z" /></clipPath><clipPath
       id="clipPath104"
       clipPathUnits="userSpaceOnUse"><path
         id="path102"
         clip-rule="evenodd"
         d="m 602.7796,16.96587 2.3454,2.34539 2.3454,-2.34539 c 0.2878,-0.28782 0.7547,-0.28782 1.0425,0 l 0.5212,0.52126 c 0.2878,0.28781 0.2878,0.75443 0,1.04248 l -2.3454,2.34539 2.3454,2.3454 c 0.2878,0.28779 0.2878,0.75443 0,1.04248 l -0.5212,0.52126 c -0.2878,0.28781 -0.7545,0.28781 -1.0425,0 l -2.3454,-2.3454 -2.3454,2.3454 c -0.2878,0.28781 -0.7544,0.28781 -1.0425,0 l -0.5212,-0.52126 c -0.2879,-0.28782 -0.2879,-0.75444 0,-1.04248 l 2.3454,-2.3454 -2.3454,-2.34539 c -0.2879,-0.28779 -0.2879,-0.75444 0,-1.04248 l 0.5212,-0.52126 c 0.2878,-0.28782 0.7547,-0.28782 1.0425,0 z" /></clipPath><clipPath
       id="clipPath110"
       clipPathUnits="userSpaceOnUse"><path
         id="path108"
         d="M 0,0 H 625 V 38 H 0 Z" /></clipPath><clipPath
       id="clipPath120"
       clipPathUnits="userSpaceOnUse"><path
         id="path118"
         d="M 0,0 H 625 V 38 H 0 Z" /></clipPath><clipPath
       id="clipPath134"
       clipPathUnits="userSpaceOnUse"><path
         id="path132"
         clip-rule="evenodd"
         d="m 468,34 h 68 c 1.6569,0 3,-1.34315 3,-3 V 11 c 0,-1.656854 -1.3431,-3 -3,-3 h -68 c -1.6569,0 -3,1.343146 -3,3 v 20 c 0,1.65685 1.3431,3 3,3 z" /></clipPath><clipPath
       id="clipPath140"
       clipPathUnits="userSpaceOnUse"><path
         id="path138"
         d="M 0,0 H 625 V 38 H 0 Z" /></clipPath><clipPath
       id="clipPath146"
       clipPathUnits="userSpaceOnUse"><path
         id="path144"
         d="m 465,8 h 74 v 26 h -74 z" /></clipPath><clipPath
       id="clipPath150"
       clipPathUnits="userSpaceOnUse"><path
         id="path148"
         clip-rule="evenodd"
         d="m 468,34 h 68 c 1.6569,0 3,-1.34315 3,-3 V 11 c 0,-1.656854 -1.3431,-3 -3,-3 h -68 c -1.6569,0 -3,1.343146 -3,3 v 20 c 0,1.65685 1.3431,3 3,3 z" /></clipPath><clipPath
       id="clipPath154"
       clipPathUnits="userSpaceOnUse"><path
         id="path152"
         d="m 465,8 h 74 v 26 h -74 z" /></clipPath><clipPath
       id="clipPath158"
       clipPathUnits="userSpaceOnUse"><path
         id="path156"
         d="m 465,8 h 74 v 26 h -74 z" /></clipPath><clipPath
       id="clipPath188"
       clipPathUnits="userSpaceOnUse"><path
         id="path186"
         clip-rule="evenodd"
         d="m 524.7796,16.96587 2.3454,2.34539 2.3454,-2.34539 c 0.2878,-0.28782 0.7547,-0.28782 1.0425,0 l 0.5212,0.52126 c 0.2878,0.28781 0.2878,0.75443 0,1.04248 l -2.3454,2.34539 2.3454,2.3454 c 0.2878,0.28779 0.2878,0.75443 0,1.04248 l -0.5212,0.52126 c -0.2878,0.28781 -0.7545,0.28781 -1.0425,0 l -2.3454,-2.3454 -2.3454,2.3454 c -0.2878,0.28781 -0.7544,0.28781 -1.0425,0 l -0.5212,-0.52126 c -0.2879,-0.28782 -0.2879,-0.75444 0,-1.04248 l 2.3454,-2.3454 -2.3454,-2.34539 c -0.2879,-0.28779 -0.2879,-0.75444 0,-1.04248 l 0.5212,-0.52126 c 0.2878,-0.28782 0.7547,-0.28782 1.0425,0 z" /></clipPath><clipPath
       id="clipPath194"
       clipPathUnits="userSpaceOnUse"><path
         id="path192"
         d="M 0,0 H 625 V 38 H 0 Z" /></clipPath><clipPath
       id="clipPath204"
       clipPathUnits="userSpaceOnUse"><path
         id="path202"
         d="M 0,0 H 625 V 38 H 0 Z" /></clipPath><clipPath
       id="clipPath218"
       clipPathUnits="userSpaceOnUse"><path
         id="path216"
         clip-rule="evenodd"
         d="m 390,34 h 68 c 1.6569,0 3,-1.34315 3,-3 V 11 c 0,-1.656854 -1.3431,-3 -3,-3 h -68 c -1.6569,0 -3,1.343146 -3,3 v 20 c 0,1.65685 1.3431,3 3,3 z" /></clipPath><clipPath
       id="clipPath224"
       clipPathUnits="userSpaceOnUse"><path
         id="path222"
         d="M 0,0 H 625 V 38 H 0 Z" /></clipPath><clipPath
       id="clipPath230"
       clipPathUnits="userSpaceOnUse"><path
         id="path228"
         d="m 387,8 h 74 v 26 h -74 z" /></clipPath><clipPath
       id="clipPath234"
       clipPathUnits="userSpaceOnUse"><path
         id="path232"
         clip-rule="evenodd"
         d="m 390,34 h 68 c 1.6569,0 3,-1.34315 3,-3 V 11 c 0,-1.656854 -1.3431,-3 -3,-3 h -68 c -1.6569,0 -3,1.343146 -3,3 v 20 c 0,1.65685 1.3431,3 3,3 z" /></clipPath><clipPath
       id="clipPath238"
       clipPathUnits="userSpaceOnUse"><path
         id="path236"
         d="m 387,8 h 74 v 26 h -74 z" /></clipPath><clipPath
       id="clipPath242"
       clipPathUnits="userSpaceOnUse"><path
         id="path240"
         d="m 387,8 h 74 v 26 h -74 z" /></clipPath><clipPath
       id="clipPath272"
       clipPathUnits="userSpaceOnUse"><path
         id="path270"
         clip-rule="evenodd"
         d="m 446.7796,16.96587 2.3454,2.34539 2.3454,-2.34539 c 0.2878,-0.28782 0.7547,-0.28782 1.0425,0 l 0.5212,0.52126 c 0.2878,0.28781 0.2878,0.75443 0,1.04248 l -2.3454,2.34539 2.3454,2.3454 c 0.2878,0.28779 0.2878,0.75443 0,1.04248 l -0.5212,0.52126 c -0.2878,0.28781 -0.7545,0.28781 -1.0425,0 l -2.3454,-2.3454 -2.3454,2.3454 c -0.2878,0.28781 -0.7544,0.28781 -1.0425,0 l -0.5212,-0.52126 c -0.2879,-0.28782 -0.2879,-0.75444 0,-1.04248 l 2.3454,-2.3454 -2.3454,-2.34539 c -0.2879,-0.28779 -0.2879,-0.75444 0,-1.04248 l 0.5212,-0.52126 c 0.2878,-0.28782 0.7547,-0.28782 1.0425,0 z" /></clipPath><clipPath
       id="clipPath278"
       clipPathUnits="userSpaceOnUse"><path
         id="path276"
         d="M 0,0 H 625 V 38 H 0 Z" /></clipPath><clipPath
       id="clipPath288"
       clipPathUnits="userSpaceOnUse"><path
         id="path286"
         d="M 0,0 H 625 V 38 H 0 Z" /></clipPath><clipPath
       id="clipPath302"
       clipPathUnits="userSpaceOnUse"><path
         id="path300"
         clip-rule="evenodd"
         d="m 312,34 h 68 c 1.6569,0 3,-1.34315 3,-3 V 11 c 0,-1.656854 -1.3431,-3 -3,-3 h -68 c -1.6569,0 -3,1.343146 -3,3 v 20 c 0,1.65685 1.3431,3 3,3 z" /></clipPath><clipPath
       id="clipPath308"
       clipPathUnits="userSpaceOnUse"><path
         id="path306"
         d="M 0,0 H 625 V 38 H 0 Z" /></clipPath><clipPath
       id="clipPath314"
       clipPathUnits="userSpaceOnUse"><path
         id="path312"
         d="m 309,8 h 74 v 26 h -74 z" /></clipPath><clipPath
       id="clipPath318"
       clipPathUnits="userSpaceOnUse"><path
         id="path316"
         clip-rule="evenodd"
         d="m 312,34 h 68 c 1.6569,0 3,-1.34315 3,-3 V 11 c 0,-1.656854 -1.3431,-3 -3,-3 h -68 c -1.6569,0 -3,1.343146 -3,3 v 20 c 0,1.65685 1.3431,3 3,3 z" /></clipPath><clipPath
       id="clipPath322"
       clipPathUnits="userSpaceOnUse"><path
         id="path320"
         d="m 309,8 h 74 v 26 h -74 z" /></clipPath><clipPath
       id="clipPath326"
       clipPathUnits="userSpaceOnUse"><path
         id="path324"
         d="m 309,8 h 74 v 26 h -74 z" /></clipPath><clipPath
       id="clipPath356"
       clipPathUnits="userSpaceOnUse"><path
         id="path354"
         clip-rule="evenodd"
         d="m 368.7796,16.96587 2.3454,2.34539 2.3454,-2.34539 c 0.2878,-0.28782 0.7547,-0.28782 1.0425,0 l 0.5212,0.52126 c 0.2878,0.28781 0.2878,0.75443 0,1.04248 l -2.3454,2.34539 2.3454,2.3454 c 0.2878,0.28779 0.2878,0.75443 0,1.04248 l -0.5212,0.52126 c -0.2878,0.28781 -0.7545,0.28781 -1.0425,0 l -2.3454,-2.3454 -2.3454,2.3454 c -0.2878,0.28781 -0.7544,0.28781 -1.0425,0 l -0.5212,-0.52126 c -0.2879,-0.28782 -0.2879,-0.75444 0,-1.04248 l 2.3454,-2.3454 -2.3454,-2.34539 c -0.2879,-0.28779 -0.2879,-0.75444 0,-1.04248 l 0.5212,-0.52126 c 0.2878,-0.28782 0.7547,-0.28782 1.0425,0 z" /></clipPath><clipPath
       id="clipPath362"
       clipPathUnits="userSpaceOnUse"><path
         id="path360"
         d="M 0,0 H 625 V 38 H 0 Z" /></clipPath><clipPath
       id="clipPath372"
       clipPathUnits="userSpaceOnUse"><path
         id="path370"
         d="M 0,0 H 625 V 38 H 0 Z" /></clipPath><clipPath
       id="clipPath386"
       clipPathUnits="userSpaceOnUse"><path
         id="path384"
         clip-rule="evenodd"
         d="m 234,34 h 68 c 1.6569,0 3,-1.34315 3,-3 V 11 c 0,-1.656854 -1.3431,-3 -3,-3 h -68 c -1.6569,0 -3,1.343146 -3,3 v 20 c 0,1.65685 1.3431,3 3,3 z" /></clipPath><clipPath
       id="clipPath392"
       clipPathUnits="userSpaceOnUse"><path
         id="path390"
         d="M 0,0 H 625 V 38 H 0 Z" /></clipPath><clipPath
       id="clipPath398"
       clipPathUnits="userSpaceOnUse"><path
         id="path396"
         d="m 231,8 h 74 v 26 h -74 z" /></clipPath><clipPath
       id="clipPath402"
       clipPathUnits="userSpaceOnUse"><path
         id="path400"
         clip-rule="evenodd"
         d="m 234,34 h 68 c 1.6569,0 3,-1.34315 3,-3 V 11 c 0,-1.656854 -1.3431,-3 -3,-3 h -68 c -1.6569,0 -3,1.343146 -3,3 v 20 c 0,1.65685 1.3431,3 3,3 z" /></clipPath><clipPath
       id="clipPath406"
       clipPathUnits="userSpaceOnUse"><path
         id="path404"
         d="m 231,8 h 74 v 26 h -74 z" /></clipPath><clipPath
       id="clipPath410"
       clipPathUnits="userSpaceOnUse"><path
         id="path408"
         d="m 231,8 h 74 v 26 h -74 z" /></clipPath><clipPath
       id="clipPath440"
       clipPathUnits="userSpaceOnUse"><path
         id="path438"
         clip-rule="evenodd"
         d="m 290.7796,16.96587 2.3454,2.34539 2.3454,-2.34539 c 0.2878,-0.28782 0.7547,-0.28782 1.0425,0 l 0.5212,0.52126 c 0.2878,0.28781 0.2878,0.75443 0,1.04248 l -2.3454,2.34539 2.3454,2.3454 c 0.2878,0.28779 0.2878,0.75443 0,1.04248 l -0.5212,0.52126 c -0.2878,0.28781 -0.7545,0.28781 -1.0425,0 l -2.3454,-2.3454 -2.3454,2.3454 c -0.2878,0.28781 -0.7544,0.28781 -1.0425,0 l -0.5212,-0.52126 c -0.2879,-0.28782 -0.2879,-0.75444 0,-1.04248 l 2.3454,-2.3454 -2.3454,-2.34539 c -0.2879,-0.28779 -0.2879,-0.75444 0,-1.04248 l 0.5212,-0.52126 c 0.2878,-0.28782 0.7547,-0.28782 1.0425,0 z" /></clipPath><clipPath
       id="clipPath446"
       clipPathUnits="userSpaceOnUse"><path
         id="path444"
         d="M 0,0 H 625 V 38 H 0 Z" /></clipPath><clipPath
       id="clipPath456"
       clipPathUnits="userSpaceOnUse"><path
         id="path454"
         d="M 0,0 H 625 V 38 H 0 Z" /></clipPath><clipPath
       id="clipPath470"
       clipPathUnits="userSpaceOnUse"><path
         id="path468"
         clip-rule="evenodd"
         d="m 156,34 h 68 c 1.6569,0 3,-1.34315 3,-3 V 11 c 0,-1.656854 -1.3431,-3 -3,-3 h -68 c -1.6569,0 -3,1.343146 -3,3 v 20 c 0,1.65685 1.3431,3 3,3 z" /></clipPath><clipPath
       id="clipPath476"
       clipPathUnits="userSpaceOnUse"><path
         id="path474"
         d="M 0,0 H 625 V 38 H 0 Z" /></clipPath><clipPath
       id="clipPath482"
       clipPathUnits="userSpaceOnUse"><path
         id="path480"
         d="m 153,8 h 74 v 26 h -74 z" /></clipPath><clipPath
       id="clipPath486"
       clipPathUnits="userSpaceOnUse"><path
         id="path484"
         clip-rule="evenodd"
         d="m 156,34 h 68 c 1.6569,0 3,-1.34315 3,-3 V 11 c 0,-1.656854 -1.3431,-3 -3,-3 h -68 c -1.6569,0 -3,1.343146 -3,3 v 20 c 0,1.65685 1.3431,3 3,3 z" /></clipPath><clipPath
       id="clipPath490"
       clipPathUnits="userSpaceOnUse"><path
         id="path488"
         d="m 153,8 h 74 v 26 h -74 z" /></clipPath><clipPath
       id="clipPath494"
       clipPathUnits="userSpaceOnUse"><path
         id="path492"
         d="m 153,8 h 74 v 26 h -74 z" /></clipPath><clipPath
       id="clipPath524"
       clipPathUnits="userSpaceOnUse"><path
         id="path522"
         clip-rule="evenodd"
         d="m 212.7796,16.96587 2.3454,2.34539 2.3454,-2.34539 c 0.2878,-0.28782 0.7547,-0.28782 1.0425,0 l 0.5212,0.52126 c 0.2878,0.28781 0.2878,0.75443 0,1.04248 l -2.3454,2.34539 2.3454,2.3454 c 0.2878,0.28779 0.2878,0.75443 0,1.04248 l -0.5212,0.52126 c -0.2878,0.28781 -0.7545,0.28781 -1.0425,0 l -2.3454,-2.3454 -2.3454,2.3454 c -0.2878,0.28781 -0.7544,0.28781 -1.0425,0 l -0.5212,-0.52126 c -0.2879,-0.28782 -0.2879,-0.75444 0,-1.04248 l 2.3454,-2.3454 -2.3454,-2.34539 c -0.2879,-0.28779 -0.2879,-0.75444 0,-1.04248 l 0.5212,-0.52126 c 0.2878,-0.28782 0.7547,-0.28782 1.0425,0 z" /></clipPath><clipPath
       id="clipPath530"
       clipPathUnits="userSpaceOnUse"><path
         id="path528"
         d="M 0,0 H 625 V 38 H 0 Z" /></clipPath><clipPath
       id="clipPath540"
       clipPathUnits="userSpaceOnUse"><path
         id="path538"
         d="M 0,0 H 625 V 38 H 0 Z" /></clipPath><clipPath
       id="clipPath554"
       clipPathUnits="userSpaceOnUse"><path
         id="path552"
         clip-rule="evenodd"
         d="m 78,34 h 68 c 1.6569,0 3,-1.34315 3,-3 V 11 c 0,-1.656854 -1.3431,-3 -3,-3 H 78 c -1.65685,0 -3,1.343146 -3,3 v 20 c 0,1.65685 1.34315,3 3,3 z" /></clipPath><clipPath
       id="clipPath560"
       clipPathUnits="userSpaceOnUse"><path
         id="path558"
         d="M 0,0 H 625 V 38 H 0 Z" /></clipPath><clipPath
       id="clipPath566"
       clipPathUnits="userSpaceOnUse"><path
         id="path564"
         d="m 75,8 h 74 V 34 H 75 Z" /></clipPath><clipPath
       id="clipPath570"
       clipPathUnits="userSpaceOnUse"><path
         id="path568"
         clip-rule="evenodd"
         d="m 78,34 h 68 c 1.6569,0 3,-1.34315 3,-3 V 11 c 0,-1.656854 -1.3431,-3 -3,-3 H 78 c -1.65685,0 -3,1.343146 -3,3 v 20 c 0,1.65685 1.34315,3 3,3 z" /></clipPath><clipPath
       id="clipPath574"
       clipPathUnits="userSpaceOnUse"><path
         id="path572"
         d="m 75,8 h 74 V 34 H 75 Z" /></clipPath><clipPath
       id="clipPath578"
       clipPathUnits="userSpaceOnUse"><path
         id="path576"
         d="m 75,8 h 74 V 34 H 75 Z" /></clipPath><clipPath
       id="clipPath608"
       clipPathUnits="userSpaceOnUse"><path
         id="path606"
         clip-rule="evenodd"
         d="m 134.7796,16.96587 2.3454,2.34539 2.3454,-2.34539 c 0.2878,-0.28782 0.7547,-0.28782 1.0425,0 l 0.5212,0.52126 c 0.2878,0.28781 0.2878,0.75443 0,1.04248 l -2.3454,2.34539 2.3454,2.3454 c 0.2878,0.28779 0.2878,0.75443 0,1.04248 l -0.5212,0.52126 c -0.2878,0.28781 -0.7545,0.28781 -1.0425,0 l -2.3454,-2.3454 -2.3454,2.3454 c -0.2878,0.28781 -0.7544,0.28781 -1.0425,0 l -0.5212,-0.52126 c -0.2879,-0.28782 -0.2879,-0.75444 0,-1.04248 l 2.3454,-2.3454 -2.3454,-2.34539 c -0.2879,-0.28779 -0.2879,-0.75444 0,-1.04248 l 0.5212,-0.52126 c 0.2878,-0.28782 0.7547,-0.28782 1.0425,0 z" /></clipPath><clipPath
       id="clipPath614"
       clipPathUnits="userSpaceOnUse"><path
         id="path612"
         d="M 0,0 H 625 V 38 H 0 Z" /></clipPath><clipPath
       id="clipPath624"
       clipPathUnits="userSpaceOnUse"><path
         id="path622"
         d="M 0,0 H 625 V 38 H 0 Z" /></clipPath></defs><sodipodi:namedview
     id="namedview4"
     inkscape:window-height="480"
     inkscape:window-width="640"
     inkscape:pageshadow="2"
     inkscape:pageopacity="0"
     guidetolerance="10"
     gridtolerance="10"
     objecttolerance="10"
     borderopacity="1"
     bordercolor="#666666"
     pagecolor="#ffffff" /><g
     transform="matrix(1.3333333,0,0,-1.3333333,0,50.666667)"
     inkscape:label="patternfly-template"
     inkscape:groupmode="layer"
     id="g10"><g
       id="g12" /><g
       id="g14"><g
         clip-path="url(#clipPath20)"
         id="g16"><g
           clip-path="url(#clipPath26)"
           id="g22"><path
             id="path28"
             style="fill:#f0f0f0;fill-opacity:1;fill-rule:nonzero;stroke:none"
             d="M -5,43 H 630 V -3 H -5 Z" /></g></g></g><g
       id="g30"><g
         clip-path="url(#clipPath36)"
         id="g32"><g
           transform="matrix(1,0,0,-1,8,30)"
           id="g38"><text
             id="text42"
             style="font-variant:normal;font-weight:normal;font-size:14px;font-family:'Red Hat Text';-inkscape-font-specification:RedHatText-Regular;writing-mode:lr-tb;fill:#151515;fill-opacity:1;fill-rule:nonzero;stroke:none"
             transform="translate(0,14)"><tspan
               id="tspan40"
               sodipodi:role="line"
               y="0"
               x="0 10.164 17.528 22.82 30.618 38.765999 46.900002 51.827999">Category</tspan></text></g></g></g><g
       id="g44"><g
         clip-path="url(#clipPath50)"
         id="g46"><g
           clip-path="url(#clipPath56)"
           id="g52"><g
             id="g58" /><g
             id="g96"><g
               id="g94"
               clip-path="url(#clipPath62)"><g
                 id="g76" /><g
                 id="g84"><g
                   id="g82"
                   clip-path="url(#clipPath66)"><g
                     id="g80"
                     clip-path="url(#clipPath70)"><path
                       id="path78"
                       style="fill:#ffffff;fill-opacity:1;fill-rule:nonzero;stroke:none"
                       d="m 546,34 h 68 c 1.6569,0 3,-1.34315 3,-3 V 11 c 0,-1.656854 -1.3431,-3 -3,-3 h -68 c -1.6569,0 -3,1.343146 -3,3 v 20 c 0,1.65685 1.3431,3 3,3 z" /></g></g></g><g
                 id="g92"><g
                   id="g90"
                   clip-path="url(#clipPath74)"><g
                     id="g88"
                     transform="matrix(1,0,0,-1,543,34)"><path
                       id="path86"
                       style="fill:none;stroke:#f0f0f0;stroke-width:2;stroke-linecap:butt;stroke-linejoin:miter;stroke-miterlimit:10;stroke-dasharray:none;stroke-opacity:1"
                       d="m 3,0 h 68 c 1.65685,0 3,1.343146 3,3 v 20 c 0,1.65685 -1.34315,3 -3,3 H 3 C 1.343146,26 0,24.65685 0,23 V 3 C 0,1.343146 1.343146,0 3,0 Z" /></g></g></g></g></g></g></g></g><g
       id="g98"><g
         clip-path="url(#clipPath104)"
         id="g100"><g
           clip-path="url(#clipPath110)"
           id="g106"><path
             id="path112"
             style="fill:#6a6e73;fill-opacity:1;fill-rule:nonzero;stroke:none"
             d="m 596,30 h 18.25 V 11.75001 H 596 Z" /></g></g></g><g
       id="g114"><g
         clip-path="url(#clipPath120)"
         id="g116"><g
           transform="matrix(1,0,0,-1,551,30)"
           id="g122"><text
             id="text126"
             style="font-variant:normal;font-weight:normal;font-size:12px;font-family:'Red Hat Text';-inkscape-font-specification:RedHatText-Regular;writing-mode:lr-tb;fill:#151515;fill-opacity:1;fill-rule:nonzero;stroke:none"
             transform="translate(0,13)"><tspan
               id="tspan124"
               sodipodi:role="line"
               y="0"
               x="0 8.7119999 15.336 18.011999">Chip</tspan></text></g></g></g><g
       id="g128"><g
         clip-path="url(#clipPath134)"
         id="g130"><g
           clip-path="url(#clipPath140)"
           id="g136"><g
             id="g142" /><g
             id="g180"><g
               id="g178"
               clip-path="url(#clipPath146)"><g
                 id="g160" /><g
                 id="g168"><g
                   id="g166"
                   clip-path="url(#clipPath150)"><g
                     id="g164"
                     clip-path="url(#clipPath154)"><path
                       id="path162"
                       style="fill:#ffffff;fill-opacity:1;fill-rule:nonzero;stroke:none"
                       d="m 468,34 h 68 c 1.6569,0 3,-1.34315 3,-3 V 11 c 0,-1.656854 -1.3431,-3 -3,-3 h -68 c -1.6569,0 -3,1.343146 -3,3 v 20 c 0,1.65685 1.3431,3 3,3 z" /></g></g></g><g
                 id="g176"><g
                   id="g174"
                   clip-path="url(#clipPath158)"><g
                     id="g172"
                     transform="matrix(1,0,0,-1,465,34)"><path
                       id="path170"
                       style="fill:none;stroke:#f0f0f0;stroke-width:2;stroke-linecap:butt;stroke-linejoin:miter;stroke-miterlimit:10;stroke-dasharray:none;stroke-opacity:1"
                       d="m 3,0 h 68 c 1.65685,0 3,1.343146 3,3 v 20 c 0,1.65685 -1.34315,3 -3,3 H 3 C 1.343146,26 0,24.65685 0,23 V 3 C 0,1.343146 1.343146,0 3,0 Z" /></g></g></g></g></g></g></g></g><g
       id="g182"><g
         clip-path="url(#clipPath188)"
         id="g184"><g
           clip-path="url(#clipPath194)"
           id="g190"><path
             id="path196"
             style="fill:#6a6e73;fill-opacity:1;fill-rule:nonzero;stroke:none"
             d="m 518,30 h 18.25 V 11.75001 H 518 Z" /></g></g></g><g
       id="g198"><g
         clip-path="url(#clipPath204)"
         id="g200"><g
           transform="matrix(1,0,0,-1,473,30)"
           id="g206"><text
             id="text210"
             style="font-variant:normal;font-weight:normal;font-size:12px;font-family:'Red Hat Text';-inkscape-font-specification:RedHatText-Regular;writing-mode:lr-tb;fill:#151515;fill-opacity:1;fill-rule:nonzero;stroke:none"
             transform="translate(0,13)"><tspan
               id="tspan208"
               sodipodi:role="line"
               y="0"
               x="0 8.7119999 15.336 18.011999">Chip</tspan></text></g></g></g><g
       id="g212"><g
         clip-path="url(#clipPath218)"
         id="g214"><g
           clip-path="url(#clipPath224)"
           id="g220"><g
             id="g226" /><g
             id="g264"><g
               id="g262"
               clip-path="url(#clipPath230)"><g
                 id="g244" /><g
                 id="g252"><g
                   id="g250"
                   clip-path="url(#clipPath234)"><g
                     id="g248"
                     clip-path="url(#clipPath238)"><path
                       id="path246"
                       style="fill:#ffffff;fill-opacity:1;fill-rule:nonzero;stroke:none"
                       d="m 390,34 h 68 c 1.6569,0 3,-1.34315 3,-3 V 11 c 0,-1.656854 -1.3431,-3 -3,-3 h -68 c -1.6569,0 -3,1.343146 -3,3 v 20 c 0,1.65685 1.3431,3 3,3 z" /></g></g></g><g
                 id="g260"><g
                   id="g258"
                   clip-path="url(#clipPath242)"><g
                     id="g256"
                     transform="matrix(1,0,0,-1,387,34)"><path
                       id="path254"
                       style="fill:none;stroke:#f0f0f0;stroke-width:2;stroke-linecap:butt;stroke-linejoin:miter;stroke-miterlimit:10;stroke-dasharray:none;stroke-opacity:1"
                       d="m 3,0 h 68 c 1.65685,0 3,1.343146 3,3 v 20 c 0,1.65685 -1.34315,3 -3,3 H 3 C 1.343146,26 0,24.65685 0,23 V 3 C 0,1.343146 1.343146,0 3,0 Z" /></g></g></g></g></g></g></g></g><g
       id="g266"><g
         clip-path="url(#clipPath272)"
         id="g268"><g
           clip-path="url(#clipPath278)"
           id="g274"><path
             id="path280"
             style="fill:#6a6e73;fill-opacity:1;fill-rule:nonzero;stroke:none"
             d="m 440,30 h 18.25 V 11.75001 H 440 Z" /></g></g></g><g
       id="g282"><g
         clip-path="url(#clipPath288)"
         id="g284"><g
           transform="matrix(1,0,0,-1,395,30)"
           id="g290"><text
             id="text294"
             style="font-variant:normal;font-weight:normal;font-size:12px;font-family:'Red Hat Text';-inkscape-font-specification:RedHatText-Regular;writing-mode:lr-tb;fill:#151515;fill-opacity:1;fill-rule:nonzero;stroke:none"
             transform="translate(0,13)"><tspan
               id="tspan292"
               sodipodi:role="line"
               y="0"
               x="0 8.7119999 15.336 18.011999">Chip</tspan></text></g></g></g><g
       id="g296"><g
         clip-path="url(#clipPath302)"
         id="g298"><g
           clip-path="url(#clipPath308)"
           id="g304"><g
             id="g310" /><g
             id="g348"><g
               id="g346"
               clip-path="url(#clipPath314)"><g
                 id="g328" /><g
                 id="g336"><g
                   id="g334"
                   clip-path="url(#clipPath318)"><g
                     id="g332"
                     clip-path="url(#clipPath322)"><path
                       id="path330"
                       style="fill:#ffffff;fill-opacity:1;fill-rule:nonzero;stroke:none"
                       d="m 312,34 h 68 c 1.6569,0 3,-1.34315 3,-3 V 11 c 0,-1.656854 -1.3431,-3 -3,-3 h -68 c -1.6569,0 -3,1.343146 -3,3 v 20 c 0,1.65685 1.3431,3 3,3 z" /></g></g></g><g
                 id="g344"><g
                   id="g342"
                   clip-path="url(#clipPath326)"><g
                     id="g340"
                     transform="matrix(1,0,0,-1,309,34)"><path
                       id="path338"
                       style="fill:none;stroke:#f0f0f0;stroke-width:2;stroke-linecap:butt;stroke-linejoin:miter;stroke-miterlimit:10;stroke-dasharray:none;stroke-opacity:1"
                       d="m 3,0 h 68 c 1.65685,0 3,1.343146 3,3 v 20 c 0,1.65685 -1.34315,3 -3,3 H 3 C 1.343146,26 0,24.65685 0,23 V 3 C 0,1.343146 1.343146,0 3,0 Z" /></g></g></g></g></g></g></g></g><g
       id="g350"><g
         clip-path="url(#clipPath356)"
         id="g352"><g
           clip-path="url(#clipPath362)"
           id="g358"><path
             id="path364"
             style="fill:#6a6e73;fill-opacity:1;fill-rule:nonzero;stroke:none"
             d="m 362,30 h 18.25 V 11.75001 H 362 Z" /></g></g></g><g
       id="g366"><g
         clip-path="url(#clipPath372)"
         id="g368"><g
           transform="matrix(1,0,0,-1,317,30)"
           id="g374"><text
             id="text378"
             style="font-variant:normal;font-weight:normal;font-size:12px;font-family:'Red Hat Text';-inkscape-font-specification:RedHatText-Regular;writing-mode:lr-tb;fill:#151515;fill-opacity:1;fill-rule:nonzero;stroke:none"
             transform="translate(0,13)"><tspan
               id="tspan376"
               sodipodi:role="line"
               y="0"
               x="0 8.7119999 15.336 18.011999">Chip</tspan></text></g></g></g><g
       id="g380"><g
         clip-path="url(#clipPath386)"
         id="g382"><g
           clip-path="url(#clipPath392)"
           id="g388"><g
             id="g394" /><g
             id="g432"><g
               id="g430"
               clip-path="url(#clipPath398)"><g
                 id="g412" /><g
                 id="g420"><g
                   id="g418"
                   clip-path="url(#clipPath402)"><g
                     id="g416"
                     clip-path="url(#clipPath406)"><path
                       id="path414"
                       style="fill:#ffffff;fill-opacity:1;fill-rule:nonzero;stroke:none"
                       d="m 234,34 h 68 c 1.6569,0 3,-1.34315 3,-3 V 11 c 0,-1.656854 -1.3431,-3 -3,-3 h -68 c -1.6569,0 -3,1.343146 -3,3 v 20 c 0,1.65685 1.3431,3 3,3 z" /></g></g></g><g
                 id="g428"><g
                   id="g426"
                   clip-path="url(#clipPath410)"><g
                     id="g424"
                     transform="matrix(1,0,0,-1,231,34)"><path
                       id="path422"
                       style="fill:none;stroke:#f0f0f0;stroke-width:2;stroke-linecap:butt;stroke-linejoin:miter;stroke-miterlimit:10;stroke-dasharray:none;stroke-opacity:1"
                       d="m 3,0 h 68 c 1.65685,0 3,1.343146 3,3 v 20 c 0,1.65685 -1.34315,3 -3,3 H 3 C 1.343146,26 0,24.65685 0,23 V 3 C 0,1.343146 1.343146,0 3,0 Z" /></g></g></g></g></g></g></g></g><g
       id="g434"><g
         clip-path="url(#clipPath440)"
         id="g436"><g
           clip-path="url(#clipPath446)"
           id="g442"><path
             id="path448"
             style="fill:#6a6e73;fill-opacity:1;fill-rule:nonzero;stroke:none"
             d="m 284,30 h 18.25 V 11.75001 H 284 Z" /></g></g></g><g
       id="g450"><g
         clip-path="url(#clipPath456)"
         id="g452"><g
           transform="matrix(1,0,0,-1,239,30)"
           id="g458"><text
             id="text462"
             style="font-variant:normal;font-weight:normal;font-size:12px;font-family:'Red Hat Text';-inkscape-font-specification:RedHatText-Regular;writing-mode:lr-tb;fill:#151515;fill-opacity:1;fill-rule:nonzero;stroke:none"
             transform="translate(0,13)"><tspan
               id="tspan460"
               sodipodi:role="line"
               y="0"
               x="0 8.7119999 15.336 18.011999">Chip</tspan></text></g></g></g><g
       id="g464"><g
         clip-path="url(#clipPath470)"
         id="g466"><g
           clip-path="url(#clipPath476)"
           id="g472"><g
             id="g478" /><g
             id="g516"><g
               id="g514"
               clip-path="url(#clipPath482)"><g
                 id="g496" /><g
                 id="g504"><g
                   id="g502"
                   clip-path="url(#clipPath486)"><g
                     id="g500"
                     clip-path="url(#clipPath490)"><path
                       id="path498"
                       style="fill:#ffffff;fill-opacity:1;fill-rule:nonzero;stroke:none"
                       d="m 156,34 h 68 c 1.6569,0 3,-1.34315 3,-3 V 11 c 0,-1.656854 -1.3431,-3 -3,-3 h -68 c -1.6569,0 -3,1.343146 -3,3 v 20 c 0,1.65685 1.3431,3 3,3 z" /></g></g></g><g
                 id="g512"><g
                   id="g510"
                   clip-path="url(#clipPath494)"><g
                     id="g508"
                     transform="matrix(1,0,0,-1,153,34)"><path
                       id="path506"
                       style="fill:none;stroke:#f0f0f0;stroke-width:2;stroke-linecap:butt;stroke-linejoin:miter;stroke-miterlimit:10;stroke-dasharray:none;stroke-opacity:1"
                       d="m 3,0 h 68 c 1.65685,0 3,1.343146 3,3 v 20 c 0,1.65685 -1.34315,3 -3,3 H 3 C 1.343146,26 0,24.65685 0,23 V 3 C 0,1.343146 1.343146,0 3,0 Z" /></g></g></g></g></g></g></g></g><g
       id="g518"><g
         clip-path="url(#clipPath524)"
         id="g520"><g
           clip-path="url(#clipPath530)"
           id="g526"><path
             id="path532"
             style="fill:#6a6e73;fill-opacity:1;fill-rule:nonzero;stroke:none"
             d="m 206,30 h 18.25 V 11.75001 H 206 Z" /></g></g></g><g
       id="g534"><g
         clip-path="url(#clipPath540)"
         id="g536"><g
           transform="matrix(1,0,0,-1,161,30)"
           id="g542"><text
             id="text546"
             style="font-variant:normal;font-weight:normal;font-size:12px;font-family:'Red Hat Text';-inkscape-font-specification:RedHatText-Regular;writing-mode:lr-tb;fill:#151515;fill-opacity:1;fill-rule:nonzero;stroke:none"
             transform="translate(0,13)"><tspan
               id="tspan544"
               sodipodi:role="line"
               y="0"
               x="0 8.7119999 15.336 18.011999">Chip</tspan></text></g></g></g><g
       id="g548"><g
         clip-path="url(#clipPath554)"
         id="g550"><g
           clip-path="url(#clipPath560)"
           id="g556"><g
             id="g562" /><g
             id="g600"><g
               id="g598"
               clip-path="url(#clipPath566)"><g
                 id="g580" /><g
                 id="g588"><g
                   id="g586"
                   clip-path="url(#clipPath570)"><g
                     id="g584"
                     clip-path="url(#clipPath574)"><path
                       id="path582"
                       style="fill:#ffffff;fill-opacity:1;fill-rule:nonzero;stroke:none"
                       d="m 78,34 h 68 c 1.6569,0 3,-1.34315 3,-3 V 11 c 0,-1.656854 -1.3431,-3 -3,-3 H 78 c -1.65685,0 -3,1.343146 -3,3 v 20 c 0,1.65685 1.34315,3 3,3 z" /></g></g></g><g
                 id="g596"><g
                   id="g594"
                   clip-path="url(#clipPath578)"><g
                     id="g592"
                     transform="matrix(1,0,0,-1,75,34)"><path
                       id="path590"
                       style="fill:none;stroke:#f0f0f0;stroke-width:2;stroke-linecap:butt;stroke-linejoin:miter;stroke-miterlimit:10;stroke-dasharray:none;stroke-opacity:1"
                       d="m 3,0 h 68 c 1.65685,0 3,1.343146 3,3 v 20 c 0,1.65685 -1.34315,3 -3,3 H 3 C 1.343146,26 0,24.65685 0,23 V 3 C 0,1.343146 1.343146,0 3,0 Z" /></g></g></g></g></g></g></g></g><g
       id="g602"><g
         clip-path="url(#clipPath608)"
         id="g604"><g
           clip-path="url(#clipPath614)"
           id="g610"><path
             id="path616"
             style="fill:#6a6e73;fill-opacity:1;fill-rule:nonzero;stroke:none"
             d="m 128,30 h 18.25 V 11.75001 H 128 Z" /></g></g></g><g
       id="g618"><g
         clip-path="url(#clipPath624)"
         id="g620"><g
           transform="matrix(1,0,0,-1,83,30)"
           id="g626"><text
             id="text630"
             style="font-variant:normal;font-weight:normal;font-size:12px;font-family:'Red Hat Text';-inkscape-font-specification:RedHatText-Regular;writing-mode:lr-tb;fill:#151515;fill-opacity:1;fill-rule:nonzero;stroke:none"
             transform="translate(0,13)"><tspan
               id="tspan628"
               sodipodi:role="line"
               y="0"
               x="0 8.7119999 15.336 18.011999">Chip</tspan></text></g></g></g></g></svg>
