<?xml version="1.0" encoding="UTF-8" standalone="no"?>
<svg
   xmlns:dc="http://purl.org/dc/elements/1.1/"
   xmlns:cc="http://creativecommons.org/ns#"
   xmlns:rdf="http://www.w3.org/1999/02/22-rdf-syntax-ns#"
   xmlns:svg="http://www.w3.org/2000/svg"
   xmlns="http://www.w3.org/2000/svg"
   xmlns:sodipodi="http://sodipodi.sourceforge.net/DTD/sodipodi-0.dtd"
   xmlns:inkscape="http://www.inkscape.org/namespaces/inkscape"
   sodipodi:docname="patternfly-template.pdf"
   viewBox="0 0 1232 2230.6667"
   height="2230.6667"
   width="1232"
   xml:space="preserve"
   id="svg2"
   version="1.1"><metadata
     id="metadata8"><rdf:RDF><cc:Work
         rdf:about=""><dc:format>image/svg+xml</dc:format><dc:type
           rdf:resource="http://purl.org/dc/dcmitype/StillImage" /></cc:Work></rdf:RDF></metadata><defs
     id="defs6"><clipPath
       id="clipPath20"
       clipPathUnits="userSpaceOnUse"><path
         id="path18"
         d="M 0,0 H 924 V 1673 H 0 Z" /></clipPath><clipPath
       id="clipPath58"
       clipPathUnits="userSpaceOnUse"><path
         id="path56"
         clip-rule="evenodd"
         d="m 402,776 h 122.7598 c 1.6568,0 3,-1.3431 3,-3 v -30 c 0,-1.6569 -1.3432,-3 -3,-3 H 402 c -1.6569,0 -3,1.3431 -3,3 v 30 c 0,1.6569 1.3431,3 3,3 z" /></clipPath><clipPath
       id="clipPath64"
       clipPathUnits="userSpaceOnUse"><path
         id="path62"
         d="M 0,0 H 924 V 1673 H 0 Z" /></clipPath><clipPath
       id="clipPath74"
       clipPathUnits="userSpaceOnUse"><path
         id="path72"
         d="M 0,0 H 924 V 1673 H 0 Z" /></clipPath><clipPath
       id="clipPath88"
       clipPathUnits="userSpaceOnUse"><path
         id="path86"
         clip-rule="evenodd"
         d="m 475.5126,935.4816 c 1.2892,-0.6421 2.5785,-0.6421 3.8678,0 v 0 l 12.0868,6.0201 c 0.7252,0.321 1.3094,0.8428 1.7526,1.5652 0.4432,0.7224 0.6647,1.4849 0.6647,2.2876 v 0 13.2442 c 0,0.8829 -0.2618,1.7056 -0.7856,2.4682 -0.5238,0.7625 -1.1885,1.3043 -1.9943,1.6254 v 0 l -11.7242,4.3345 v 13.1237 c 0,0.8829 -0.2619,1.6856 -0.7857,2.408 -0.5238,0.7224 -1.1885,1.2442 -1.9943,1.5652 v 0 l -12.0868,4.5753 c -1.0476,0.4013 -2.0951,0.4013 -3.1426,0 v 0 l -12.0868,-4.5753 c -0.8058,-0.321 -1.4706,-0.8428 -1.9944,-1.5652 -0.5237,-0.7224 -0.7856,-1.5251 -0.7856,-2.408 v 0 -13.1237 L 434.78,962.6923 c -0.8058,-0.3211 -1.4706,-0.8629 -1.9944,-1.6254 C 432.2619,960.3043 432,959.4816 432,958.5987 v 0 -13.2442 c 0,-0.8027 0.2216,-1.5652 0.6648,-2.2876 0.4432,-0.7224 1.0274,-1.2442 1.7526,-1.5652 v 0 l 12.0868,-6.0201 c 1.2893,-0.6421 2.5785,-0.6421 3.8678,0 v 0 l 12.5703,6.2609 z m -12.5703,39.7324 -12.3286,4.9365 v 0.1204 l 12.3286,4.5753 12.3285,-4.5753 v -0.1204 z m 2.0547,-12.1605 v 8.3077 l 10.2738,4.4549 v -8.9097 z m -16.5589,-9.3913 -12.3286,5.0569 12.3286,4.6956 12.3285,-4.6956 z m 29.0084,0 -12.3286,5.0569 12.3286,4.6956 12.3285,-4.6956 z m -26.9537,-13.6053 v 9.5117 l 10.2738,4.6956 v -9.0301 z m 29.0084,0 v 9.5117 l 10.2738,4.6956 v -9.0301 z" /></clipPath><clipPath
       id="clipPath94"
       clipPathUnits="userSpaceOnUse"><path
         id="path92"
         d="M 0,0 H 924 V 1673 H 0 Z" /></clipPath><clipPath
       id="clipPath104"
       clipPathUnits="userSpaceOnUse"><path
         id="path102"
         clip-rule="evenodd"
         d="M 194,935 H 730.0019 V 903 H 194 Z" /></clipPath><clipPath
       id="clipPath110"
       clipPathUnits="userSpaceOnUse"><path
         id="path108"
         d="M 0,0 H 924 V 1673 H 0 Z" /></clipPath><clipPath
       id="clipPath120"
       clipPathUnits="userSpaceOnUse"><path
         id="path118"
         clip-rule="evenodd"
         d="M 194,935 H 730.0019 V 903 H 194 Z" /></clipPath><clipPath
       id="clipPath126"
       clipPathUnits="userSpaceOnUse"><path
         id="path124"
         d="M 0,0 H 924 V 1673 H 0 Z" /></clipPath><clipPath
       id="clipPath138"
       clipPathUnits="userSpaceOnUse"><path
         id="path136"
         clip-rule="evenodd"
         d="M 194,808 H 730.0019 V 776 H 194 Z" /></clipPath><clipPath
       id="clipPath144"
       clipPathUnits="userSpaceOnUse"><path
         id="path142"
         d="M 0,0 H 924 V 1673 H 0 Z" /></clipPath><clipPath
       id="clipPath154"
       clipPathUnits="userSpaceOnUse"><path
         id="path152"
         clip-rule="evenodd"
         d="M 194,808 H 730.0019 V 776 H 194 Z" /></clipPath><clipPath
       id="clipPath160"
       clipPathUnits="userSpaceOnUse"><path
         id="path158"
         d="M 0,0 H 924 V 1673 H 0 Z" /></clipPath><clipPath
       id="clipPath172"
       clipPathUnits="userSpaceOnUse"><path
         id="path170"
         clip-rule="evenodd"
         d="M 194,872 H 730.0019 V 856 H 194 Z" /></clipPath><clipPath
       id="clipPath178"
       clipPathUnits="userSpaceOnUse"><path
         id="path176"
         d="M 0,0 H 924 V 1673 H 0 Z" /></clipPath><clipPath
       id="clipPath188"
       clipPathUnits="userSpaceOnUse"><path
         id="path186"
         clip-rule="evenodd"
         d="M 194,872 H 730.0019 V 856 H 194 Z" /></clipPath><clipPath
       id="clipPath194"
       clipPathUnits="userSpaceOnUse"><path
         id="path192"
         d="M 0,0 H 924 V 1673 H 0 Z" /></clipPath><clipPath
       id="clipPath206"
       clipPathUnits="userSpaceOnUse"><path
         id="path204"
         clip-rule="evenodd"
         d="m 194,740 h 536.0019 v -8 H 194 Z" /></clipPath><clipPath
       id="clipPath212"
       clipPathUnits="userSpaceOnUse"><path
         id="path210"
         d="M 0,0 H 924 V 1673 H 0 Z" /></clipPath><clipPath
       id="clipPath222"
       clipPathUnits="userSpaceOnUse"><path
         id="path220"
         clip-rule="evenodd"
         d="m 194,740 h 536.0019 v -8 H 194 Z" /></clipPath><clipPath
       id="clipPath228"
       clipPathUnits="userSpaceOnUse"><path
         id="path226"
         d="M 0,0 H 924 V 1673 H 0 Z" /></clipPath><clipPath
       id="clipPath240"
       clipPathUnits="userSpaceOnUse"><path
         id="path238"
         clip-rule="evenodd"
         d="M 194,1053 H 730.0019 V 989 H 194 Z" /></clipPath><clipPath
       id="clipPath246"
       clipPathUnits="userSpaceOnUse"><path
         id="path244"
         d="M 0,0 H 924 V 1673 H 0 Z" /></clipPath><clipPath
       id="clipPath256"
       clipPathUnits="userSpaceOnUse"><path
         id="path254"
         clip-rule="evenodd"
         d="M 194,1053 H 730.0019 V 989 H 194 Z" /></clipPath><clipPath
       id="clipPath262"
       clipPathUnits="userSpaceOnUse"><path
         id="path260"
         d="M 0,0 H 924 V 1673 H 0 Z" /></clipPath><clipPath
       id="clipPath274"
       clipPathUnits="userSpaceOnUse"><path
         id="path272"
         d="M 0,0 H 924 V 1673 H 0 Z" /></clipPath><clipPath
       id="clipPath306"
       clipPathUnits="userSpaceOnUse"><path
         id="path304"
         clip-rule="evenodd"
         d="m 388,1309 h 123 c 1.6569,0 3,-1.343 3,-3 v -30 c 0,-1.657 -1.3431,-3 -3,-3 H 388 c -1.6569,0 -3,1.343 -3,3 v 30 c 0,1.657 1.3431,3 3,3 z" /></clipPath><clipPath
       id="clipPath312"
       clipPathUnits="userSpaceOnUse"><path
         id="path310"
         d="M 0,0 H 924 V 1673 H 0 Z" /></clipPath><clipPath
       id="clipPath322"
       clipPathUnits="userSpaceOnUse"><path
         id="path320"
         d="M 0,0 H 924 V 1673 H 0 Z" /></clipPath><clipPath
       id="clipPath336"
       clipPathUnits="userSpaceOnUse"><path
         id="path334"
         clip-rule="evenodd"
         d="m 462.5938,1468.482 c 1.2916,-0.643 2.5833,-0.643 3.875,0 v 0 l 12.1093,6.02 c 0.7266,0.321 1.3119,0.842 1.7559,1.565 0.444,0.722 0.666,1.485 0.666,2.288 v 0 13.244 c 0,0.883 -0.2624,1.705 -0.7871,2.468 -0.5247,0.762 -1.1908,1.304 -1.9981,1.625 v 0 l -11.746,4.335 v 13.124 c 0,0.882 -0.2624,1.685 -0.7872,2.408 -0.5247,0.722 -1.1907,1.244 -1.998,1.565 v 0 l -12.1094,4.575 c -1.0495,0.401 -2.0989,0.401 -3.1484,0 v 0 l -12.1094,-4.575 c -0.8073,-0.321 -1.4733,-0.843 -1.998,-1.565 -0.5248,-0.723 -0.7872,-1.526 -0.7872,-2.408 v 0 -13.124 l -11.746,-4.335 c -0.8073,-0.321 -1.4734,-0.863 -1.9981,-1.625 -0.5247,-0.763 -0.7871,-1.585 -0.7871,-2.468 v 0 -13.244 c 0,-0.803 0.222,-1.566 0.666,-2.288 0.444,-0.723 1.0293,-1.244 1.7559,-1.565 v 0 l 12.1093,-6.02 c 1.2917,-0.643 2.5834,-0.643 3.875,0 v 0 L 450,1474.742 Z M 450,1508.214 l -12.3516,4.937 v 0.12 l 12.3516,4.575 12.3516,-4.575 v -0.12 z m 2.0586,-12.16 v 8.307 l 10.293,4.455 v -8.91 z m -16.5898,-9.392 -12.3516,5.057 12.3516,4.696 12.3515,-4.696 z m 29.0624,0 -12.3515,5.057 12.3515,4.696 12.3516,-4.696 z m -27.0039,-13.605 v 9.512 l 10.293,4.695 v -9.03 z m 29.0625,0 v 9.512 l 10.293,4.695 v -9.03 z" /></clipPath><clipPath
       id="clipPath342"
       clipPathUnits="userSpaceOnUse"><path
         id="path340"
         d="M 0,0 H 924 V 1673 H 0 Z" /></clipPath><clipPath
       id="clipPath352"
       clipPathUnits="userSpaceOnUse"><path
         id="path350"
         d="M 0,0 H 924 V 1673 H 0 Z" /></clipPath><clipPath
       id="clipPath366"
       clipPathUnits="userSpaceOnUse"><path
         id="path364"
         clip-rule="evenodd"
         d="m 281,1468 h 336 v -32 H 281 Z" /></clipPath><clipPath
       id="clipPath372"
       clipPathUnits="userSpaceOnUse"><path
         id="path370"
         d="M 0,0 H 924 V 1673 H 0 Z" /></clipPath><clipPath
       id="clipPath382"
       clipPathUnits="userSpaceOnUse"><path
         id="path380"
         clip-rule="evenodd"
         d="m 281,1468 h 336 v -32 H 281 Z" /></clipPath><clipPath
       id="clipPath388"
       clipPathUnits="userSpaceOnUse"><path
         id="path386"
         d="M 0,0 H 924 V 1673 H 0 Z" /></clipPath><clipPath
       id="clipPath400"
       clipPathUnits="userSpaceOnUse"><path
         id="path398"
         clip-rule="evenodd"
         d="m 281,1546 h 336 v -24 H 281 Z" /></clipPath><clipPath
       id="clipPath406"
       clipPathUnits="userSpaceOnUse"><path
         id="path404"
         d="M 0,0 H 924 V 1673 H 0 Z" /></clipPath><clipPath
       id="clipPath416"
       clipPathUnits="userSpaceOnUse"><path
         id="path414"
         clip-rule="evenodd"
         d="m 281,1546 h 336 v -24 H 281 Z" /></clipPath><clipPath
       id="clipPath422"
       clipPathUnits="userSpaceOnUse"><path
         id="path420"
         d="M 0,0 H 924 V 1673 H 0 Z" /></clipPath><clipPath
       id="clipPath434"
       clipPathUnits="userSpaceOnUse"><path
         id="path432"
         clip-rule="evenodd"
         d="m 281,1273 h 336 v -8 H 281 Z" /></clipPath><clipPath
       id="clipPath440"
       clipPathUnits="userSpaceOnUse"><path
         id="path438"
         d="M 0,0 H 924 V 1673 H 0 Z" /></clipPath><clipPath
       id="clipPath450"
       clipPathUnits="userSpaceOnUse"><path
         id="path448"
         clip-rule="evenodd"
         d="m 281,1273 h 336 v -8 H 281 Z" /></clipPath><clipPath
       id="clipPath456"
       clipPathUnits="userSpaceOnUse"><path
         id="path454"
         d="M 0,0 H 924 V 1673 H 0 Z" /></clipPath><clipPath
       id="clipPath468"
       clipPathUnits="userSpaceOnUse"><path
         id="path466"
         clip-rule="evenodd"
         d="m 281,1341 h 336 v -32 H 281 Z" /></clipPath><clipPath
       id="clipPath474"
       clipPathUnits="userSpaceOnUse"><path
         id="path472"
         d="M 0,0 H 924 V 1673 H 0 Z" /></clipPath><clipPath
       id="clipPath484"
       clipPathUnits="userSpaceOnUse"><path
         id="path482"
         clip-rule="evenodd"
         d="m 281,1341 h 336 v -32 H 281 Z" /></clipPath><clipPath
       id="clipPath490"
       clipPathUnits="userSpaceOnUse"><path
         id="path488"
         d="M 0,0 H 924 V 1673 H 0 Z" /></clipPath><clipPath
       id="clipPath502"
       clipPathUnits="userSpaceOnUse"><path
         id="path500"
         clip-rule="evenodd"
         d="m 281,1405 h 336 v -16 H 281 Z" /></clipPath><clipPath
       id="clipPath508"
       clipPathUnits="userSpaceOnUse"><path
         id="path506"
         d="M 0,0 H 924 V 1673 H 0 Z" /></clipPath><clipPath
       id="clipPath518"
       clipPathUnits="userSpaceOnUse"><path
         id="path516"
         clip-rule="evenodd"
         d="m 281,1405 h 336 v -16 H 281 Z" /></clipPath><clipPath
       id="clipPath524"
       clipPathUnits="userSpaceOnUse"><path
         id="path522"
         d="M 0,0 H 924 V 1673 H 0 Z" /></clipPath><clipPath
       id="clipPath536"
       clipPathUnits="userSpaceOnUse"><path
         id="path534"
         d="M 0,0 H 924 V 1673 H 0 Z" /></clipPath><clipPath
       id="clipPath550"
       clipPathUnits="userSpaceOnUse"><path
         id="path548"
         clip-rule="evenodd"
         d="M 150,497 H 774 V 433 H 150 Z" /></clipPath><clipPath
       id="clipPath556"
       clipPathUnits="userSpaceOnUse"><path
         id="path554"
         d="M 0,0 H 924 V 1673 H 0 Z" /></clipPath><clipPath
       id="clipPath566"
       clipPathUnits="userSpaceOnUse"><path
         id="path564"
         clip-rule="evenodd"
         d="M 150,497 H 774 V 433 H 150 Z" /></clipPath><clipPath
       id="clipPath572"
       clipPathUnits="userSpaceOnUse"><path
         id="path570"
         d="M 0,0 H 924 V 1673 H 0 Z" /></clipPath><clipPath
       id="clipPath584"
       clipPathUnits="userSpaceOnUse"><path
         id="path582"
         clip-rule="evenodd"
         d="M 150,266 H 774 V 242 H 150 Z" /></clipPath><clipPath
       id="clipPath590"
       clipPathUnits="userSpaceOnUse"><path
         id="path588"
         d="M 0,0 H 924 V 1673 H 0 Z" /></clipPath><clipPath
       id="clipPath600"
       clipPathUnits="userSpaceOnUse"><path
         id="path598"
         clip-rule="evenodd"
         d="M 150,266 H 774 V 242 H 150 Z" /></clipPath><clipPath
       id="clipPath606"
       clipPathUnits="userSpaceOnUse"><path
         id="path604"
         d="M 0,0 H 924 V 1673 H 0 Z" /></clipPath><clipPath
       id="clipPath618"
       clipPathUnits="userSpaceOnUse"><path
         id="path616"
         clip-rule="evenodd"
         d="M 150,183 H 774 V 151 H 150 Z" /></clipPath><clipPath
       id="clipPath624"
       clipPathUnits="userSpaceOnUse"><path
         id="path622"
         d="M 0,0 H 924 V 1673 H 0 Z" /></clipPath><clipPath
       id="clipPath634"
       clipPathUnits="userSpaceOnUse"><path
         id="path632"
         clip-rule="evenodd"
         d="M 150,183 H 774 V 151 H 150 Z" /></clipPath><clipPath
       id="clipPath640"
       clipPathUnits="userSpaceOnUse"><path
         id="path638"
         d="M 0,0 H 924 V 1673 H 0 Z" /></clipPath><clipPath
       id="clipPath652"
       clipPathUnits="userSpaceOnUse"><path
         id="path650"
         clip-rule="evenodd"
         d="M 150,345 H 774 V 313 H 150 Z" /></clipPath><clipPath
       id="clipPath658"
       clipPathUnits="userSpaceOnUse"><path
         id="path656"
         d="M 0,0 H 924 V 1673 H 0 Z" /></clipPath><clipPath
       id="clipPath668"
       clipPathUnits="userSpaceOnUse"><path
         id="path666"
         clip-rule="evenodd"
         d="M 150,345 H 774 V 313 H 150 Z" /></clipPath><clipPath
       id="clipPath674"
       clipPathUnits="userSpaceOnUse"><path
         id="path672"
         d="M 0,0 H 924 V 1673 H 0 Z" /></clipPath><clipPath
       id="clipPath686"
       clipPathUnits="userSpaceOnUse"><path
         id="path684"
         clip-rule="evenodd"
         d="M 150,116 H 774 V 100 H 150 Z" /></clipPath><clipPath
       id="clipPath692"
       clipPathUnits="userSpaceOnUse"><path
         id="path690"
         d="M 0,0 H 924 V 1673 H 0 Z" /></clipPath><clipPath
       id="clipPath702"
       clipPathUnits="userSpaceOnUse"><path
         id="path700"
         clip-rule="evenodd"
         d="M 150,116 H 774 V 100 H 150 Z" /></clipPath><clipPath
       id="clipPath708"
       clipPathUnits="userSpaceOnUse"><path
         id="path706"
         d="M 0,0 H 924 V 1673 H 0 Z" /></clipPath><clipPath
       id="clipPath720"
       clipPathUnits="userSpaceOnUse"><path
         id="path718"
         clip-rule="evenodd"
         d="m 407,151.2 h 110 c 1.6569,0 3,-1.3431 3,-3 v -30 c 0,-1.6569 -1.3431,-3 -3,-3 H 407 c -1.6569,0 -3,1.3431 -3,3 v 30 c 0,1.6569 1.3431,3 3,3 z" /></clipPath><clipPath
       id="clipPath726"
       clipPathUnits="userSpaceOnUse"><path
         id="path724"
         d="M 0,0 H 924 V 1673 H 0 Z" /></clipPath><clipPath
       id="clipPath736"
       clipPathUnits="userSpaceOnUse"><path
         id="path734"
         d="M 0,0 H 924 V 1673 H 0 Z" /></clipPath><clipPath
       id="clipPath768"
       clipPathUnits="userSpaceOnUse"><path
         id="path766"
         clip-rule="evenodd"
         d="m 418.75,346 c 5.4688,0 10.4818,1.1652 15.0391,3.4955 2.7343,1.4241 6.4453,4.0782 11.1328,7.9621 4.6875,3.8839 8.5937,6.7321 11.7187,8.5446 5.0782,2.9777 10.6771,5.1139 16.7969,6.4085 v 0 h -40.2344 c 1.1719,0.7768 2.2136,1.8125 3.125,3.1072 v 0 h 55.8594 c 4.2969,0 8.4961,0.4207 12.5977,1.2622 4.1015,0.8416 7.7799,1.9744 11.0351,3.3985 2.8646,1.4241 5.1107,2.9453 6.7383,4.5636 1.6276,1.6183 2.4414,3.2042 2.4414,4.7578 0,1.5536 -0.8138,3.1395 -2.4414,4.7578 -1.6276,1.6183 -3.8737,3.1395 -6.7383,4.5636 -3.2552,1.4241 -6.9336,2.5569 -11.0351,3.3985 -4.1016,0.8415 -8.3008,1.2622 -12.5977,1.2622 v 0 h -55.8594 c -0.9114,1.2947 -1.9531,2.3304 -3.125,3.1072 v 0 h 40.2344 c -6.1198,1.2946 -11.7187,3.4308 -16.7969,6.4085 -3.125,1.8125 -7.0312,4.6607 -11.7187,8.5446 -4.6875,3.8839 -8.3985,6.538 -11.1328,7.9621 C 429.2318,431.8348 424.2188,433 418.75,433 v 0 -24.8571 h -3.125 V 433 c -2.6042,0 -4.8177,-1.1975 -6.6406,-3.5926 -1.8229,-2.3951 -2.7344,-5.3404 -2.7344,-8.836 v 0 -12.4285 c -4.1667,0 -6.25,-1.5536 -6.25,-4.6608 v 0 -7.7678 c 0,-3.1072 2.0833,-4.6607 6.25,-4.6607 v 0 -3.1072 c -4.1667,0 -6.25,-1.5535 -6.25,-4.6607 v 0 -7.7678 c 0,-3.1072 2.0833,-4.6608 6.25,-4.6608 v 0 -12.4285 c 0,-3.4956 0.9115,-6.4409 2.7344,-8.836 1.8229,-2.3951 4.0364,-3.5926 6.6406,-3.5926 v 0 24.8571 h 3.125 z m 76.5625,35.7321 c -0.3906,0 -0.7487,0.1619 -1.0742,0.4855 -0.3255,0.3237 -0.4883,0.6797 -0.4883,1.0681 v 0 12.4286 c 0,0.3884 0.1628,0.7444 0.4883,1.0681 0.3255,0.3236 0.6836,0.4855 1.0742,0.4855 1.9531,0 3.3203,-1.2947 4.1016,-3.884 0.7812,-2.5893 0.7812,-5.1785 0,-7.7678 -0.7813,-2.5893 -2.1485,-3.884 -4.1016,-3.884 z" /></clipPath><clipPath
       id="clipPath774"
       clipPathUnits="userSpaceOnUse"><path
         id="path772"
         d="M 0,0 H 924 V 1673 H 0 Z" /></clipPath></defs><sodipodi:namedview
     id="namedview4"
     inkscape:window-height="480"
     inkscape:window-width="640"
     inkscape:pageshadow="2"
     inkscape:pageopacity="0"
     guidetolerance="10"
     gridtolerance="10"
     objecttolerance="10"
     borderopacity="1"
     bordercolor="#666666"
     pagecolor="#ffffff" /><g
     transform="matrix(1.3333333,0,0,-1.3333333,0,2230.6667)"
     inkscape:label="patternfly-template"
     inkscape:groupmode="layer"
     id="g10"><g
       id="g12" /><g
       id="g14"><g
         clip-path="url(#clipPath20)"
         id="g16"><g
           transform="matrix(1,0,0,-1,42,1644)"
           id="g22"><text
             id="text26"
             style="font-variant:normal;font-weight:500;font-size:41px;font-family:'Red Hat Display';-inkscape-font-specification:RedHatDisplay-Medium;writing-mode:lr-tb;fill:#ff00ff;fill-opacity:1;fill-rule:nonzero;stroke:none"
             transform="translate(0,37.8)"><tspan
               id="tspan24"
               sodipodi:role="line"
               y="0"
               x="0 25.132999 61.131001 82.943001 91.880997 100.819 109.388 125.747 141.696 165.189 186.386 202.33501 210.90401 240.875 256.086 277.89801 302.785 321.85001 330.41901 352.23099 368.17999 376.74899 401.185 425.621 451.12299 476.01001 497.207">Small (text wraps at 336px)</tspan></text></g><g
           transform="matrix(1,0,0,-1,42,1153)"
           id="g28"><text
             id="text32"
             style="font-variant:normal;font-weight:500;font-size:41px;font-family:'Red Hat Display';-inkscape-font-specification:RedHatDisplay-Medium;writing-mode:lr-tb;fill:#ff00ff;fill-opacity:1;fill-rule:nonzero;stroke:none"
             transform="translate(0,37.8)"><tspan
               id="tspan30"
               sodipodi:role="line"
               y="0"
               x="0 25.174 46.986 62.196999 86.919998 110.413 118.982 135.341 151.28999 174.783 195.98 211.929 220.498 250.46899 265.67999 287.492 312.379 331.444 340.013 361.82501 377.77399 386.34299 410.20499 434.64099 460.14301 485.03 506.22699">Large (text wraps at 536px)</tspan></text></g><g
           transform="matrix(1,0,0,-1,195,903)"
           id="g34"><text
             id="text38"
             style="font-variant:normal;font-weight:500;font-size:24px;font-family:'Red Hat Display';-inkscape-font-specification:RedHatDisplay-Medium;writing-mode:lr-tb;fill:#151515;fill-opacity:1;fill-rule:nonzero;stroke:none"
             transform="translate(127.3769,24.2)"><tspan
               id="tspan36"
               sodipodi:role="line"
               y="0"
               x="0 15.144 28.752001 33.984001 45.144001 50.16 55.391998 66.552002 71.568001 84.335999 89.351997 94.584 107.352 115.512 129.98399 143.73599 148.752 162.504 183.576 197.39999 206.976 219.864 224.88 235.8 245.136 257.42401 266.496">This is a large empty state</tspan></text></g><g
           transform="matrix(1,0,0,-1,195,856)"
           id="g40"><text
             id="text44"
             style="font-variant:normal;font-weight:normal;font-size:16px;font-family:'Red Hat Text';-inkscape-font-specification:RedHatText-Regular;writing-mode:lr-tb;fill:#6a6e73;fill-opacity:1;fill-rule:nonzero;stroke:none"
             transform="translate(11.49693,17)"><tspan
               id="tspan42"
               sodipodi:role="line"
               y="0"
               x="0 12.96 21.792 25.360001 33.327999 37.056 45.888 53.119999 62.032001 65.760002 71.807999 80.639999 84.208 91.440002 95.167999 98.736 107.568 114.8 118.368 127.68 136.592 140.32001 148.73599 152.464 158.384 167.216 170.784 174.35201 178.08 187.408 195.82401 205.136 214.048 217.56799 221.29601 231.632 240.92799 249.75999 253.48801 260.72 269.552 278.84799 287.67999 291.24799 300.56 304.28799 313.12 322.41599 328.46399 332.19199 341.02399 348.25601 357.168 360.896 366.944 375.776 379.34399 386.57599 390.30399 401.47198 410.30399 419.216 428.048 431.776 439.74399 449.04001 457.87201 463.504 467.23199 476.14401 489.664 498.992 505.04001 513.008">Only use this inside a full page. You should not use this when your empty </tspan></text></g><g
           transform="matrix(1,0,0,-1,195,856)"
           id="g46"><text
             id="text50"
             style="font-variant:normal;font-weight:normal;font-size:16px;font-family:'Red Hat Text';-inkscape-font-specification:RedHatText-Regular;writing-mode:lr-tb;fill:#6a6e73;fill-opacity:1;fill-rule:nonzero;stroke:none"
             transform="translate(26.76093,41)"><tspan
               id="tspan48"
               sodipodi:role="line"
               y="0"
               x="0 7.2319999 13.28 21.695999 27.743999 36.655998 40.383999 43.952 51.183998 54.911999 58.48 67.311996 74.543999 78.112 87.424004 96.335999 100.064 108.48 112.208 120.352 128.76801 134.39999 143.71201 147.23199 150.96001 157.008 165.424 174.752 178.32001 187.23199 190.96001 200.256 205.888 209.616 220.784 224.35201 231.696 240.112 245.744 255.056 258.57599 262.30399 272.17599 281.008 289.92001 293.64801 299.69601 308.608 316.39999 322.448 326.17599 333.40799 342.23999 351.53601 360.36801 363.936 373.24799 376.97601 388.14401 393.776 402.19199 411.51999 415.24799 423.664 429.71201 433.44 442.56 451.936 461.84 471.168 478.95999">state is inside a card, table or wizard. The text should wrap at 536px.</tspan></text></g></g></g><g
       id="g52"><g
         clip-path="url(#clipPath58)"
         id="g54"><g
           clip-path="url(#clipPath64)"
           id="g60"><path
             id="path66"
             style="fill:#0066cc;fill-opacity:1;fill-rule:nonzero;stroke:none"
             d="M 394,781 H 532.7598 V 735 H 394 Z" /></g></g></g><g
       id="g68"><g
         clip-path="url(#clipPath74)"
         id="g70"><g
           transform="matrix(1,0,0,-1,415,770)"
           id="g76"><text
             id="text80"
             style="font-variant:normal;font-weight:normal;font-size:16px;font-family:'Red Hat Text';-inkscape-font-specification:RedHatText-Regular;writing-mode:lr-tb;fill:#ffffff;fill-opacity:1;fill-rule:nonzero;stroke:none"
             transform="translate(0.1718883,17)"><tspan
               id="tspan78"
               sodipodi:role="line"
               y="0"
               x="0 11.616 20.032 23.6 27.167999 30.896 36.944 46.240002 49.967999 60.528 68.671997 74.720001 78.288002 87.584">Call to Action</tspan></text></g></g></g><g
       id="g82"><g
         clip-path="url(#clipPath88)"
         id="g84"><g
           clip-path="url(#clipPath94)"
           id="g90"><path
             id="path96"
             style="fill:#6a6e73;fill-opacity:1;fill-rule:nonzero;stroke:none"
             d="m 427,994 h 71.8845 V 930 H 427 Z" /></g></g></g><g
       id="g98"><g
         clip-path="url(#clipPath104)"
         id="g100"><g
           clip-path="url(#clipPath110)"
           id="g106"><path
             id="path112"
             style="fill:#0088ce;fill-opacity:0.9;fill-rule:nonzero;stroke:none"
             d="M 194,935 H 730.0019 V 903 H 194 Z" /></g></g></g><g
       id="g114"><g
         clip-path="url(#clipPath120)"
         id="g116"><g
           clip-path="url(#clipPath126)"
           id="g122"><g
             transform="matrix(1,0,0,-1,194,935)"
             id="g128"><path
               id="path130"
               style="fill:none;stroke:#0479b0;stroke-width:2;stroke-linecap:butt;stroke-linejoin:miter;stroke-miterlimit:10;stroke-dasharray:none;stroke-opacity:1"
               d="M 0,0 H 536.0019 V 32 H 0 Z" /></g></g></g></g><g
       id="g132"><g
         clip-path="url(#clipPath138)"
         id="g134"><g
           clip-path="url(#clipPath144)"
           id="g140"><path
             id="path146"
             style="fill:#0088ce;fill-opacity:0.9;fill-rule:nonzero;stroke:none"
             d="M 194,808 H 730.0019 V 776 H 194 Z" /></g></g></g><g
       id="g148"><g
         clip-path="url(#clipPath154)"
         id="g150"><g
           clip-path="url(#clipPath160)"
           id="g156"><g
             transform="matrix(1,0,0,-1,194,808)"
             id="g162"><path
               id="path164"
               style="fill:none;stroke:#0479b0;stroke-width:2;stroke-linecap:butt;stroke-linejoin:miter;stroke-miterlimit:10;stroke-dasharray:none;stroke-opacity:1"
               d="M 0,0 H 536.0019 V 32 H 0 Z" /></g></g></g></g><g
       id="g166"><g
         clip-path="url(#clipPath172)"
         id="g168"><g
           clip-path="url(#clipPath178)"
           id="g174"><path
             id="path180"
             style="fill:#3f9c35;fill-opacity:0.9;fill-rule:nonzero;stroke:none"
             d="M 194,872 H 730.0019 V 856 H 194 Z" /></g></g></g><g
       id="g182"><g
         clip-path="url(#clipPath188)"
         id="g184"><g
           clip-path="url(#clipPath194)"
           id="g190"><g
             transform="matrix(1,0,0,-1,194,872)"
             id="g196"><path
               id="path198"
               style="fill:none;stroke:#418a38;stroke-width:2;stroke-linecap:butt;stroke-linejoin:miter;stroke-miterlimit:10;stroke-dasharray:none;stroke-opacity:1"
               d="M 0,0 H 536.0019 V 16 H 0 Z" /></g></g></g></g><g
       id="g200"><g
         clip-path="url(#clipPath206)"
         id="g202"><g
           clip-path="url(#clipPath212)"
           id="g208"><path
             id="path214"
             style="fill:#92d400;fill-opacity:0.9;fill-rule:nonzero;stroke:none"
             d="m 194,740 h 536.0019 v -8 H 194 Z" /></g></g></g><g
       id="g216"><g
         clip-path="url(#clipPath222)"
         id="g218"><g
           clip-path="url(#clipPath228)"
           id="g224"><g
             transform="matrix(1,0,0,-1,194,740)"
             id="g230"><path
               id="path232"
               style="fill:none;stroke:#7fb300;stroke-width:2;stroke-linecap:butt;stroke-linejoin:miter;stroke-miterlimit:10;stroke-dasharray:none;stroke-opacity:1"
               d="M 0,0 H 536.0019 V 8 H 0 Z" /></g></g></g></g><g
       id="g234"><g
         clip-path="url(#clipPath240)"
         id="g236"><g
           clip-path="url(#clipPath246)"
           id="g242"><path
             id="path248"
             style="fill:#1f0066;fill-opacity:0.9;fill-rule:nonzero;stroke:none"
             d="M 194,1053 H 730.0019 V 989 H 194 Z" /></g></g></g><g
       id="g250"><g
         clip-path="url(#clipPath256)"
         id="g252"><g
           clip-path="url(#clipPath262)"
           id="g258"><g
             transform="matrix(1,0,0,-1,194,1053)"
             id="g264"><path
               id="path266"
               style="fill:none;stroke:#2a0e61;stroke-width:2;stroke-linecap:butt;stroke-linejoin:miter;stroke-miterlimit:10;stroke-dasharray:none;stroke-opacity:1"
               d="M 0,0 H 536.0019 V 64 H 0 Z" /></g></g></g></g><g
       id="g268"><g
         clip-path="url(#clipPath274)"
         id="g270"><g
           transform="matrix(1,0,0,-1,401,726)"
           id="g276"><text
             id="text280"
             style="font-variant:normal;font-weight:normal;font-size:16px;font-family:'Red Hat Text';-inkscape-font-specification:RedHatText-Regular;writing-mode:lr-tb;fill:#0066cc;fill-opacity:1;fill-rule:nonzero;stroke:none"
             transform="translate(0,17)"><tspan
               id="tspan278"
               sodipodi:role="line"
               y="0"
               x="0 9.9680004 18.879999 27.024 36.32 45.152 54.464001 62.880001 68.512001 76.480003 80.208 88.624001 96.767998 102.816 106.384 115.68">Secondary action</tspan></text></g><g
           transform="matrix(1,0,0,-1,281,1436)"
           id="g282"><text
             id="text286"
             style="font-variant:normal;font-weight:500;font-size:24px;font-family:'Red Hat Display';-inkscape-font-specification:RedHatDisplay-Medium;writing-mode:lr-tb;fill:#151515;fill-opacity:1;fill-rule:nonzero;stroke:none"
             transform="translate(27.336,24.2)"><tspan
               id="tspan284"
               sodipodi:role="line"
               y="0"
               x="0 15.144 28.752001 33.984001 45.144001 50.16 55.391998 66.552002 71.568001 84.335999 89.351997 100.512 121.584 134.35201 139.584 144.81599 149.832 163.584 184.65601 198.48 208.056 220.944 225.96001 236.88 246.216 258.504 267.57599">This is a small empty state</tspan></text></g><g
           transform="matrix(1,0,0,-1,281,1389)"
           id="g288"><text
             id="text292"
             style="font-variant:normal;font-weight:normal;font-size:16px;font-family:'Red Hat Text';-inkscape-font-specification:RedHatText-Regular;writing-mode:lr-tb;fill:#6a6e73;fill-opacity:1;fill-rule:nonzero;stroke:none"
             transform="translate(3.072,17)"><tspan
               id="tspan290"
               sodipodi:role="line"
               y="0"
               x="0 11.392 18.624001 27.535999 31.264 37.312 46.144001 49.712002 56.944 60.672001 68.688004 77.103996 82.736 86.304001 94.720001 100.768 104.336 113.632 122.464 126.192 129.75999 138.592 145.82401 149.392 158.70399 167.616 171.34399 179.75999 183.48801 191.632 200.048 205.67999 214.992 218.51199 222.24001 228.28799 236.70399 246.032 249.60001 258.51199 262.23999 271.53601 277.168 280.896 292.064 295.63199 302.97601 311.392 317.02399 326.336 329.85599">Use this variation inside a card, table or wizard. </tspan></text></g><g
           transform="matrix(1,0,0,-1,281,1389)"
           id="g294"><text
             id="text298"
             style="font-variant:normal;font-weight:normal;font-size:16px;font-family:'Red Hat Text';-inkscape-font-specification:RedHatText-Regular;writing-mode:lr-tb;fill:#6a6e73;fill-opacity:1;fill-rule:nonzero;stroke:none"
             transform="translate(57.784,41)"><tspan
               id="tspan296"
               sodipodi:role="line"
               y="0"
               x="0 9.8719997 18.704 27.615999 31.344 37.391998 46.304001 54.096001 60.144001 63.872002 71.103996 79.935997 89.232002 98.064003 101.632 110.944 114.672 125.84 131.472 139.888 149.216 152.944 161.36 167.408 171.136 180.51199 189.888 199.79201 209.12 216.912">The text should wrap at 336px.</tspan></text></g></g></g><g
       id="g300"><g
         clip-path="url(#clipPath306)"
         id="g302"><g
           clip-path="url(#clipPath312)"
           id="g308"><path
             id="path314"
             style="fill:#0066cc;fill-opacity:1;fill-rule:nonzero;stroke:none"
             d="m 380,1314 h 139 v -46 H 380 Z" /></g></g></g><g
       id="g316"><g
         clip-path="url(#clipPath322)"
         id="g318"><g
           transform="matrix(1,0,0,-1,401,1303)"
           id="g324"><text
             id="text328"
             style="font-variant:normal;font-weight:normal;font-size:16px;font-family:'Red Hat Text';-inkscape-font-specification:RedHatText-Regular;writing-mode:lr-tb;fill:#ffffff;fill-opacity:1;fill-rule:nonzero;stroke:none"
             transform="translate(0.292,17)"><tspan
               id="tspan326"
               sodipodi:role="line"
               y="0"
               x="0 11.616 20.032 23.6 27.167999 30.896 36.944 46.240002 49.967999 60.528 68.671997 74.720001 78.288002 87.584">Call to Action</tspan></text></g></g></g><g
       id="g330"><g
         clip-path="url(#clipPath336)"
         id="g332"><g
           clip-path="url(#clipPath342)"
           id="g338"><path
             id="path344"
             style="fill:#6a6e73;fill-opacity:1;fill-rule:nonzero;stroke:none"
             d="m 414,1527 h 72 v -64 h -72 z" /></g></g></g><g
       id="g346"><g
         clip-path="url(#clipPath352)"
         id="g348"><g
           transform="matrix(1,0,0,-1,387,1259)"
           id="g354"><text
             id="text358"
             style="font-variant:normal;font-weight:normal;font-size:16px;font-family:'Red Hat Text';-inkscape-font-specification:RedHatText-Regular;writing-mode:lr-tb;fill:#0066cc;fill-opacity:1;fill-rule:nonzero;stroke:none"
             transform="translate(0,17)"><tspan
               id="tspan356"
               sodipodi:role="line"
               y="0"
               x="0 9.9680004 18.879999 27.024 36.32 45.152 54.464001 62.880001 68.512001 76.480003 80.208 88.624001 96.767998 102.816 106.384 115.68">Secondary action</tspan></text></g></g></g><g
       id="g360"><g
         clip-path="url(#clipPath366)"
         id="g362"><g
           clip-path="url(#clipPath372)"
           id="g368"><path
             id="path374"
             style="fill:#0088ce;fill-opacity:0.9;fill-rule:nonzero;stroke:none"
             d="m 281,1468 h 336 v -32 H 281 Z" /></g></g></g><g
       id="g376"><g
         clip-path="url(#clipPath382)"
         id="g378"><g
           clip-path="url(#clipPath388)"
           id="g384"><g
             transform="matrix(1,0,0,-1,281,1468)"
             id="g390"><path
               id="path392"
               style="fill:none;stroke:#0479b0;stroke-width:2;stroke-linecap:butt;stroke-linejoin:miter;stroke-miterlimit:10;stroke-dasharray:none;stroke-opacity:1"
               d="M 0,0 H 336 V 32 H 0 Z" /></g></g></g></g><g
       id="g394"><g
         clip-path="url(#clipPath400)"
         id="g396"><g
           clip-path="url(#clipPath406)"
           id="g402"><path
             id="path408"
             style="fill:#007a87;fill-opacity:0.9;fill-rule:nonzero;stroke:none"
             d="m 281,1546 h 336 v -24 H 281 Z" /></g></g></g><g
       id="g410"><g
         clip-path="url(#clipPath416)"
         id="g412"><g
           clip-path="url(#clipPath422)"
           id="g418"><g
             transform="matrix(1,0,0,-1,281,1546)"
             id="g424"><path
               id="path426"
               style="fill:none;stroke:#09707b;stroke-width:2;stroke-linecap:butt;stroke-linejoin:miter;stroke-miterlimit:10;stroke-dasharray:none;stroke-opacity:1"
               d="M 0,0 H 336 V 24 H 0 Z" /></g></g></g></g><g
       id="g428"><g
         clip-path="url(#clipPath434)"
         id="g430"><g
           clip-path="url(#clipPath440)"
           id="g436"><path
             id="path442"
             style="fill:#92d400;fill-opacity:0.9;fill-rule:nonzero;stroke:none"
             d="m 281,1273 h 336 v -8 H 281 Z" /></g></g></g><g
       id="g444"><g
         clip-path="url(#clipPath450)"
         id="g446"><g
           clip-path="url(#clipPath456)"
           id="g452"><g
             transform="matrix(1,0,0,-1,281,1273)"
             id="g458"><path
               id="path460"
               style="fill:none;stroke:#7fb300;stroke-width:2;stroke-linecap:butt;stroke-linejoin:miter;stroke-miterlimit:10;stroke-dasharray:none;stroke-opacity:1"
               d="M 0,0 H 336 V 8 H 0 Z" /></g></g></g></g><g
       id="g462"><g
         clip-path="url(#clipPath468)"
         id="g464"><g
           clip-path="url(#clipPath474)"
           id="g470"><path
             id="path476"
             style="fill:#0088ce;fill-opacity:0.9;fill-rule:nonzero;stroke:none"
             d="m 281,1341 h 336 v -32 H 281 Z" /></g></g></g><g
       id="g478"><g
         clip-path="url(#clipPath484)"
         id="g480"><g
           clip-path="url(#clipPath490)"
           id="g486"><g
             transform="matrix(1,0,0,-1,281,1341)"
             id="g492"><path
               id="path494"
               style="fill:none;stroke:#0479b0;stroke-width:2;stroke-linecap:butt;stroke-linejoin:miter;stroke-miterlimit:10;stroke-dasharray:none;stroke-opacity:1"
               d="M 0,0 H 336 V 32 H 0 Z" /></g></g></g></g><g
       id="g496"><g
         clip-path="url(#clipPath502)"
         id="g498"><g
           clip-path="url(#clipPath508)"
           id="g504"><path
             id="path510"
             style="fill:#3f9c35;fill-opacity:0.9;fill-rule:nonzero;stroke:none"
             d="m 281,1405 h 336 v -16 H 281 Z" /></g></g></g><g
       id="g512"><g
         clip-path="url(#clipPath518)"
         id="g514"><g
           clip-path="url(#clipPath524)"
           id="g520"><g
             transform="matrix(1,0,0,-1,281,1405)"
             id="g526"><path
               id="path528"
               style="fill:none;stroke:#418a38;stroke-width:2;stroke-linecap:butt;stroke-linejoin:miter;stroke-miterlimit:10;stroke-dasharray:none;stroke-opacity:1"
               d="M 0,0 H 336 V 16 H 0 Z" /></g></g></g></g><g
       id="g530"><g
         clip-path="url(#clipPath536)"
         id="g532"><g
           transform="matrix(1,0,0,-1,42,598)"
           id="g538"><text
             id="text542"
             style="font-variant:normal;font-weight:500;font-size:41px;font-family:'Red Hat Display';-inkscape-font-specification:RedHatDisplay-Medium;writing-mode:lr-tb;fill:#ff00ff;fill-opacity:1;fill-rule:nonzero;stroke:none"
             transform="translate(0,37.8)"><tspan
               id="tspan540"
               sodipodi:role="line"
               y="0"
               x="0 25.747999 46.945 62.894001 78.105003 99.917 108.486 117.424 139.23599 154.44701 179.17 202.66299 211.23199 234.72501 270.72299 295.60999 311.55899 333.57599 342.14499 361.20999 377.159 398.97101 414.92001 438.41299 446.98199 463.341 479.29001 502.78299 523.97998 539.92902 548.49799 578.46899 593.67999 615.492 640.37903 659.44397 668.013 689.82501 705.77399 714.34302 739.84497 762.59998 788.88098 813.76801 834.96503">Extra large empty state (text wraps at 624px)</tspan></text></g></g></g><g
       id="g544"><g
         clip-path="url(#clipPath550)"
         id="g546"><g
           clip-path="url(#clipPath556)"
           id="g552"><path
             id="path558"
             style="fill:#1f0066;fill-opacity:0.9;fill-rule:nonzero;stroke:none"
             d="M 150,497 H 774 V 433 H 150 Z" /></g></g></g><g
       id="g560"><g
         clip-path="url(#clipPath566)"
         id="g562"><g
           clip-path="url(#clipPath572)"
           id="g568"><g
             transform="matrix(1,0,0,-1,150,497)"
             id="g574"><path
               id="path576"
               style="fill:none;stroke:#2a0e61;stroke-width:2;stroke-linecap:butt;stroke-linejoin:miter;stroke-miterlimit:10;stroke-dasharray:none;stroke-opacity:1"
               d="M 0,0 H 624 V 64 H 0 Z" /></g></g></g></g><g
       id="g578"><g
         clip-path="url(#clipPath584)"
         id="g580"><g
           clip-path="url(#clipPath590)"
           id="g586"><path
             id="path592"
             style="fill:#007a87;fill-opacity:0.9;fill-rule:nonzero;stroke:none"
             d="M 150,266 H 774 V 242 H 150 Z" /></g></g></g><g
       id="g594"><g
         clip-path="url(#clipPath600)"
         id="g596"><g
           clip-path="url(#clipPath606)"
           id="g602"><g
             transform="matrix(1,0,0,-1,150,266)"
             id="g608"><path
               id="path610"
               style="fill:none;stroke:#09707b;stroke-width:2;stroke-linecap:butt;stroke-linejoin:miter;stroke-miterlimit:10;stroke-dasharray:none;stroke-opacity:1"
               d="M 0,0 H 624 V 24 H 0 Z" /></g></g></g></g><g
       id="g612"><g
         clip-path="url(#clipPath618)"
         id="g614"><g
           clip-path="url(#clipPath624)"
           id="g620"><path
             id="path626"
             style="fill:#0088ce;fill-opacity:0.9;fill-rule:nonzero;stroke:none"
             d="M 150,183 H 774 V 151 H 150 Z" /></g></g></g><g
       id="g628"><g
         clip-path="url(#clipPath634)"
         id="g630"><g
           clip-path="url(#clipPath640)"
           id="g636"><g
             transform="matrix(1,0,0,-1,150,183)"
             id="g642"><path
               id="path644"
               style="fill:none;stroke:#0479b0;stroke-width:2;stroke-linecap:butt;stroke-linejoin:miter;stroke-miterlimit:10;stroke-dasharray:none;stroke-opacity:1"
               d="M 0,0 H 624 V 32 H 0 Z" /></g></g></g></g><g
       id="g646"><g
         clip-path="url(#clipPath652)"
         id="g648"><g
           clip-path="url(#clipPath658)"
           id="g654"><path
             id="path660"
             style="fill:#0088ce;fill-opacity:0.9;fill-rule:nonzero;stroke:none"
             d="M 150,345 H 774 V 313 H 150 Z" /></g></g></g><g
       id="g662"><g
         clip-path="url(#clipPath668)"
         id="g664"><g
           clip-path="url(#clipPath674)"
           id="g670"><g
             transform="matrix(1,0,0,-1,150,345)"
             id="g676"><path
               id="path678"
               style="fill:none;stroke:#0479b0;stroke-width:2;stroke-linecap:butt;stroke-linejoin:miter;stroke-miterlimit:10;stroke-dasharray:none;stroke-opacity:1"
               d="M 0,0 H 624 V 32 H 0 Z" /></g></g></g></g><g
       id="g680"><g
         clip-path="url(#clipPath686)"
         id="g682"><g
           clip-path="url(#clipPath692)"
           id="g688"><path
             id="path694"
             style="fill:#3f9c35;fill-opacity:0.9;fill-rule:nonzero;stroke:none"
             d="M 150,116 H 774 V 100 H 150 Z" /></g></g></g><g
       id="g696"><g
         clip-path="url(#clipPath702)"
         id="g698"><g
           clip-path="url(#clipPath708)"
           id="g704"><g
             transform="matrix(1,0,0,-1,150,116)"
             id="g710"><path
               id="path712"
               style="fill:none;stroke:#418a38;stroke-width:2;stroke-linecap:butt;stroke-linejoin:miter;stroke-miterlimit:10;stroke-dasharray:none;stroke-opacity:1"
               d="M 0,0 H 624 V 16 H 0 Z" /></g></g></g></g><g
       id="g714"><g
         clip-path="url(#clipPath720)"
         id="g716"><g
           clip-path="url(#clipPath726)"
           id="g722"><path
             id="path728"
             style="fill:#0066cc;fill-opacity:1;fill-rule:nonzero;stroke:none"
             d="m 399,156.2 h 126 v -46 H 399 Z" /></g></g></g><g
       id="g730"><g
         clip-path="url(#clipPath736)"
         id="g732"><g
           transform="matrix(1,0,0,-1,420,145.2)"
           id="g738"><text
             id="text742"
             style="font-variant:normal;font-weight:normal;font-size:16px;font-family:'Red Hat Text';-inkscape-font-specification:RedHatText-Regular;writing-mode:lr-tb;fill:#ffffff;fill-opacity:1;fill-rule:nonzero;stroke:none"
             transform="translate(0.464,17)"><tspan
               id="tspan740"
               sodipodi:role="line"
               y="0"
               x="0 12.784 21.695999 27.743999 31.472 38.703999 44.751999 53.167999 58.799999 64.848 73.760002">Get started</tspan></text></g><g
           transform="matrix(1,0,0,-1,262,313)"
           id="g744"><text
             id="text748"
             style="font-variant:normal;font-weight:500;font-size:36px;font-family:'Red Hat Display';-inkscape-font-specification:RedHatDisplay-Medium;writing-mode:lr-tb;fill:#151515;fill-opacity:1;fill-rule:nonzero;stroke:none"
             transform="translate(0,35.8)"><tspan
               id="tspan746"
               sodipodi:role="line"
               y="0"
               x="0 32.688 53.316002 61.164001 79.919998 101.556 133.164 153.79201 161.31599 175.32001 196.95599 204.48 228.276 247.42799 261.43201 275.436 296.064 309.42001 329.832 352.15201 360 379.332">Welcome to PatternFly!</tspan></text></g><g
           transform="matrix(1,0,0,-1,150,242.2)"
           id="g750"><text
             id="text754"
             style="font-variant:normal;font-weight:500;font-size:20px;font-family:'Red Hat Display';-inkscape-font-specification:RedHatDisplay-Medium;writing-mode:lr-tb;fill:#6a6e73;fill-opacity:1;fill-rule:nonzero;stroke:none"
             transform="translate(31.57,22)"><tspan
               id="tspan752"
               sodipodi:role="line"
               y="0"
               x="0 12.26 20.040001 30.68 38.099998 45.880001 50.060001 62.200001 72.940002 77.120003 87.540001 99.559998 110.9 118.68 126.1 130.46001 142.60001 153.94 161.72 166.08 177.42 189.48 193.66 201.44 213.46001 217.64 229.66 241 248.42 252.60001 264.73999 276.20001 285.5 289.85999 301.92001 313.26001 317.44 326.73999 337.48001 346.78 354.56 366.01999 383.57999 387.89999 392.07999 405.42001 417.44 428.78 432.95999 443.38 454.01999 465.35999 469.54001 481.67999 489.10001 501.12 513.26001 525.28003 534.58002 546.03998 550.21997 560.85999">Start by contributing to our design system. You can propose a </tspan></text></g><g
           transform="matrix(1,0,0,-1,150,242.2)"
           id="g756"><text
             id="text760"
             style="font-variant:normal;font-weight:500;font-size:20px;font-family:'Red Hat Display';-inkscape-font-specification:RedHatDisplay-Medium;writing-mode:lr-tb;fill:#6a6e73;fill-opacity:1;fill-rule:nonzero;stroke:none"
             transform="translate(126.29,52)"><tspan
               id="tspan758"
               sodipodi:role="line"
               y="0"
               x="0 10.42 21.76 32.400002 43.740002 55.799999 67.260002 71.440002 83.580002 94.32 98.5 107.8 119.14 131.28 148.84 153.2 160.98 168.75999 173.12 184.46001 196.52 200.7 211.34 222.67999 226.86 231.22 240.52 249.82001 261.16 272.62 276.79999 288.82001 300.16 304.34 320.14001 324.5 332.28 343.62 354.95999 367.10001">change by submitting an issue on Github.</tspan></text></g></g></g><g
       id="g762"><g
         clip-path="url(#clipPath768)"
         id="g764"><g
           clip-path="url(#clipPath774)"
           id="g770"><path
             id="path776"
             style="fill:#6a6e73;fill-opacity:1;fill-rule:nonzero;stroke:none"
             d="M 395,438 H 530 V 341 H 395 Z" /></g></g></g></g></svg>
