<?xml version="1.0" encoding="UTF-8" standalone="no"?>
<svg
   xmlns:dc="http://purl.org/dc/elements/1.1/"
   xmlns:cc="http://creativecommons.org/ns#"
   xmlns:rdf="http://www.w3.org/1999/02/22-rdf-syntax-ns#"
   xmlns:svg="http://www.w3.org/2000/svg"
   xmlns="http://www.w3.org/2000/svg"
   xmlns:sodipodi="http://sodipodi.sourceforge.net/DTD/sodipodi-0.dtd"
   xmlns:inkscape="http://www.inkscape.org/namespaces/inkscape"
   sodipodi:docname="patternfly-template.pdf"
   viewBox="0 0 698.66669 794.66669"
   height="794.66669"
   width="698.66669"
   xml:space="preserve"
   id="svg2"
   version="1.1"><metadata
     id="metadata8"><rdf:RDF><cc:Work
         rdf:about=""><dc:format>image/svg+xml</dc:format><dc:type
           rdf:resource="http://purl.org/dc/dcmitype/StillImage" /></cc:Work></rdf:RDF></metadata><defs
     id="defs6"><clipPath
       id="clipPath20"
       clipPathUnits="userSpaceOnUse"><path
         id="path18"
         d="M 0,0 H 524 V 596 H 0 Z" /></clipPath><clipPath
       id="clipPath30"
       clipPathUnits="userSpaceOnUse"><path
         id="path28"
         clip-rule="evenodd"
         d="M 0,596 H 524 V 516 H 0 Z" /></clipPath><clipPath
       id="clipPath36"
       clipPathUnits="userSpaceOnUse"><path
         id="path34"
         d="M 0,0 H 524 V 596 H 0 Z" /></clipPath><clipPath
       id="clipPath46"
       clipPathUnits="userSpaceOnUse"><path
         id="path44"
         clip-rule="evenodd"
         d="m 465.9718,546.4344 8.5,8.5 c 0.5875,0.5875 0.5875,1.5375 -0.006,2.125 l -8.5,8.5 c -0.5812,0.5875 -1.5312,0.5875 -2.1188,0 l -1.4062,-1.425 c -0.5875,-0.5813 -0.5875,-1.5313 0,-2.1188 l 6.025,-6.0249 -6.025,-6.0251 c -0.5875,-0.5812 -0.5875,-1.5312 0,-2.1187 l 1.4125,-1.4125 c 0.5813,-0.5875 1.5313,-0.5875 2.1187,0 z" /></clipPath><clipPath
       id="clipPath52"
       clipPathUnits="userSpaceOnUse"><path
         id="path50"
         d="M 0,0 H 524 V 596 H 0 Z" /></clipPath><clipPath
       id="clipPath62"
       clipPathUnits="userSpaceOnUse"><path
         id="path60"
         d="M 0,0 H 524 V 596 H 0 Z" /></clipPath><clipPath
       id="clipPath76"
       clipPathUnits="userSpaceOnUse"><path
         id="path74"
         clip-rule="evenodd"
         d="M 0,516 H 524 V 436 H 0 Z" /></clipPath><clipPath
       id="clipPath82"
       clipPathUnits="userSpaceOnUse"><path
         id="path80"
         d="M 0,0 H 524 V 596 H 0 Z" /></clipPath><clipPath
       id="clipPath92"
       clipPathUnits="userSpaceOnUse"><path
         id="path90"
         clip-rule="evenodd"
         d="m 465.9718,466.4344 8.5,8.5 c 0.5875,0.5875 0.5875,1.5375 -0.006,2.125 l -8.5,8.5 c -0.5812,0.5875 -1.5312,0.5875 -2.1188,0 l -1.4062,-1.425 c -0.5875,-0.5813 -0.5875,-1.5313 0,-2.1188 l 6.025,-6.0249 -6.025,-6.0251 c -0.5875,-0.5812 -0.5875,-1.5312 0,-2.1187 l 1.4125,-1.4125 c 0.5813,-0.5875 1.5313,-0.5875 2.1187,0 z" /></clipPath><clipPath
       id="clipPath98"
       clipPathUnits="userSpaceOnUse"><path
         id="path96"
         d="M 0,0 H 524 V 596 H 0 Z" /></clipPath><clipPath
       id="clipPath108"
       clipPathUnits="userSpaceOnUse"><path
         id="path106"
         d="M 0,0 H 524 V 596 H 0 Z" /></clipPath><clipPath
       id="clipPath122"
       clipPathUnits="userSpaceOnUse"><path
         id="path120"
         clip-rule="evenodd"
         d="M 0,240 H 524 V 160 H 0 Z" /></clipPath><clipPath
       id="clipPath128"
       clipPathUnits="userSpaceOnUse"><path
         id="path126"
         d="M 0,0 H 524 V 596 H 0 Z" /></clipPath><clipPath
       id="clipPath138"
       clipPathUnits="userSpaceOnUse"><path
         id="path136"
         clip-rule="evenodd"
         d="m 465.9718,190.4344 8.5,8.5 c 0.5875,0.5875 0.5875,1.5375 -0.006,2.125 l -8.5,8.5 c -0.5812,0.5875 -1.5312,0.5875 -2.1188,0 l -1.4062,-1.425 c -0.5875,-0.5813 -0.5875,-1.5313 0,-2.1188 l 6.025,-6.0249 -6.025,-6.0251 c -0.5875,-0.5812 -0.5875,-1.5312 0,-2.1187 l 1.4125,-1.4125 c 0.5813,-0.5875 1.5313,-0.5875 2.1187,0 z" /></clipPath><clipPath
       id="clipPath144"
       clipPathUnits="userSpaceOnUse"><path
         id="path142"
         d="M 0,0 H 524 V 596 H 0 Z" /></clipPath><clipPath
       id="clipPath154"
       clipPathUnits="userSpaceOnUse"><path
         id="path152"
         d="M 0,0 H 524 V 596 H 0 Z" /></clipPath><clipPath
       id="clipPath168"
       clipPathUnits="userSpaceOnUse"><path
         id="path166"
         clip-rule="evenodd"
         d="M 0,160 H 524 V 80 H 0 Z" /></clipPath><clipPath
       id="clipPath174"
       clipPathUnits="userSpaceOnUse"><path
         id="path172"
         d="M 0,0 H 524 V 596 H 0 Z" /></clipPath><clipPath
       id="clipPath184"
       clipPathUnits="userSpaceOnUse"><path
         id="path182"
         clip-rule="evenodd"
         d="m 465.9718,110.4344 8.5,8.5 c 0.5875,0.5875 0.5875,1.5375 -0.006,2.125 l -8.5,8.5 c -0.5812,0.5875 -1.5312,0.5875 -2.1188,0 l -1.4062,-1.425 c -0.5875,-0.5813 -0.5875,-1.5313 0,-2.1188 l 6.025,-6.0249 -6.025,-6.0251 c -0.5875,-0.5812 -0.5875,-1.5312 0,-2.1187 l 1.4125,-1.4125 c 0.5813,-0.5875 1.5313,-0.5875 2.1187,0 z" /></clipPath><clipPath
       id="clipPath190"
       clipPathUnits="userSpaceOnUse"><path
         id="path188"
         d="M 0,0 H 524 V 596 H 0 Z" /></clipPath><clipPath
       id="clipPath200"
       clipPathUnits="userSpaceOnUse"><path
         id="path198"
         d="M 0,0 H 524 V 596 H 0 Z" /></clipPath><clipPath
       id="clipPath214"
       clipPathUnits="userSpaceOnUse"><path
         id="path212"
         clip-rule="evenodd"
         d="M 0,80 H 524 V 0 H 0 Z" /></clipPath><clipPath
       id="clipPath220"
       clipPathUnits="userSpaceOnUse"><path
         id="path218"
         d="M 0,0 H 524 V 596 H 0 Z" /></clipPath><clipPath
       id="clipPath230"
       clipPathUnits="userSpaceOnUse"><path
         id="path228"
         clip-rule="evenodd"
         d="m 465.9718,30.4344 8.5,8.49998 c 0.5875,0.58753 0.5875,1.53747 -0.006,2.125 l -8.5,8.49998 c -0.5812,0.58752 -1.5312,0.58752 -2.1188,0 l -1.4062,-1.42499 c -0.5875,-0.58123 -0.5875,-1.53124 0,-2.11877 l 6.025,-6.02495 -6.025,-6.02501 c -0.5875,-0.58123 -0.5875,-1.53124 0,-2.11876 l 1.4125,-1.41248 c 0.5813,-0.58752 1.5313,-0.58752 2.1187,0 z" /></clipPath><clipPath
       id="clipPath236"
       clipPathUnits="userSpaceOnUse"><path
         id="path234"
         d="M 0,0 H 524 V 596 H 0 Z" /></clipPath><clipPath
       id="clipPath246"
       clipPathUnits="userSpaceOnUse"><path
         id="path244"
         d="M 0,0 H 524 V 596 H 0 Z" /></clipPath><clipPath
       id="clipPath260"
       clipPathUnits="userSpaceOnUse"><path
         id="path258"
         clip-rule="evenodd"
         d="M 0,436 H 524 V 356 H 0 Z" /></clipPath><clipPath
       id="clipPath266"
       clipPathUnits="userSpaceOnUse"><path
         id="path264"
         d="M 0,0 H 524 V 596 H 0 Z" /></clipPath><clipPath
       id="clipPath276"
       clipPathUnits="userSpaceOnUse"><path
         id="path274"
         clip-rule="evenodd"
         d="M 0,436 H 6 V 356 H 0 Z" /></clipPath><clipPath
       id="clipPath282"
       clipPathUnits="userSpaceOnUse"><path
         id="path280"
         d="M 0,0 H 524 V 596 H 0 Z" /></clipPath><clipPath
       id="clipPath292"
       clipPathUnits="userSpaceOnUse"><path
         id="path290"
         clip-rule="evenodd"
         d="m 469.0531,389.5282 8.5,8.5 c 0.5875,0.5812 0.5875,1.5312 0,2.1187 l -1.4125,1.4125 c -0.5812,0.5875 -1.5312,0.5875 -2.1188,0 l -6.0249,-6.025 -6.025,6.025 c -0.5813,0.5875 -1.5313,0.5875 -2.1188,0 l -1.4125,-1.4125 c -0.5875,-0.5813 -0.5875,-1.5313 0,-2.1187 l 8.5,-8.5 c 0.5875,-0.5875 1.5375,-0.5875 2.1125,0 z" /></clipPath><clipPath
       id="clipPath298"
       clipPathUnits="userSpaceOnUse"><path
         id="path296"
         d="M 0,0 H 524 V 596 H 0 Z" /></clipPath><clipPath
       id="clipPath308"
       clipPathUnits="userSpaceOnUse"><path
         id="path306"
         d="M 0,0 H 524 V 596 H 0 Z" /></clipPath><clipPath
       id="clipPath322"
       clipPathUnits="userSpaceOnUse"><path
         id="path320"
         clip-rule="evenodd"
         d="M 0,356 H 524 V 240 H 0 Z" /></clipPath><clipPath
       id="clipPath328"
       clipPathUnits="userSpaceOnUse"><path
         id="path326"
         d="M 0,0 H 524 V 596 H 0 Z" /></clipPath><clipPath
       id="clipPath338"
       clipPathUnits="userSpaceOnUse"><path
         id="path336"
         clip-rule="evenodd"
         d="M 0,356 H 6 V 240 H 0 Z" /></clipPath><clipPath
       id="clipPath344"
       clipPathUnits="userSpaceOnUse"><path
         id="path342"
         d="M 0,0 H 524 V 596 H 0 Z" /></clipPath><clipPath
       id="clipPath354"
       clipPathUnits="userSpaceOnUse"><path
         id="path352"
         d="m 32,256 h 460 v 84 H 32 Z" /></clipPath></defs><sodipodi:namedview
     id="namedview4"
     inkscape:window-height="480"
     inkscape:window-width="640"
     inkscape:pageshadow="2"
     inkscape:pageopacity="0"
     guidetolerance="10"
     gridtolerance="10"
     objecttolerance="10"
     borderopacity="1"
     bordercolor="#666666"
     pagecolor="#ffffff" /><g
     transform="matrix(1.3333333,0,0,-1.3333333,0,794.66667)"
     inkscape:label="patternfly-template"
     inkscape:groupmode="layer"
     id="g10"><g
       id="g12" /><g
       id="g14"><g
         clip-path="url(#clipPath20)"
         id="g16"><path
           id="path22"
           style="fill:#ffffff;fill-opacity:1;fill-rule:nonzero;stroke:none"
           d="M 0,596 H 524 V 0 H 0 Z" /></g></g><g
       id="g24"><g
         clip-path="url(#clipPath30)"
         id="g26"><g
           clip-path="url(#clipPath36)"
           id="g32"><path
             id="path38"
             style="fill:#ffffff;fill-opacity:1;fill-rule:nonzero;stroke:none"
             d="M -10,606 H 534 V 506 H -10 Z" /></g></g></g><g
       id="g40"><g
         clip-path="url(#clipPath46)"
         id="g42"><g
           clip-path="url(#clipPath52)"
           id="g48"><path
             id="path54"
             style="fill:#151515;fill-opacity:1;fill-rule:nonzero;stroke:none"
             d="m 452,576 h 32.9117 V 535.9938 H 452 Z" /></g></g></g><g
       id="g56"><g
         clip-path="url(#clipPath62)"
         id="g58"><g
           transform="matrix(2,0,0,-2,32,580)"
           id="g64"><text
             id="text68"
             style="font-variant:normal;font-weight:normal;font-size:16px;font-family:'Red Hat Text';-inkscape-font-specification:RedHatText-Regular;writing-mode:lr-tb;fill:#151515;fill-opacity:1;fill-rule:nonzero;stroke:none"
             transform="translate(0,17)"><tspan
               id="tspan66"
               sodipodi:role="line"
               y="0"
               x="0 4.0320001 10.08 18.992001 32.512001 36.240002">Item 1</tspan></text></g></g></g><g
       id="g70"><g
         clip-path="url(#clipPath76)"
         id="g72"><g
           clip-path="url(#clipPath82)"
           id="g78"><path
             id="path84"
             style="fill:#ffffff;fill-opacity:1;fill-rule:nonzero;stroke:none"
             d="M -10,526 H 534 V 426 H -10 Z" /></g></g></g><g
       id="g86"><g
         clip-path="url(#clipPath92)"
         id="g88"><g
           clip-path="url(#clipPath98)"
           id="g94"><path
             id="path100"
             style="fill:#151515;fill-opacity:1;fill-rule:nonzero;stroke:none"
             d="m 452,496 h 32.9117 V 455.9938 H 452 Z" /></g></g></g><g
       id="g102"><g
         clip-path="url(#clipPath108)"
         id="g104"><g
           transform="matrix(2,0,0,-2,32,500)"
           id="g110"><text
             id="text114"
             style="font-variant:normal;font-weight:normal;font-size:16px;font-family:'Red Hat Text';-inkscape-font-specification:RedHatText-Regular;writing-mode:lr-tb;fill:#151515;fill-opacity:1;fill-rule:nonzero;stroke:none"
             transform="translate(0,17)"><tspan
               id="tspan112"
               sodipodi:role="line"
               y="0"
               x="0 4.0320001 10.08 18.992001 32.512001 36.240002">Item 2</tspan></text></g></g></g><g
       id="g116"><g
         clip-path="url(#clipPath122)"
         id="g118"><g
           clip-path="url(#clipPath128)"
           id="g124"><path
             id="path130"
             style="fill:#ffffff;fill-opacity:1;fill-rule:nonzero;stroke:none"
             d="M -10,250 H 534 V 150 H -10 Z" /></g></g></g><g
       id="g132"><g
         clip-path="url(#clipPath138)"
         id="g134"><g
           clip-path="url(#clipPath144)"
           id="g140"><path
             id="path146"
             style="fill:#151515;fill-opacity:1;fill-rule:nonzero;stroke:none"
             d="m 452,220 h 32.9117 V 179.9938 H 452 Z" /></g></g></g><g
       id="g148"><g
         clip-path="url(#clipPath154)"
         id="g150"><g
           transform="matrix(2,0,0,-2,32,224)"
           id="g156"><text
             id="text160"
             style="font-variant:normal;font-weight:normal;font-size:16px;font-family:'Red Hat Text';-inkscape-font-specification:RedHatText-Regular;writing-mode:lr-tb;fill:#151515;fill-opacity:1;fill-rule:nonzero;stroke:none"
             transform="translate(0,17)"><tspan
               id="tspan158"
               sodipodi:role="line"
               y="0"
               x="0 4.0320001 10.08 18.992001 32.512001 36.240002">Item 4</tspan></text></g></g></g><g
       id="g162"><g
         clip-path="url(#clipPath168)"
         id="g164"><g
           clip-path="url(#clipPath174)"
           id="g170"><path
             id="path176"
             style="fill:#ffffff;fill-opacity:1;fill-rule:nonzero;stroke:none"
             d="M -10,170 H 534 V 70 H -10 Z" /></g></g></g><g
       id="g178"><g
         clip-path="url(#clipPath184)"
         id="g180"><g
           clip-path="url(#clipPath190)"
           id="g186"><path
             id="path192"
             style="fill:#151515;fill-opacity:1;fill-rule:nonzero;stroke:none"
             d="m 452,140 h 32.9117 V 99.99376 H 452 Z" /></g></g></g><g
       id="g194"><g
         clip-path="url(#clipPath200)"
         id="g196"><g
           transform="matrix(2,0,0,-2,32,144)"
           id="g202"><text
             id="text206"
             style="font-variant:normal;font-weight:normal;font-size:16px;font-family:'Red Hat Text';-inkscape-font-specification:RedHatText-Regular;writing-mode:lr-tb;fill:#151515;fill-opacity:1;fill-rule:nonzero;stroke:none"
             transform="translate(0,17)"><tspan
               id="tspan204"
               sodipodi:role="line"
               y="0"
               x="0 4.0320001 10.08 18.992001 32.512001 36.240002">Item 5</tspan></text></g></g></g><g
       id="g208"><g
         clip-path="url(#clipPath214)"
         id="g210"><g
           clip-path="url(#clipPath220)"
           id="g216"><path
             id="path222"
             style="fill:#ffffff;fill-opacity:1;fill-rule:nonzero;stroke:none"
             d="M -10,90 H 534 V -10 H -10 Z" /></g></g></g><g
       id="g224"><g
         clip-path="url(#clipPath230)"
         id="g226"><g
           clip-path="url(#clipPath236)"
           id="g232"><path
             id="path238"
             style="fill:#151515;fill-opacity:1;fill-rule:nonzero;stroke:none"
             d="m 452,60 h 32.9117 V 19.99376 H 452 Z" /></g></g></g><g
       id="g240"><g
         clip-path="url(#clipPath246)"
         id="g242"><g
           transform="matrix(2,0,0,-2,32,64)"
           id="g248"><text
             id="text252"
             style="font-variant:normal;font-weight:normal;font-size:16px;font-family:'Red Hat Text';-inkscape-font-specification:RedHatText-Regular;writing-mode:lr-tb;fill:#151515;fill-opacity:1;fill-rule:nonzero;stroke:none"
             transform="translate(0,17)"><tspan
               id="tspan250"
               sodipodi:role="line"
               y="0"
               x="0 4.0320001 10.08 18.992001 32.512001 36.240002">Item 6</tspan></text></g></g></g><g
       id="g254"><g
         clip-path="url(#clipPath260)"
         id="g256"><g
           clip-path="url(#clipPath266)"
           id="g262"><path
             id="path268"
             style="fill:#ffffff;fill-opacity:1;fill-rule:nonzero;stroke:none"
             d="M -10,446 H 534 V 346 H -10 Z" /></g></g></g><g
       id="g270"><g
         clip-path="url(#clipPath276)"
         id="g272"><g
           clip-path="url(#clipPath282)"
           id="g278"><path
             id="path284"
             style="fill:#0066cc;fill-opacity:1;fill-rule:nonzero;stroke:none"
             d="M -10,446 H 16 V 346 h -26 z" /></g></g></g><g
       id="g286"><g
         clip-path="url(#clipPath292)"
         id="g288"><g
           clip-path="url(#clipPath298)"
           id="g294"><path
             id="path300"
             style="fill:#151515;fill-opacity:1;fill-rule:nonzero;stroke:none"
             d="m 448,412 h 39.9937 V 379.0875 H 448 Z" /></g></g></g><g
       id="g302"><g
         clip-path="url(#clipPath308)"
         id="g304"><g
           transform="matrix(2,0,0,-2,32,420)"
           id="g310"><text
             id="text314"
             style="font-variant:normal;font-weight:500;font-size:16px;font-family:'Red Hat Text';-inkscape-font-specification:RedHatText-Medium;writing-mode:lr-tb;fill:#0066cc;fill-opacity:1;fill-rule:nonzero;stroke:none"
             transform="translate(0,17)"><tspan
               id="tspan312"
               sodipodi:role="line"
               y="0"
               x="0 4.4320002 11.056 20.224001 34.240002 37.84">Item 3</tspan></text></g></g></g><g
       id="g316"><g
         clip-path="url(#clipPath322)"
         id="g318"><g
           clip-path="url(#clipPath328)"
           id="g324"><path
             id="path330"
             style="fill:#ffffff;fill-opacity:1;fill-rule:nonzero;stroke:none"
             d="M -10,366 H 534 V 230 H -10 Z" /></g></g></g><g
       id="g332"><g
         clip-path="url(#clipPath338)"
         id="g334"><g
           clip-path="url(#clipPath344)"
           id="g340"><path
             id="path346"
             style="fill:#0066cc;fill-opacity:1;fill-rule:nonzero;stroke:none"
             d="M -10,366 H 16 V 230 h -26 z" /></g></g></g><g
       id="g348"><g
         clip-path="url(#clipPath354)"
         id="g350"><g
           transform="matrix(2,0,0,-2,32,340)"
           id="g356"><text
             id="text360"
             style="font-variant:normal;font-weight:normal;font-size:14px;font-family:'Red Hat Text';-inkscape-font-specification:RedHatText-Regular;writing-mode:lr-tb;fill:#6a6e73;fill-opacity:1;fill-rule:nonzero;stroke:none"
             transform="translate(0,14)"><tspan
               id="tspan358"
               sodipodi:role="line"
               y="0"
               x="0 7.1259999 12.418 17.346001 20.468 27.888 35.686001 43.414001 48.706001 56.504002 61.431999 64.694 69.986 78.120003 81.382004 88.746002 96.893997 105.042 108.304 111.426 114.548 122.276 130.07401 136.40199 139.664 142.786 150.51401 153.776 161.91 168.924 176.722 181.64999 186.578 189.7 197.84801 205.646 208.726">ctrl+enter to add lines in override. </tspan></text></g><g
           transform="matrix(2,0,0,-2,32,340)"
           id="g362"><text
             id="text366"
             style="font-variant:normal;font-weight:normal;font-size:14px;font-family:'Red Hat Text';-inkscape-font-specification:RedHatText-Regular;writing-mode:lr-tb;fill:#6a6e73;fill-opacity:1;fill-rule:nonzero;stroke:none"
             transform="translate(0,35)"><tspan
               id="tspan364"
               sodipodi:role="line"
               y="0"
               x="0 10.192 17.99 23.17 30.534 38.262001 41.383999 46.675999 49.938 57.666 65.463997 68.585999 76.734001 84.461998 89.753998 93.015999 96.138 102.466 105.728 111.034 116.214 119.336 126.154 133.952 142.10001">Default height is “fixed”</tspan></text></g></g></g></g></svg>
