<?xml version="1.0" encoding="UTF-8" standalone="no"?>
<svg
   xmlns:dc="http://purl.org/dc/elements/1.1/"
   xmlns:cc="http://creativecommons.org/ns#"
   xmlns:rdf="http://www.w3.org/1999/02/22-rdf-syntax-ns#"
   xmlns:svg="http://www.w3.org/2000/svg"
   xmlns="http://www.w3.org/2000/svg"
   xmlns:sodipodi="http://sodipodi.sourceforge.net/DTD/sodipodi-0.dtd"
   xmlns:inkscape="http://www.inkscape.org/namespaces/inkscape"
   sodipodi:docname="patternfly-template.pdf"
   viewBox="0 0 349.33334 561.33331"
   height="561.33331"
   width="349.33334"
   xml:space="preserve"
   id="svg2"
   version="1.1"><metadata
     id="metadata8"><rdf:RDF><cc:Work
         rdf:about=""><dc:format>image/svg+xml</dc:format><dc:type
           rdf:resource="http://purl.org/dc/dcmitype/StillImage" /></cc:Work></rdf:RDF></metadata><defs
     id="defs6"><clipPath
       id="clipPath20"
       clipPathUnits="userSpaceOnUse"><path
         id="path18"
         clip-rule="evenodd"
         d="M 0,421 H 262 V 381 H 0 Z" /></clipPath><clipPath
       id="clipPath26"
       clipPathUnits="userSpaceOnUse"><path
         id="path24"
         d="M 0,0 H 262 V 421 H 0 Z" /></clipPath><clipPath
       id="clipPath36"
       clipPathUnits="userSpaceOnUse"><path
         id="path34"
         clip-rule="evenodd"
         d="m 232.9859,396.2172 4.25,4.25 c 0.2938,0.2938 0.2938,0.7687 -0.003,1.0625 l -4.25,4.25 c -0.2906,0.2937 -0.7656,0.2937 -1.0594,0 l -0.7031,-0.7125 c -0.2937,-0.2906 -0.2937,-0.7656 0,-1.0594 l 3.0125,-3.0125 -3.0125,-3.0125 c -0.2937,-0.2906 -0.2937,-0.7656 0,-1.0594 l 0.7063,-0.7062 c 0.2906,-0.2938 0.7656,-0.2938 1.0593,0 z" /></clipPath><clipPath
       id="clipPath42"
       clipPathUnits="userSpaceOnUse"><path
         id="path40"
         d="M 0,0 H 262 V 421 H 0 Z" /></clipPath><clipPath
       id="clipPath52"
       clipPathUnits="userSpaceOnUse"><path
         id="path50"
         d="M 0,0 H 262 V 421 H 0 Z" /></clipPath><clipPath
       id="clipPath66"
       clipPathUnits="userSpaceOnUse"><path
         id="path64"
         clip-rule="evenodd"
         d="M 0,381 H 262 V 341 H 0 Z" /></clipPath><clipPath
       id="clipPath72"
       clipPathUnits="userSpaceOnUse"><path
         id="path70"
         d="M 0,0 H 262 V 421 H 0 Z" /></clipPath><clipPath
       id="clipPath82"
       clipPathUnits="userSpaceOnUse"><path
         id="path80"
         clip-rule="evenodd"
         d="m 232.9859,356.2172 4.25,4.25 c 0.2938,0.2938 0.2938,0.7687 -0.003,1.0625 l -4.25,4.25 c -0.2906,0.2937 -0.7656,0.2937 -1.0594,0 l -0.7031,-0.7125 c -0.2937,-0.2906 -0.2937,-0.7656 0,-1.0594 l 3.0125,-3.0125 -3.0125,-3.0125 c -0.2937,-0.2906 -0.2937,-0.7656 0,-1.0594 l 0.7063,-0.7062 c 0.2906,-0.2938 0.7656,-0.2938 1.0593,0 z" /></clipPath><clipPath
       id="clipPath88"
       clipPathUnits="userSpaceOnUse"><path
         id="path86"
         d="M 0,0 H 262 V 421 H 0 Z" /></clipPath><clipPath
       id="clipPath98"
       clipPathUnits="userSpaceOnUse"><path
         id="path96"
         d="M 0,0 H 262 V 421 H 0 Z" /></clipPath><clipPath
       id="clipPath112"
       clipPathUnits="userSpaceOnUse"><path
         id="path110"
         clip-rule="evenodd"
         d="M 0,120 H 262 V 80 H 0 Z" /></clipPath><clipPath
       id="clipPath118"
       clipPathUnits="userSpaceOnUse"><path
         id="path116"
         d="M 0,0 H 262 V 421 H 0 Z" /></clipPath><clipPath
       id="clipPath128"
       clipPathUnits="userSpaceOnUse"><path
         id="path126"
         clip-rule="evenodd"
         d="m 232.9859,95.2172 4.25,4.24999 c 0.2938,0.29376 0.2938,0.76871 -0.003,1.06251 l -4.25,4.25 c -0.2906,0.2937 -0.7656,0.2937 -1.0594,0 l -0.7031,-0.7125 c -0.2937,-0.2906 -0.2937,-0.7656 0,-1.0594 l 3.0125,-3.01247 -3.0125,-3.01251 c -0.2937,-0.29062 -0.2937,-0.76562 0,-1.05938 l 0.7063,-0.70624 c 0.2906,-0.29376 0.7656,-0.29376 1.0593,0 z" /></clipPath><clipPath
       id="clipPath134"
       clipPathUnits="userSpaceOnUse"><path
         id="path132"
         d="M 0,0 H 262 V 421 H 0 Z" /></clipPath><clipPath
       id="clipPath144"
       clipPathUnits="userSpaceOnUse"><path
         id="path142"
         d="M 0,0 H 262 V 421 H 0 Z" /></clipPath><clipPath
       id="clipPath158"
       clipPathUnits="userSpaceOnUse"><path
         id="path156"
         clip-rule="evenodd"
         d="M 0,80 H 262 V 40 H 0 Z" /></clipPath><clipPath
       id="clipPath164"
       clipPathUnits="userSpaceOnUse"><path
         id="path162"
         d="M 0,0 H 262 V 421 H 0 Z" /></clipPath><clipPath
       id="clipPath174"
       clipPathUnits="userSpaceOnUse"><path
         id="path172"
         clip-rule="evenodd"
         d="m 232.9859,55.2172 4.25,4.24999 c 0.2938,0.29376 0.2938,0.76874 -0.003,1.0625 l -4.25,4.24999 c -0.2906,0.29376 -0.7656,0.29376 -1.0594,0 l -0.7031,-0.71249 c -0.2937,-0.29062 -0.2937,-0.76563 0,-1.05939 l 3.0125,-3.01247 -3.0125,-3.01251 c -0.2937,-0.29062 -0.2937,-0.76562 0,-1.05938 l 0.7063,-0.70624 c 0.2906,-0.29376 0.7656,-0.29376 1.0593,0 z" /></clipPath><clipPath
       id="clipPath180"
       clipPathUnits="userSpaceOnUse"><path
         id="path178"
         d="M 0,0 H 262 V 421 H 0 Z" /></clipPath><clipPath
       id="clipPath190"
       clipPathUnits="userSpaceOnUse"><path
         id="path188"
         d="M 0,0 H 262 V 421 H 0 Z" /></clipPath><clipPath
       id="clipPath204"
       clipPathUnits="userSpaceOnUse"><path
         id="path202"
         clip-rule="evenodd"
         d="M 0,341 H 262 V 301 H 0 Z" /></clipPath><clipPath
       id="clipPath210"
       clipPathUnits="userSpaceOnUse"><path
         id="path208"
         d="M 0,0 H 262 V 421 H 0 Z" /></clipPath><clipPath
       id="clipPath220"
       clipPathUnits="userSpaceOnUse"><path
         id="path218"
         clip-rule="evenodd"
         d="M 0,341 H 3 V 301 H 0 Z" /></clipPath><clipPath
       id="clipPath226"
       clipPathUnits="userSpaceOnUse"><path
         id="path224"
         d="M 0,0 H 262 V 421 H 0 Z" /></clipPath><clipPath
       id="clipPath236"
       clipPathUnits="userSpaceOnUse"><path
         id="path234"
         clip-rule="evenodd"
         d="m 234.5266,317.7641 4.2499,4.25 c 0.2938,0.2906 0.2938,0.7656 0,1.0593 l -0.7062,0.7063 c -0.2906,0.2937 -0.7656,0.2937 -1.0594,0 l -3.0125,-3.0125 -3.0125,3.0125 c -0.2906,0.2937 -0.7656,0.2937 -1.0593,0 l -0.7063,-0.7063 c -0.2937,-0.2906 -0.2937,-0.7656 0,-1.0593 l 4.25,-4.25 c 0.2938,-0.2938 0.7687,-0.2938 1.0563,0 z" /></clipPath><clipPath
       id="clipPath242"
       clipPathUnits="userSpaceOnUse"><path
         id="path240"
         d="M 0,0 H 262 V 421 H 0 Z" /></clipPath><clipPath
       id="clipPath252"
       clipPathUnits="userSpaceOnUse"><path
         id="path250"
         d="M 0,0 H 262 V 421 H 0 Z" /></clipPath><clipPath
       id="clipPath266"
       clipPathUnits="userSpaceOnUse"><path
         id="path264"
         clip-rule="evenodd"
         d="M 0,301 H 262 V 120 H 0 Z" /></clipPath><clipPath
       id="clipPath272"
       clipPathUnits="userSpaceOnUse"><path
         id="path270"
         d="M 0,0 H 262 V 421 H 0 Z" /></clipPath><clipPath
       id="clipPath282"
       clipPathUnits="userSpaceOnUse"><path
         id="path280"
         clip-rule="evenodd"
         d="M 0,301 H 3 V 120 H 0 Z" /></clipPath><clipPath
       id="clipPath288"
       clipPathUnits="userSpaceOnUse"><path
         id="path286"
         d="M 0,0 H 262 V 421 H 0 Z" /></clipPath><clipPath
       id="clipPath298"
       clipPathUnits="userSpaceOnUse"><path
         id="path296"
         d="M 16,128 H 246 V 293 H 16 Z" /></clipPath><clipPath
       id="clipPath366"
       clipPathUnits="userSpaceOnUse"><path
         id="path364"
         clip-rule="evenodd"
         d="M 0,40 H 262 V 0 H 0 Z" /></clipPath><clipPath
       id="clipPath372"
       clipPathUnits="userSpaceOnUse"><path
         id="path370"
         d="M 0,0 H 262 V 421 H 0 Z" /></clipPath><clipPath
       id="clipPath382"
       clipPathUnits="userSpaceOnUse"><path
         id="path380"
         clip-rule="evenodd"
         d="m 232.9859,15.2172 4.25,4.24999 c 0.2938,0.29376 0.2938,0.76874 -0.003,1.0625 l -4.25,4.24999 c -0.2906,0.29376 -0.7656,0.29376 -1.0594,0 l -0.7031,-0.71249 c -0.2937,-0.29062 -0.2937,-0.76563 0,-1.05939 l 3.0125,-3.01247 -3.0125,-3.01251 c -0.2937,-0.29062 -0.2937,-0.76562 0,-1.05938 l 0.7063,-0.70624 c 0.2906,-0.29376 0.7656,-0.29376 1.0593,0 z" /></clipPath><clipPath
       id="clipPath388"
       clipPathUnits="userSpaceOnUse"><path
         id="path386"
         d="M 0,0 H 262 V 421 H 0 Z" /></clipPath><clipPath
       id="clipPath398"
       clipPathUnits="userSpaceOnUse"><path
         id="path396"
         d="M 0,0 H 262 V 421 H 0 Z" /></clipPath></defs><sodipodi:namedview
     id="namedview4"
     inkscape:window-height="480"
     inkscape:window-width="640"
     inkscape:pageshadow="2"
     inkscape:pageopacity="0"
     guidetolerance="10"
     gridtolerance="10"
     objecttolerance="10"
     borderopacity="1"
     bordercolor="#666666"
     pagecolor="#ffffff" /><g
     transform="matrix(1.3333333,0,0,-1.3333333,0,561.33333)"
     inkscape:label="patternfly-template"
     inkscape:groupmode="layer"
     id="g10"><g
       id="g12" /><g
       id="g14"><g
         clip-path="url(#clipPath20)"
         id="g16"><g
           clip-path="url(#clipPath26)"
           id="g22"><path
             id="path28"
             style="fill:#ffffff;fill-opacity:1;fill-rule:nonzero;stroke:none"
             d="M -5,426 H 267 V 376 H -5 Z" /></g></g></g><g
       id="g30"><g
         clip-path="url(#clipPath36)"
         id="g32"><g
           clip-path="url(#clipPath42)"
           id="g38"><path
             id="path44"
             style="fill:#151515;fill-opacity:1;fill-rule:nonzero;stroke:none"
             d="m 226,411 h 16.4558 V 390.9969 H 226 Z" /></g></g></g><g
       id="g46"><g
         clip-path="url(#clipPath52)"
         id="g48"><g
           transform="matrix(1,0,0,-1,16,413)"
           id="g54"><text
             id="text58"
             style="font-variant:normal;font-weight:normal;font-size:16px;font-family:'Red Hat Text';-inkscape-font-specification:RedHatText-Regular;writing-mode:lr-tb;fill:#151515;fill-opacity:1;fill-rule:nonzero;stroke:none"
             transform="translate(0,17)"><tspan
               id="tspan56"
               sodipodi:role="line"
               y="0"
               x="0 4.0320001 10.08 18.992001 32.512001 36.240002">Item 1</tspan></text></g></g></g><g
       id="g60"><g
         clip-path="url(#clipPath66)"
         id="g62"><g
           clip-path="url(#clipPath72)"
           id="g68"><path
             id="path74"
             style="fill:#ffffff;fill-opacity:1;fill-rule:nonzero;stroke:none"
             d="M -5,386 H 267 V 336 H -5 Z" /></g></g></g><g
       id="g76"><g
         clip-path="url(#clipPath82)"
         id="g78"><g
           clip-path="url(#clipPath88)"
           id="g84"><path
             id="path90"
             style="fill:#151515;fill-opacity:1;fill-rule:nonzero;stroke:none"
             d="m 226,371 h 16.4558 V 350.9969 H 226 Z" /></g></g></g><g
       id="g92"><g
         clip-path="url(#clipPath98)"
         id="g94"><g
           transform="matrix(1,0,0,-1,16,373)"
           id="g100"><text
             id="text104"
             style="font-variant:normal;font-weight:normal;font-size:16px;font-family:'Red Hat Text';-inkscape-font-specification:RedHatText-Regular;writing-mode:lr-tb;fill:#151515;fill-opacity:1;fill-rule:nonzero;stroke:none"
             transform="translate(0,17)"><tspan
               id="tspan102"
               sodipodi:role="line"
               y="0"
               x="0 4.0320001 10.08 18.992001 32.512001 36.240002">Item 2</tspan></text></g></g></g><g
       id="g106"><g
         clip-path="url(#clipPath112)"
         id="g108"><g
           clip-path="url(#clipPath118)"
           id="g114"><path
             id="path120"
             style="fill:#ffffff;fill-opacity:1;fill-rule:nonzero;stroke:none"
             d="M -5,125 H 267 V 75 H -5 Z" /></g></g></g><g
       id="g122"><g
         clip-path="url(#clipPath128)"
         id="g124"><g
           clip-path="url(#clipPath134)"
           id="g130"><path
             id="path136"
             style="fill:#151515;fill-opacity:1;fill-rule:nonzero;stroke:none"
             d="m 226,110 h 16.4558 V 89.99688 H 226 Z" /></g></g></g><g
       id="g138"><g
         clip-path="url(#clipPath144)"
         id="g140"><g
           transform="matrix(1,0,0,-1,16,112)"
           id="g146"><text
             id="text150"
             style="font-variant:normal;font-weight:normal;font-size:16px;font-family:'Red Hat Text';-inkscape-font-specification:RedHatText-Regular;writing-mode:lr-tb;fill:#151515;fill-opacity:1;fill-rule:nonzero;stroke:none"
             transform="translate(0,17)"><tspan
               id="tspan148"
               sodipodi:role="line"
               y="0"
               x="0 4.0320001 10.08 18.992001 32.512001 36.240002">Item 4</tspan></text></g></g></g><g
       id="g152"><g
         clip-path="url(#clipPath158)"
         id="g154"><g
           clip-path="url(#clipPath164)"
           id="g160"><path
             id="path166"
             style="fill:#ffffff;fill-opacity:1;fill-rule:nonzero;stroke:none"
             d="M -5,85 H 267 V 35 H -5 Z" /></g></g></g><g
       id="g168"><g
         clip-path="url(#clipPath174)"
         id="g170"><g
           clip-path="url(#clipPath180)"
           id="g176"><path
             id="path182"
             style="fill:#151515;fill-opacity:1;fill-rule:nonzero;stroke:none"
             d="m 226,70 h 16.4558 V 49.99688 H 226 Z" /></g></g></g><g
       id="g184"><g
         clip-path="url(#clipPath190)"
         id="g186"><g
           transform="matrix(1,0,0,-1,16,72)"
           id="g192"><text
             id="text196"
             style="font-variant:normal;font-weight:normal;font-size:16px;font-family:'Red Hat Text';-inkscape-font-specification:RedHatText-Regular;writing-mode:lr-tb;fill:#151515;fill-opacity:1;fill-rule:nonzero;stroke:none"
             transform="translate(0,17)"><tspan
               id="tspan194"
               sodipodi:role="line"
               y="0"
               x="0 4.0320001 10.08 18.992001 32.512001 36.240002">Item 5</tspan></text></g></g></g><g
       id="g198"><g
         clip-path="url(#clipPath204)"
         id="g200"><g
           clip-path="url(#clipPath210)"
           id="g206"><path
             id="path212"
             style="fill:#ffffff;fill-opacity:1;fill-rule:nonzero;stroke:none"
             d="M -5,346 H 267 V 296 H -5 Z" /></g></g></g><g
       id="g214"><g
         clip-path="url(#clipPath220)"
         id="g216"><g
           clip-path="url(#clipPath226)"
           id="g222"><path
             id="path228"
             style="fill:#0066cc;fill-opacity:1;fill-rule:nonzero;stroke:none"
             d="M -5,346 H 8 V 296 H -5 Z" /></g></g></g><g
       id="g230"><g
         clip-path="url(#clipPath236)"
         id="g232"><g
           clip-path="url(#clipPath242)"
           id="g238"><path
             id="path244"
             style="fill:#151515;fill-opacity:1;fill-rule:nonzero;stroke:none"
             d="m 224,329 h 19.9969 V 312.5438 H 224 Z" /></g></g></g><g
       id="g246"><g
         clip-path="url(#clipPath252)"
         id="g248"><g
           transform="matrix(1,0,0,-1,16,333)"
           id="g254"><text
             id="text258"
             style="font-variant:normal;font-weight:500;font-size:16px;font-family:'Red Hat Text';-inkscape-font-specification:RedHatText-Medium;writing-mode:lr-tb;fill:#0066cc;fill-opacity:1;fill-rule:nonzero;stroke:none"
             transform="translate(0,17)"><tspan
               id="tspan256"
               sodipodi:role="line"
               y="0"
               x="0 4.4320002 11.056 20.224001 34.240002 37.84">Item 3</tspan></text></g></g></g><g
       id="g260"><g
         clip-path="url(#clipPath266)"
         id="g262"><g
           clip-path="url(#clipPath272)"
           id="g268"><path
             id="path274"
             style="fill:#ffffff;fill-opacity:1;fill-rule:nonzero;stroke:none"
             d="M -5,306 H 267 V 115 H -5 Z" /></g></g></g><g
       id="g276"><g
         clip-path="url(#clipPath282)"
         id="g278"><g
           clip-path="url(#clipPath288)"
           id="g284"><path
             id="path290"
             style="fill:#0066cc;fill-opacity:1;fill-rule:nonzero;stroke:none"
             d="M -5,306 H 8 V 115 H -5 Z" /></g></g></g><g
       id="g292"><g
         clip-path="url(#clipPath298)"
         id="g294"><g
           transform="matrix(1,0,0,-1,16,293)"
           id="g300"><text
             id="text304"
             style="font-variant:normal;font-weight:normal;font-size:14px;font-family:'Red Hat Text';-inkscape-font-specification:RedHatText-Regular;writing-mode:lr-tb;fill:#6a6e73;fill-opacity:1;fill-rule:nonzero;stroke:none"
             transform="translate(0,14)"><tspan
               id="tspan302"
               sodipodi:role="line"
               y="0"
               x="0 8.6379995 16.365999 19.488001 25.816 29.077999 32.200001 38.528 41.790001 49.153999 56.882 60.144001 67.942001 74.760002 82.124001 93.954002 102.116 105.238 113.036 116.298 124.432 129.612 132.87399 138.054 141.17599 148.90401 152.026 160.174 163.436 171.164 178.96201 182.084 190.23199 197.96001 203.252">This is an example of fluid height </tspan></text></g><g
           transform="matrix(1,0,0,-1,16,293)"
           id="g306"><text
             id="text310"
             style="font-variant:normal;font-weight:normal;font-size:14px;font-family:'Red Hat Text';-inkscape-font-specification:RedHatText-Regular;writing-mode:lr-tb;fill:#6a6e73;fill-opacity:1;fill-rule:nonzero;stroke:none"
             transform="translate(0,35)"><tspan
               id="tspan308"
               sodipodi:role="line"
               y="0"
               x="0 7.3639998 14.49 21.615999 29.75 34.678001 42.826 45.948002 54.082001 61.810001 64.889999 68.152 76.790001 84.517998 87.639999 93.968002 97.230003 100.352 106.68 109.942 117.306 125.034 128.29601 136.09399 142.912 150.276 162.106 170.26801 173.39 181.188 184.45 192.584 197.76401 201.026 206.20599 209.328 217.056 220.17799 228.326">accordion. This is an example of fluid </tspan></text></g><g
           transform="matrix(1,0,0,-1,16,293)"
           id="g312"><text
             id="text316"
             style="font-variant:normal;font-weight:normal;font-size:14px;font-family:'Red Hat Text';-inkscape-font-specification:RedHatText-Regular;writing-mode:lr-tb;fill:#6a6e73;fill-opacity:1;fill-rule:nonzero;stroke:none"
             transform="translate(0,56)"><tspan
               id="tspan314"
               sodipodi:role="line"
               y="0"
               x="0 7.7280002 15.526 18.648001 26.796 34.523998 39.816002 43.077999 50.442001 57.568001 64.694 72.828003 77.755997 85.903999 89.026001 97.160004 104.888 107.968 111.23 119.868 127.596 130.718 137.04601 140.308 143.42999 149.758 153.02 160.384 168.112 171.37399 179.172 185.99001 193.354 205.18401 213.34599 216.468 224.26601">height accordion. This is an example </tspan></text></g><g
           transform="matrix(1,0,0,-1,16,293)"
           id="g318"><text
             id="text322"
             style="font-variant:normal;font-weight:normal;font-size:14px;font-family:'Red Hat Text';-inkscape-font-specification:RedHatText-Regular;writing-mode:lr-tb;fill:#6a6e73;fill-opacity:1;fill-rule:nonzero;stroke:none"
             transform="translate(0,77)"><tspan
               id="tspan320"
               sodipodi:role="line"
               y="0"
               x="0 8.1339998 13.314 16.576 21.756001 24.878 32.605999 35.728001 43.875999 47.138 54.866001 62.664001 65.786003 73.933998 81.662003 86.954002 90.216003 97.580002 104.706 111.832 119.966 124.894 133.04201 136.164 144.298 152.026 155.106 158.368 167.006 174.73399 177.856 184.18401 187.446 190.56799 196.896 200.158 207.522 215.25">of fluid height accordion. This is an </tspan></text></g><g
           transform="matrix(1,0,0,-1,16,293)"
           id="g324"><text
             id="text328"
             style="font-variant:normal;font-weight:normal;font-size:14px;font-family:'Red Hat Text';-inkscape-font-specification:RedHatText-Regular;writing-mode:lr-tb;fill:#6a6e73;fill-opacity:1;fill-rule:nonzero;stroke:none"
             transform="translate(0,98)"><tspan
               id="tspan326"
               sodipodi:role="line"
               y="0"
               x="0 7.7979999 14.616 21.98 33.810001 41.972 45.094002 52.891998 56.153999 64.288002 69.468002 72.730003 77.910004 81.031998 88.760002 91.882004 100.03 103.292 111.02 118.818 121.94 130.088 137.81599 143.108">example of fluid height.</tspan></text></g><g
           transform="matrix(1,0,0,-1,16,293)"
           id="g330"><text
             id="text334"
             style="font-variant:normal;font-weight:normal;font-size:14px;font-family:'Red Hat Text';-inkscape-font-specification:RedHatText-Regular;writing-mode:lr-tb;fill:#6a6e73;fill-opacity:1;fill-rule:nonzero;stroke:none"
             transform="translate(0,119)"><tspan
               id="tspan332"
               sodipodi:role="line"
               y="0"
               x="0 8.6379995 16.365999 19.488001 25.816 29.077999 32.200001 38.528 41.790001 49.153999 56.882 60.144001 67.942001 74.760002 82.124001 93.954002 102.116 105.238 113.036 116.298 124.432 129.612 132.87399 138.054 141.17599 148.90401 152.026 160.174 163.436 171.164 178.96201 182.084 190.23199 197.96001 203.252">This is an example of fluid height </tspan></text></g><g
           transform="matrix(1,0,0,-1,16,293)"
           id="g336"><text
             id="text340"
             style="font-variant:normal;font-weight:normal;font-size:14px;font-family:'Red Hat Text';-inkscape-font-specification:RedHatText-Regular;writing-mode:lr-tb;fill:#6a6e73;fill-opacity:1;fill-rule:nonzero;stroke:none"
             transform="translate(0,140)"><tspan
               id="tspan338"
               sodipodi:role="line"
               y="0"
               x="0 7.3639998 14.49 21.615999 29.75 34.678001 42.826 45.948002 53.312 61.040001 64.120003 72.758003 80.486 83.608002 89.935997 93.197998 96.32 102.648 105.91 113.274 121.002 124.264 132.062 138.88 146.244 158.07401 166.23599 169.358 177.15601 180.418 188.552 193.73199 196.994 202.174 205.29601 213.024 216.146 224.29401">accordian.This is an example of fluid </tspan></text></g><g
           transform="matrix(1,0,0,-1,16,293)"
           id="g342"><text
             id="text346"
             style="font-variant:normal;font-weight:normal;font-size:14px;font-family:'Red Hat Text';-inkscape-font-specification:RedHatText-Regular;writing-mode:lr-tb;fill:#6a6e73;fill-opacity:1;fill-rule:nonzero;stroke:none"
             transform="translate(0,161)"><tspan
               id="tspan344"
               sodipodi:role="line"
               y="0"
               x="0 7.7280002 15.526 18.648001 26.796 34.523998 39.816002 43.077999 50.442001 57.568001 64.694 72.828003 77.755997 85.903999 89.026001 97.160004 104.888 107.968 111.23 119.868 127.596 130.718 137.04601 140.308 143.42999 149.758 153.02 160.384 168.112 171.37399 179.172 185.99001 193.354 205.18401 213.34599 216.468 224.26601">height accordion. This is an example </tspan></text></g><g
           transform="matrix(1,0,0,-1,16,293)"
           id="g348"><text
             id="text352"
             style="font-variant:normal;font-weight:normal;font-size:14px;font-family:'Red Hat Text';-inkscape-font-specification:RedHatText-Regular;writing-mode:lr-tb;fill:#6a6e73;fill-opacity:1;fill-rule:nonzero;stroke:none"
             transform="translate(0,182)"><tspan
               id="tspan350"
               sodipodi:role="line"
               y="0"
               x="0 8.1339998 13.314 16.576 21.756001 24.878 32.605999 35.728001 43.875999 47.138 54.866001 62.664001 65.786003 73.933998 81.662003 86.954002 90.216003 97.580002 104.706 111.832 119.966 124.894 133.04201 136.164 144.298 152.026 155.106 158.368 167.006 174.73399 177.856 184.18401 187.446 190.56799 196.896 200.158 207.522 215.25">of fluid height accordion. This is an </tspan></text></g><g
           transform="matrix(1,0,0,-1,16,293)"
           id="g354"><text
             id="text358"
             style="font-variant:normal;font-weight:normal;font-size:14px;font-family:'Red Hat Text';-inkscape-font-specification:RedHatText-Regular;writing-mode:lr-tb;fill:#6a6e73;fill-opacity:1;fill-rule:nonzero;stroke:none"
             transform="translate(0,203)"><tspan
               id="tspan356"
               sodipodi:role="line"
               y="0"
               x="0 7.7979999 14.616 21.98 33.810001 41.972 45.094002 52.891998 56.153999 64.288002 69.468002 72.730003 77.910004 81.031998 88.760002 91.882004 100.03 103.292 111.02 118.818 121.94 130.088 137.81599 143.108">example of fluid height.</tspan></text></g></g></g><g
       id="g360"><g
         clip-path="url(#clipPath366)"
         id="g362"><g
           clip-path="url(#clipPath372)"
           id="g368"><path
             id="path374"
             style="fill:#ffffff;fill-opacity:1;fill-rule:nonzero;stroke:none"
             d="M -5,45 H 267 V -5 H -5 Z" /></g></g></g><g
       id="g376"><g
         clip-path="url(#clipPath382)"
         id="g378"><g
           clip-path="url(#clipPath388)"
           id="g384"><path
             id="path390"
             style="fill:#151515;fill-opacity:1;fill-rule:nonzero;stroke:none"
             d="m 226,30 h 16.4558 V 9.996881 H 226 Z" /></g></g></g><g
       id="g392"><g
         clip-path="url(#clipPath398)"
         id="g394"><g
           transform="matrix(1,0,0,-1,16,32)"
           id="g400"><text
             id="text404"
             style="font-variant:normal;font-weight:normal;font-size:16px;font-family:'Red Hat Text';-inkscape-font-specification:RedHatText-Regular;writing-mode:lr-tb;fill:#151515;fill-opacity:1;fill-rule:nonzero;stroke:none"
             transform="translate(0,17)"><tspan
               id="tspan402"
               sodipodi:role="line"
               y="0"
               x="0 4.0320001 10.08 18.992001 32.512001 36.240002">Item 6</tspan></text></g></g></g></g></svg>
