<?xml version="1.0" encoding="UTF-8" standalone="no"?>
<svg
   xmlns:dc="http://purl.org/dc/elements/1.1/"
   xmlns:cc="http://creativecommons.org/ns#"
   xmlns:rdf="http://www.w3.org/1999/02/22-rdf-syntax-ns#"
   xmlns:svg="http://www.w3.org/2000/svg"
   xmlns="http://www.w3.org/2000/svg"
   xmlns:sodipodi="http://sodipodi.sourceforge.net/DTD/sodipodi-0.dtd"
   xmlns:inkscape="http://www.inkscape.org/namespaces/inkscape"
   sodipodi:docname="patternfly-template.pdf"
   viewBox="0 0 814.66669 437.33334"
   height="437.33334"
   width="814.66669"
   xml:space="preserve"
   id="svg2"
   version="1.1"><metadata
     id="metadata8"><rdf:RDF><cc:Work
         rdf:about=""><dc:format>image/svg+xml</dc:format><dc:type
           rdf:resource="http://purl.org/dc/dcmitype/StillImage" /></cc:Work></rdf:RDF></metadata><defs
     id="defs6"><clipPath
       id="clipPath20"
       clipPathUnits="userSpaceOnUse"><path
         id="path18"
         d="M 0,0 H 611 V 328 H 0 Z" /></clipPath><clipPath
       id="clipPath34"
       clipPathUnits="userSpaceOnUse"><path
         id="path32"
         clip-rule="evenodd"
         d="M 48,107 V 208 H 251 V 107 H 160 L 149.6055,96 139,107 Z" /></clipPath><clipPath
       id="clipPath40"
       clipPathUnits="userSpaceOnUse"><path
         id="path38"
         d="M 0,0 H 611 V 328 H 0 Z" /></clipPath><clipPath
       id="clipPath50"
       clipPathUnits="userSpaceOnUse"><path
         id="path48"
         d="m 64,120 h 171 v 72 H 64 Z" /></clipPath><clipPath
       id="clipPath76"
       clipPathUnits="userSpaceOnUse"><path
         id="path74"
         clip-rule="evenodd"
         d="M 48,208 H 251 V 192 H 48 Z" /></clipPath><clipPath
       id="clipPath82"
       clipPathUnits="userSpaceOnUse"><path
         id="path80"
         d="M 0,0 H 611 V 328 H 0 Z" /></clipPath><clipPath
       id="clipPath92"
       clipPathUnits="userSpaceOnUse"><path
         id="path90"
         clip-rule="evenodd"
         d="M 48,208 H 251 V 192 H 48 Z" /></clipPath><clipPath
       id="clipPath98"
       clipPathUnits="userSpaceOnUse"><path
         id="path96"
         d="M 0,0 H 611 V 328 H 0 Z" /></clipPath><clipPath
       id="clipPath110"
       clipPathUnits="userSpaceOnUse"><path
         id="path108"
         clip-rule="evenodd"
         d="M 48,123 H 251 V 107 H 48 Z" /></clipPath><clipPath
       id="clipPath116"
       clipPathUnits="userSpaceOnUse"><path
         id="path114"
         d="M 0,0 H 611 V 328 H 0 Z" /></clipPath><clipPath
       id="clipPath126"
       clipPathUnits="userSpaceOnUse"><path
         id="path124"
         clip-rule="evenodd"
         d="M 48,123 H 251 V 107 H 48 Z" /></clipPath><clipPath
       id="clipPath132"
       clipPathUnits="userSpaceOnUse"><path
         id="path130"
         d="M 0,0 H 611 V 328 H 0 Z" /></clipPath><clipPath
       id="clipPath144"
       clipPathUnits="userSpaceOnUse"><path
         id="path142"
         clip-rule="evenodd"
         d="M 48,192 H 64 V 123 H 48 Z" /></clipPath><clipPath
       id="clipPath150"
       clipPathUnits="userSpaceOnUse"><path
         id="path148"
         d="M 0,0 H 611 V 328 H 0 Z" /></clipPath><clipPath
       id="clipPath160"
       clipPathUnits="userSpaceOnUse"><path
         id="path158"
         clip-rule="evenodd"
         d="M 48,192 H 64 V 123 H 48 Z" /></clipPath><clipPath
       id="clipPath166"
       clipPathUnits="userSpaceOnUse"><path
         id="path164"
         d="M 0,0 H 611 V 328 H 0 Z" /></clipPath><clipPath
       id="clipPath178"
       clipPathUnits="userSpaceOnUse"><path
         id="path176"
         clip-rule="evenodd"
         d="m 235,192 h 16 v -69 h -16 z" /></clipPath><clipPath
       id="clipPath184"
       clipPathUnits="userSpaceOnUse"><path
         id="path182"
         d="M 0,0 H 611 V 328 H 0 Z" /></clipPath><clipPath
       id="clipPath194"
       clipPathUnits="userSpaceOnUse"><path
         id="path192"
         clip-rule="evenodd"
         d="m 235,192 h 16 v -69 h -16 z" /></clipPath><clipPath
       id="clipPath200"
       clipPathUnits="userSpaceOnUse"><path
         id="path198"
         d="M 0,0 H 611 V 328 H 0 Z" /></clipPath></defs><sodipodi:namedview
     id="namedview4"
     inkscape:window-height="480"
     inkscape:window-width="640"
     inkscape:pageshadow="2"
     inkscape:pageopacity="0"
     guidetolerance="10"
     gridtolerance="10"
     objecttolerance="10"
     borderopacity="1"
     bordercolor="#666666"
     pagecolor="#ffffff" /><g
     transform="matrix(1.3333333,0,0,-1.3333333,0,437.33333)"
     inkscape:label="patternfly-template"
     inkscape:groupmode="layer"
     id="g10"><g
       id="g12" /><g
       id="g14"><g
         clip-path="url(#clipPath20)"
         id="g16"><g
           transform="matrix(1,0,0,-1,48,280)"
           id="g22"><text
             id="text26"
             style="font-variant:normal;font-weight:500;font-size:36px;font-family:'Red Hat Display';-inkscape-font-specification:RedHatDisplay-Medium;writing-mode:lr-tb;fill:#ff00ff;fill-opacity:1;fill-rule:nonzero;stroke:none"
             transform="translate(0,35.8)"><tspan
               id="tspan24"
               sodipodi:role="line"
               y="0"
               x="0 22.716 44.352001 65.987999 73.835999 87.839996 95.688004">Tooltip</tspan></text></g></g></g><g
       id="g28"><g
         clip-path="url(#clipPath34)"
         id="g30"><g
           clip-path="url(#clipPath40)"
           id="g36"><path
             id="path42"
             style="fill:#151515;fill-opacity:1;fill-rule:nonzero;stroke:none"
             d="M 43,213 H 256 V 91 H 43 Z" /></g></g></g><g
       id="g44"><g
         clip-path="url(#clipPath50)"
         id="g46"><g
           transform="matrix(1,0,0,-1,64,192)"
           id="g52"><text
             id="text56"
             style="font-variant:normal;font-weight:normal;font-size:14px;font-family:'Red Hat Text';-inkscape-font-specification:RedHatText-Regular;writing-mode:lr-tb;fill:#ffffff;fill-opacity:1;fill-rule:nonzero;stroke:none"
             transform="translate(5.756,14)"><tspan
               id="tspan54"
               sodipodi:role="line"
               y="0"
               x="0 8.6379995 16.365999 19.488001 25.816 29.077999 32.200001 38.528 41.790001 47.082001 54.810001 62.608002 65.870003 71.162003 79.295998 87.43 90.552002 95.844002 98.966003 107.128 110.39 117.516 125.65 133.37801 138.67 146.468 154.196 159.48801">This is the tooltip content </tspan></text></g><g
           transform="matrix(1,0,0,-1,64,192)"
           id="g58"><text
             id="text62"
             style="font-variant:normal;font-weight:normal;font-size:14px;font-family:'Red Hat Text';-inkscape-font-specification:RedHatText-Regular;writing-mode:lr-tb;fill:#ffffff;fill-opacity:1;fill-rule:nonzero;stroke:none"
             transform="translate(7.779,35)"><tspan
               id="tspan60"
               sodipodi:role="line"
               y="0"
               x="0 5.2919998 13.02 20.384001 25.676001 28.938 36.063999 43.428001 51.155998 54.417999 64.190002 69.117996 76.482002 84.643997 87.905998 93.197998 101.332 104.594 111.958 118.286 121.548 133.37801 140.742 148.47 155.442">that can wrap to as many </tspan></text></g><g
           transform="matrix(1,0,0,-1,64,192)"
           id="g64"><text
             id="text68"
             style="font-variant:normal;font-weight:normal;font-size:14px;font-family:'Red Hat Text';-inkscape-font-specification:RedHatText-Regular;writing-mode:lr-tb;fill:#ffffff;fill-opacity:1;fill-rule:nonzero;stroke:none"
             transform="translate(38.635,56)"><tspan
               id="tspan66"
               sodipodi:role="line"
               y="0"
               x="0 3.122 6.244 13.972 21.77 28.098 31.360001 39.088001 46.886002 54.012001 61.810001 68.138 74.466003 81.830002 86.758003 93.730003">lines necessary </tspan></text></g></g></g><g
       id="g70"><g
         clip-path="url(#clipPath76)"
         id="g72"><g
           clip-path="url(#clipPath82)"
           id="g78"><path
             id="path84"
             style="fill:#3f9c35;fill-opacity:0.9;fill-rule:nonzero;stroke:none"
             d="M 48,208 H 251 V 192 H 48 Z" /></g></g></g><g
       id="g86"><g
         clip-path="url(#clipPath92)"
         id="g88"><g
           clip-path="url(#clipPath98)"
           id="g94"><g
             transform="matrix(1,0,0,-1,48,208)"
             id="g100"><path
               id="path102"
               style="fill:none;stroke:#418a38;stroke-width:2;stroke-linecap:butt;stroke-linejoin:miter;stroke-miterlimit:10;stroke-dasharray:none;stroke-opacity:1"
               d="M 0,0 H 203 V 16 H 0 Z" /></g></g></g></g><g
       id="g104"><g
         clip-path="url(#clipPath110)"
         id="g106"><g
           clip-path="url(#clipPath116)"
           id="g112"><path
             id="path118"
             style="fill:#3f9c35;fill-opacity:0.9;fill-rule:nonzero;stroke:none"
             d="M 48,123 H 251 V 107 H 48 Z" /></g></g></g><g
       id="g120"><g
         clip-path="url(#clipPath126)"
         id="g122"><g
           clip-path="url(#clipPath132)"
           id="g128"><g
             transform="matrix(1,0,0,-1,48,123)"
             id="g134"><path
               id="path136"
               style="fill:none;stroke:#418a38;stroke-width:2;stroke-linecap:butt;stroke-linejoin:miter;stroke-miterlimit:10;stroke-dasharray:none;stroke-opacity:1"
               d="M 0,0 H 203 V 16 H 0 Z" /></g></g></g></g><g
       id="g138"><g
         clip-path="url(#clipPath144)"
         id="g140"><g
           clip-path="url(#clipPath150)"
           id="g146"><path
             id="path152"
             style="fill:#3f9c35;fill-opacity:0.9;fill-rule:nonzero;stroke:none"
             d="M 48,192 H 64 V 123 H 48 Z" /></g></g></g><g
       id="g154"><g
         clip-path="url(#clipPath160)"
         id="g156"><g
           clip-path="url(#clipPath166)"
           id="g162"><g
             transform="matrix(1,0,0,-1,48,192)"
             id="g168"><path
               id="path170"
               style="fill:none;stroke:#418a38;stroke-width:2;stroke-linecap:butt;stroke-linejoin:miter;stroke-miterlimit:10;stroke-dasharray:none;stroke-opacity:1"
               d="M 0,0 H 16 V 69 H 0 Z" /></g></g></g></g><g
       id="g172"><g
         clip-path="url(#clipPath178)"
         id="g174"><g
           clip-path="url(#clipPath184)"
           id="g180"><path
             id="path186"
             style="fill:#3f9c35;fill-opacity:0.9;fill-rule:nonzero;stroke:none"
             d="m 235,192 h 16 v -69 h -16 z" /></g></g></g><g
       id="g188"><g
         clip-path="url(#clipPath194)"
         id="g190"><g
           clip-path="url(#clipPath200)"
           id="g196"><g
             transform="matrix(1,0,0,-1,235,192)"
             id="g202"><path
               id="path204"
               style="fill:none;stroke:#418a38;stroke-width:2;stroke-linecap:butt;stroke-linejoin:miter;stroke-miterlimit:10;stroke-dasharray:none;stroke-opacity:1"
               d="M 0,0 H 16 V 69 H 0 Z" /></g></g></g></g></g></svg>
