<?xml version="1.0" encoding="UTF-8" standalone="no"?>
<svg
   xmlns:dc="http://purl.org/dc/elements/1.1/"
   xmlns:cc="http://creativecommons.org/ns#"
   xmlns:rdf="http://www.w3.org/1999/02/22-rdf-syntax-ns#"
   xmlns:svg="http://www.w3.org/2000/svg"
   xmlns="http://www.w3.org/2000/svg"
   xmlns:sodipodi="http://sodipodi.sourceforge.net/DTD/sodipodi-0.dtd"
   xmlns:inkscape="http://www.inkscape.org/namespaces/inkscape"
   sodipodi:docname="patternfly-template.pdf"
   viewBox="0 0 2000 1365.3333"
   height="1365.3333"
   width="2000"
   xml:space="preserve"
   id="svg2"
   version="1.1"><metadata
     id="metadata8"><rdf:RDF><cc:Work
         rdf:about=""><dc:format>image/svg+xml</dc:format><dc:type
           rdf:resource="http://purl.org/dc/dcmitype/StillImage" /></cc:Work></rdf:RDF></metadata><defs
     id="defs6"><clipPath
       id="clipPath20"
       clipPathUnits="userSpaceOnUse"><path
         id="path18"
         d="M 0,0 H 1500 V 1024 H 0 Z" /></clipPath><clipPath
       id="clipPath34"
       clipPathUnits="userSpaceOnUse"><path
         id="path32"
         clip-rule="evenodd"
         d="m 359,60 h 61 c 1.6569,0 3,-1.34315 3,-3 V 27 c 0,-1.65685 -1.3431,-3 -3,-3 h -61 c -1.6569,0 -3,1.34315 -3,3 v 30 c 0,1.65685 1.3431,3 3,3 z" /></clipPath><clipPath
       id="clipPath40"
       clipPathUnits="userSpaceOnUse"><path
         id="path38"
         d="M 0,0 H 1500 V 1024 H 0 Z" /></clipPath><clipPath
       id="clipPath46"
       clipPathUnits="userSpaceOnUse"><path
         id="path44"
         d="m 356,24 h 67 v 36 h -67 z" /></clipPath><clipPath
       id="clipPath50"
       clipPathUnits="userSpaceOnUse"><path
         id="path48"
         d="m 356,24 h 67 v 36 h -67 z" /></clipPath><clipPath
       id="clipPath72"
       clipPathUnits="userSpaceOnUse"><path
         id="path70"
         d="M 0,0 H 1500 V 1024 H 0 Z" /></clipPath><clipPath
       id="clipPath86"
       clipPathUnits="userSpaceOnUse"><path
         id="path84"
         clip-rule="evenodd"
         d="m 276,60 h 61 c 1.6569,0 3,-1.34315 3,-3 V 27 c 0,-1.65685 -1.3431,-3 -3,-3 h -61 c -1.6569,0 -3,1.34315 -3,3 v 30 c 0,1.65685 1.3431,3 3,3 z" /></clipPath><clipPath
       id="clipPath92"
       clipPathUnits="userSpaceOnUse"><path
         id="path90"
         d="M 0,0 H 1500 V 1024 H 0 Z" /></clipPath><clipPath
       id="clipPath102"
       clipPathUnits="userSpaceOnUse"><path
         id="path100"
         d="M 0,0 H 1500 V 1024 H 0 Z" /></clipPath><clipPath
       id="clipPath122"
       clipPathUnits="userSpaceOnUse"><path
         id="path120"
         clip-rule="evenodd"
         d="M 0,907 H 248 V 0 H 0 Z" /></clipPath><clipPath
       id="clipPath128"
       clipPathUnits="userSpaceOnUse"><path
         id="path126"
         d="M 0,0 H 1500 V 1024 H 0 Z" /></clipPath><clipPath
       id="clipPath138"
       clipPathUnits="userSpaceOnUse"><path
         id="path136"
         clip-rule="evenodd"
         d="m 248,907 h 1 V 0 h -1 z" /></clipPath><clipPath
       id="clipPath144"
       clipPathUnits="userSpaceOnUse"><path
         id="path142"
         d="M 0,0 H 1500 V 1024 H 0 Z" /></clipPath><clipPath
       id="clipPath154"
       clipPathUnits="userSpaceOnUse"><path
         id="path152"
         clip-rule="evenodd"
         d="m 248,907 h 1 V 0 h -1 z" /></clipPath><clipPath
       id="clipPath160"
       clipPathUnits="userSpaceOnUse"><path
         id="path158"
         d="M 0,0 H 1500 V 1024 H 0 Z" /></clipPath><clipPath
       id="clipPath172"
       clipPathUnits="userSpaceOnUse"><path
         id="path170"
         clip-rule="evenodd"
         d="M 0,1024 H 1500 V 909 H 0 Z" /></clipPath><clipPath
       id="clipPath178"
       clipPathUnits="userSpaceOnUse"><path
         id="path176"
         d="M 0,0 H 1500 V 1024 H 0 Z" /></clipPath><clipPath
       id="clipPath188"
       clipPathUnits="userSpaceOnUse"><path
         id="path186"
         clip-rule="evenodd"
         d="m 1453.373,976.2878 3.127,3.1272 3.127,-3.1272 c 0.384,-0.3837 1.006,-0.3837 1.39,0 l 0.695,0.695 c 0.384,0.3838 0.384,1.006 0,1.39 l -3.127,3.1272 3.127,3.1272 c 0.384,0.3837 0.384,1.0059 0,1.39 l -0.695,0.695 c -0.384,0.3837 -1.006,0.3837 -1.39,0 l -3.127,-3.1272 -3.127,3.1272 c -0.384,0.3837 -1.006,0.3837 -1.39,0 l -0.695,-0.695 c -0.384,-0.3838 -0.384,-1.0059 0,-1.39 l 3.127,-3.1272 -3.127,-3.1272 c -0.384,-0.3837 -0.384,-1.0059 0,-1.39 l 0.695,-0.695 c 0.384,-0.3837 1.006,-0.3837 1.39,0 z" /></clipPath><clipPath
       id="clipPath194"
       clipPathUnits="userSpaceOnUse"><path
         id="path192"
         d="M 0,0 H 1500 V 1024 H 0 Z" /></clipPath><clipPath
       id="clipPath200"
       clipPathUnits="userSpaceOnUse"><path
         id="path198"
         d="m 1450,975 h 13 v 13 h -13 z" /></clipPath><clipPath
       id="clipPath204"
       clipPathUnits="userSpaceOnUse"><path
         id="path202"
         clip-rule="evenodd"
         d="m 1453.373,976.2878 3.127,3.1272 3.127,-3.1272 c 0.384,-0.3837 1.006,-0.3837 1.39,0 l 0.695,0.695 c 0.384,0.3838 0.384,1.006 0,1.39 l -3.127,3.1272 3.127,3.1272 c 0.384,0.3837 0.384,1.0059 0,1.39 l -0.695,0.695 c -0.384,0.3837 -1.006,0.3837 -1.39,0 l -3.127,-3.1272 -3.127,3.1272 c -0.384,0.3837 -1.006,0.3837 -1.39,0 l -0.695,-0.695 c -0.384,-0.3838 -0.384,-1.0059 0,-1.39 l 3.127,-3.1272 -3.127,-3.1272 c -0.384,-0.3837 -0.384,-1.0059 0,-1.39 l 0.695,-0.695 c 0.384,-0.3837 1.006,-0.3837 1.39,0 z" /></clipPath><clipPath
       id="clipPath208"
       clipPathUnits="userSpaceOnUse"><path
         id="path206"
         d="m 1450,975 h 13 v 13 h -13 z" /></clipPath><clipPath
       id="clipPath212"
       clipPathUnits="userSpaceOnUse"><path
         id="path210"
         clip-rule="evenodd"
         d="m 1444,994 h 24 v -24 h -24 z" /></clipPath><clipPath
       id="clipPath216"
       clipPathUnits="userSpaceOnUse"><path
         id="path214"
         d="m 1450,975 h 13 v 13 h -13 z" /></clipPath><clipPath
       id="clipPath246"
       clipPathUnits="userSpaceOnUse"><path
         id="path244"
         d="m 24,933 h 1436 v 24 H 24 Z" /></clipPath><clipPath
       id="clipPath260"
       clipPathUnits="userSpaceOnUse"><path
         id="path258"
         d="m 24,965 h 1388 v 35 H 24 Z" /></clipPath><clipPath
       id="clipPath274"
       clipPathUnits="userSpaceOnUse"><path
         id="path272"
         d="M 0,0 H 1500 V 1024 H 0 Z" /></clipPath><clipPath
       id="clipPath300"
       clipPathUnits="userSpaceOnUse"><path
         id="path298"
         clip-rule="evenodd"
         d="m 36,659 c 6.62742,0 12,5.3726 12,12 0,6.6274 -5.37258,12 -12,12 -6.62742,0 -12,-5.3726 -12,-12 0,-6.6274 5.37258,-12 12,-12 z" /></clipPath><clipPath
       id="clipPath306"
       clipPathUnits="userSpaceOnUse"><path
         id="path304"
         d="M 0,0 H 1500 V 1024 H 0 Z" /></clipPath><clipPath
       id="clipPath316"
       clipPathUnits="userSpaceOnUse"><path
         id="path314"
         d="M 0,0 H 1500 V 1024 H 0 Z" /></clipPath><clipPath
       id="clipPath354"
       clipPathUnits="userSpaceOnUse"><path
         id="path352"
         clip-rule="evenodd"
         d="m 36,819 c 6.62742,0 12,5.3726 12,12 0,6.6274 -5.37258,12 -12,12 -6.62742,0 -12,-5.3726 -12,-12 0,-6.6274 5.37258,-12 12,-12 z" /></clipPath><clipPath
       id="clipPath360"
       clipPathUnits="userSpaceOnUse"><path
         id="path358"
         d="M 0,0 H 1500 V 1024 H 0 Z" /></clipPath><clipPath
       id="clipPath370"
       clipPathUnits="userSpaceOnUse"><path
         id="path368"
         d="M 0,0 H 1500 V 1024 H 0 Z" /></clipPath><clipPath
       id="clipPath390"
       clipPathUnits="userSpaceOnUse"><path
         id="path388"
         clip-rule="evenodd"
         d="m 36,859 c 6.62742,0 12,5.3726 12,12 0,6.6274 -5.37258,12 -12,12 -6.62742,0 -12,-5.3726 -12,-12 0,-6.6274 5.37258,-12 12,-12 z" /></clipPath><clipPath
       id="clipPath396"
       clipPathUnits="userSpaceOnUse"><path
         id="path394"
         d="M 0,0 H 1500 V 1024 H 0 Z" /></clipPath><clipPath
       id="clipPath406"
       clipPathUnits="userSpaceOnUse"><path
         id="path404"
         d="M 0,0 H 1500 V 1024 H 0 Z" /></clipPath></defs><sodipodi:namedview
     id="namedview4"
     inkscape:window-height="480"
     inkscape:window-width="640"
     inkscape:pageshadow="2"
     inkscape:pageopacity="0"
     guidetolerance="10"
     gridtolerance="10"
     objecttolerance="10"
     borderopacity="1"
     bordercolor="#666666"
     pagecolor="#ffffff" /><g
     transform="matrix(1.3333333,0,0,-1.3333333,0,1365.3333)"
     inkscape:label="patternfly-template"
     inkscape:groupmode="layer"
     id="g10"><g
       id="g12" /><g
       id="g14"><g
         clip-path="url(#clipPath20)"
         id="g16"><g
           transform="matrix(1,0,0,-1,455,54)"
           id="g22"><text
             id="text26"
             style="font-variant:normal;font-weight:normal;font-size:16px;font-family:'Red Hat Text';-inkscape-font-specification:RedHatText-Regular;writing-mode:lr-tb;fill:#0066cc;fill-opacity:1;fill-rule:nonzero;stroke:none"
             transform="translate(0,17)"><tspan
               id="tspan24"
               sodipodi:role="line"
               y="0"
               x="0 11.616 20.032 28.864 37.007999 45.919998">Cancel</tspan></text></g></g></g><g
       id="g28"><g
         clip-path="url(#clipPath34)"
         id="g30"><g
           clip-path="url(#clipPath40)"
           id="g36"><g
             id="g42" /><g
             id="g64"><g
               id="g62"
               clip-path="url(#clipPath46)"><g
                 id="g52" /><g
                 id="g60"><g
                   id="g58"
                   clip-path="url(#clipPath50)"><g
                     id="g56"
                     transform="matrix(1,0,0,-1,356,60)"><path
                       id="path54"
                       style="fill:none;stroke:#0066cc;stroke-width:2;stroke-linecap:butt;stroke-linejoin:miter;stroke-miterlimit:10;stroke-dasharray:none;stroke-opacity:1"
                       d="m 3,0 h 61 c 1.65685,0 3,1.343146 3,3 v 30 c 0,1.65685 -1.34315,3 -3,3 H 3 C 1.343146,36 0,34.65685 0,33 V 3 C 0,1.343146 1.343146,0 3,0 Z" /></g></g></g></g></g></g></g></g><g
       id="g66"><g
         clip-path="url(#clipPath72)"
         id="g68"><g
           transform="matrix(1,0,0,-1,372,54)"
           id="g74"><text
             id="text78"
             style="font-variant:normal;font-weight:normal;font-size:16px;font-family:'Red Hat Text';-inkscape-font-specification:RedHatText-Regular;writing-mode:lr-tb;fill:#0066cc;fill-opacity:1;fill-rule:nonzero;stroke:none"
             transform="translate(0,17)"><tspan
               id="tspan76"
               sodipodi:role="line"
               y="0"
               x="0 10.704 19.120001 27.264">Back</tspan></text></g></g></g><g
       id="g80"><g
         clip-path="url(#clipPath86)"
         id="g82"><g
           clip-path="url(#clipPath92)"
           id="g88"><path
             id="path94"
             style="fill:#0066cc;fill-opacity:1;fill-rule:nonzero;stroke:none"
             d="m 268,65 h 77 V 19 h -77 z" /></g></g></g><g
       id="g96"><g
         clip-path="url(#clipPath102)"
         id="g98"><g
           transform="matrix(1,0,0,-1,289,54)"
           id="g104"><text
             id="text108"
             style="font-variant:normal;font-weight:normal;font-size:16px;font-family:'Red Hat Text';-inkscape-font-specification:RedHatText-Regular;writing-mode:lr-tb;fill:#ffffff;fill-opacity:1;fill-rule:nonzero;stroke:none"
             transform="translate(0.212,17)"><tspan
               id="tspan106"
               sodipodi:role="line"
               y="0"
               x="0 11.824 20.736 28.528">Next</tspan></text></g><g
           transform="matrix(1,0,0,-1,273,885)"
           id="g110"><text
             id="text114"
             style="font-variant:normal;font-weight:normal;font-size:16px;font-family:'Red Hat Text';-inkscape-font-specification:RedHatText-Regular;writing-mode:lr-tb;fill:#151515;fill-opacity:1;fill-rule:nonzero;stroke:none"
             transform="translate(0,17)"><tspan
               id="tspan112"
               sodipodi:role="line"
               y="0"
               x="0 14.352 17.92 25.264 33.68 39.312 48.624001 52.352001 60.495998 69.792 78.624001 84.671997 93.584 102.416 108.464 112.192 121.504 130.8 139.71201 146.944 150.672 159.504 168.416 174.048">Wizard content goes here</tspan></text></g></g></g><g
       id="g116"><g
         clip-path="url(#clipPath122)"
         id="g118"><g
           clip-path="url(#clipPath128)"
           id="g124"><path
             id="path130"
             style="fill:#ffffff;fill-opacity:1;fill-rule:nonzero;stroke:none"
             d="M -5,912 H 253 V -5 H -5 Z" /></g></g></g><g
       id="g132"><g
         clip-path="url(#clipPath138)"
         id="g134"><g
           clip-path="url(#clipPath144)"
           id="g140"><path
             id="path146"
             style="fill:#ffffff;fill-opacity:1;fill-rule:nonzero;stroke:none"
             d="m 248,907 h 1 V 0 h -1 z" /></g></g></g><g
       id="g148"><g
         clip-path="url(#clipPath154)"
         id="g150"><g
           clip-path="url(#clipPath160)"
           id="g156"><g
             transform="matrix(1,0,0,-1,248,907)"
             id="g162"><path
               id="path164"
               style="fill:none;stroke:#d2d2d2;stroke-width:2;stroke-linecap:butt;stroke-linejoin:miter;stroke-miterlimit:10;stroke-dasharray:none;stroke-opacity:1"
               d="M 0,0 H 1 V 907 H 0 Z" /></g></g></g></g><g
       id="g166"><g
         clip-path="url(#clipPath172)"
         id="g168"><g
           clip-path="url(#clipPath178)"
           id="g174"><path
             id="path180"
             style="fill:#151515;fill-opacity:1;fill-rule:nonzero;stroke:none"
             d="M -5,1029 H 1505 V 904 H -5 Z" /></g></g></g><g
       id="g182"><g
         clip-path="url(#clipPath188)"
         id="g184"><g
           clip-path="url(#clipPath194)"
           id="g190"><g
             id="g196" /><g
             id="g238"><g
               id="g236"
               clip-path="url(#clipPath200)"><g
                 id="g218" /><g
                 id="g226"><g
                   id="g224"
                   clip-path="url(#clipPath204)"><g
                     id="g222"
                     clip-path="url(#clipPath208)"><path
                       id="path220"
                       style="fill:#6a6e73;fill-opacity:1;fill-rule:nonzero;stroke:none"
                       d="m 1446,992 h 21 v -21 h -21 z" /></g></g></g><g
                 id="g234"><g
                   id="g232"
                   clip-path="url(#clipPath212)"><g
                     id="g230"
                     clip-path="url(#clipPath216)"><path
                       id="path228"
                       style="fill:#ffffff;fill-opacity:1;fill-rule:nonzero;stroke:none"
                       d="m 1439,999 h 34 v -34 h -34 z" /></g></g></g></g></g></g></g></g><g
       id="g240"><g
         clip-path="url(#clipPath246)"
         id="g242"><g
           transform="matrix(1,0,0,-1,24,957)"
           id="g248"><text
             id="text252"
             style="font-variant:normal;font-weight:normal;font-size:16px;font-family:'Red Hat Text';-inkscape-font-specification:RedHatText-Regular;writing-mode:lr-tb;fill:#ffffff;fill-opacity:1;fill-rule:nonzero;stroke:none"
             transform="translate(0,17)"><tspan
               id="tspan250"
               sodipodi:role="line"
               y="0"
               x="0 11.648 20.559999 27.792 35.936001 41.568001 45.136002 54.464001 60.512001 64.080002 73.375999">Description</tspan></text></g></g></g><g
       id="g254"><g
         clip-path="url(#clipPath260)"
         id="g256"><g
           transform="matrix(1,0,0,-1,24,1000)"
           id="g262"><text
             id="text266"
             style="font-variant:normal;font-weight:500;font-size:28px;font-family:'Red Hat Display';-inkscape-font-specification:RedHatDisplay-Medium;writing-mode:lr-tb;fill:#ffffff;fill-opacity:1;fill-rule:nonzero;stroke:none"
             transform="translate(0,28.4)"><tspan
               id="tspan264"
               sodipodi:role="line"
               y="0"
               x="0 25.424 31.528 44.911999 59.807999 70.195999 87.192001 93.043999 103.936 110.04 120.932 127.036">Wizard title</tspan></text></g></g></g><g
       id="g268"><g
         clip-path="url(#clipPath274)"
         id="g270"><g
           transform="matrix(1,0,0,-1,56,643)"
           id="g276"><text
             id="text280"
             style="font-variant:normal;font-weight:normal;font-size:16px;font-family:'Red Hat Text';-inkscape-font-specification:RedHatText-Regular;writing-mode:lr-tb;fill:#6a6e73;fill-opacity:1;fill-rule:nonzero;stroke:none"
             transform="translate(0,17)"><tspan
               id="tspan278"
               sodipodi:role="line"
               y="0"
               x="0 10.352 19.264 27.280001 30.848 39.759998">Review</tspan></text></g><g
           transform="matrix(1,0,0,-1,24,643)"
           id="g282"><text
             id="text286"
             style="font-variant:normal;font-weight:normal;font-size:16px;font-family:'Red Hat Text';-inkscape-font-specification:RedHatText-Regular;writing-mode:lr-tb;fill:#6a6e73;fill-opacity:1;fill-rule:nonzero;stroke:none"
             transform="translate(7.056,17)"><tspan
               id="tspan284"
               y="0"
               x="0">4</tspan></text></g><g
           transform="matrix(1,0,0,-1,56,683)"
           id="g288"><text
             id="text292"
             style="font-variant:normal;font-weight:normal;font-size:16px;font-family:'Red Hat Text';-inkscape-font-specification:RedHatText-Regular;writing-mode:lr-tb;fill:#151515;fill-opacity:1;fill-rule:nonzero;stroke:none"
             transform="translate(0,17)"><tspan
               id="tspan290"
               sodipodi:role="line"
               y="0"
               x="0 10.56 19.872 29.184 32.751999 38.799999 42.368 51.664001 60.495998 68.912003">Additional</tspan></text></g></g></g><g
       id="g294"><g
         clip-path="url(#clipPath300)"
         id="g296"><g
           clip-path="url(#clipPath306)"
           id="g302"><path
             id="path308"
             style="fill:#ededed;fill-opacity:1;fill-rule:nonzero;stroke:none"
             d="M 19,688 H 53 V 654 H 19 Z" /></g></g></g><g
       id="g310"><g
         clip-path="url(#clipPath316)"
         id="g312"><g
           transform="matrix(1,0,0,-1,24,683)"
           id="g318"><text
             id="text322"
             style="font-variant:normal;font-weight:normal;font-size:16px;font-family:'Red Hat Text';-inkscape-font-specification:RedHatText-Regular;writing-mode:lr-tb;fill:#151515;fill-opacity:1;fill-rule:nonzero;stroke:none"
             transform="translate(7.312,17)"><tspan
               id="tspan320"
               y="0"
               x="0">3</tspan></text></g><g
           transform="matrix(1,0,0,-1,72,723)"
           id="g324"><text
             id="text328"
             style="font-variant:normal;font-weight:normal;font-size:16px;font-family:'Red Hat Text';-inkscape-font-specification:RedHatText-Regular;writing-mode:lr-tb;fill:#151515;fill-opacity:1;fill-rule:nonzero;stroke:none"
             transform="translate(0,17)"><tspan
               id="tspan326"
               sodipodi:role="line"
               y="0"
               x="0 9.9680004 18.799999 28.128 35.360001 41.408001 50.32 59.647999 63.375999">Substep C</tspan></text></g><g
           transform="matrix(1,0,0,-1,72,763)"
           id="g330"><text
             id="text334"
             style="font-variant:normal;font-weight:500;font-size:16px;font-family:'Red Hat Text';-inkscape-font-specification:RedHatText-Medium;writing-mode:lr-tb;fill:#0066cc;fill-opacity:1;fill-rule:nonzero;stroke:none"
             transform="translate(0,17)"><tspan
               id="tspan332"
               sodipodi:role="line"
               y="0"
               x="0 10.192 19.504 29.280001 36.944 43.568001 52.736 62.512001 66.112">Substep B</tspan></text></g><g
           transform="matrix(1,0,0,-1,72,803)"
           id="g336"><text
             id="text340"
             style="font-variant:normal;font-weight:normal;font-size:16px;font-family:'Red Hat Text';-inkscape-font-specification:RedHatText-Regular;writing-mode:lr-tb;fill:#151515;fill-opacity:1;fill-rule:nonzero;stroke:none"
             transform="translate(0,17)"><tspan
               id="tspan338"
               sodipodi:role="line"
               y="0"
               x="0 9.9680004 18.799999 28.128 35.360001 41.408001 50.32 59.647999 63.375999">Substep A</tspan></text></g><g
           transform="matrix(1,0,0,-1,56,843)"
           id="g342"><text
             id="text346"
             style="font-variant:normal;font-weight:normal;font-size:16px;font-family:'Red Hat Text';-inkscape-font-specification:RedHatText-Regular;writing-mode:lr-tb;fill:#0066cc;fill-opacity:1;fill-rule:nonzero;stroke:none"
             transform="translate(0,17)"><tspan
               id="tspan344"
               sodipodi:role="line"
               y="0"
               x="0 11.616 20.912001 29.743999 35.664001 39.231998 48.543999 57.375999 63.007999 71.424004 77.472 81.040001 90.335999">Configuration</tspan></text></g></g></g><g
       id="g348"><g
         clip-path="url(#clipPath354)"
         id="g350"><g
           clip-path="url(#clipPath360)"
           id="g356"><path
             id="path362"
             style="fill:#0066cc;fill-opacity:1;fill-rule:nonzero;stroke:none"
             d="M 19,848 H 53 V 814 H 19 Z" /></g></g></g><g
       id="g364"><g
         clip-path="url(#clipPath370)"
         id="g366"><g
           transform="matrix(1,0,0,-1,24,843)"
           id="g372"><text
             id="text376"
             style="font-variant:normal;font-weight:normal;font-size:16px;font-family:'Red Hat Text';-inkscape-font-specification:RedHatText-Regular;writing-mode:lr-tb;fill:#ffffff;fill-opacity:1;fill-rule:nonzero;stroke:none"
             transform="translate(7.616,17)"><tspan
               id="tspan374"
               y="0"
               x="0">2</tspan></text></g><g
           transform="matrix(1,0,0,-1,56,883)"
           id="g378"><text
             id="text382"
             style="font-variant:normal;font-weight:normal;font-size:16px;font-family:'Red Hat Text';-inkscape-font-specification:RedHatText-Regular;writing-mode:lr-tb;fill:#151515;fill-opacity:1;fill-rule:nonzero;stroke:none"
             transform="translate(0,17)"><tspan
               id="tspan380"
               sodipodi:role="line"
               y="0"
               x="0 4.0320001 12.864 18.784 28.08 33.712002 47.231998 55.647999 61.695999 65.264 74.559998">Information</tspan></text></g></g></g><g
       id="g384"><g
         clip-path="url(#clipPath390)"
         id="g386"><g
           clip-path="url(#clipPath396)"
           id="g392"><path
             id="path398"
             style="fill:#ededed;fill-opacity:1;fill-rule:nonzero;stroke:none"
             d="M 19,888 H 53 V 854 H 19 Z" /></g></g></g><g
       id="g400"><g
         clip-path="url(#clipPath406)"
         id="g402"><g
           transform="matrix(1,0,0,-1,24,883)"
           id="g408"><text
             id="text412"
             style="font-variant:normal;font-weight:normal;font-size:16px;font-family:'Red Hat Text';-inkscape-font-specification:RedHatText-Regular;writing-mode:lr-tb;fill:#151515;fill-opacity:1;fill-rule:nonzero;stroke:none"
             transform="translate(9.544,17)"><tspan
               id="tspan410"
               y="0"
               x="0">1</tspan></text></g></g></g></g></svg>
