<?xml version="1.0" encoding="UTF-8" standalone="no"?>
<svg
   xmlns:dc="http://purl.org/dc/elements/1.1/"
   xmlns:cc="http://creativecommons.org/ns#"
   xmlns:rdf="http://www.w3.org/1999/02/22-rdf-syntax-ns#"
   xmlns:svg="http://www.w3.org/2000/svg"
   xmlns="http://www.w3.org/2000/svg"
   xmlns:sodipodi="http://sodipodi.sourceforge.net/DTD/sodipodi-0.dtd"
   xmlns:inkscape="http://www.inkscape.org/namespaces/inkscape"
   sodipodi:docname="patternfly-template.pdf"
   viewBox="0 0 297.33334 624"
   height="624"
   width="297.33334"
   xml:space="preserve"
   id="svg2"
   version="1.1"><metadata
     id="metadata8"><rdf:RDF><cc:Work
         rdf:about=""><dc:format>image/svg+xml</dc:format><dc:type
           rdf:resource="http://purl.org/dc/dcmitype/StillImage" /></cc:Work></rdf:RDF></metadata><defs
     id="defs6"><clipPath
       id="clipPath20"
       clipPathUnits="userSpaceOnUse"><path
         id="path18"
         d="M 0,0 H 223 V 468 H 0 Z" /></clipPath><clipPath
       id="clipPath36"
       clipPathUnits="userSpaceOnUse"><path
         id="path34"
         clip-rule="evenodd"
         d="m 110,468 h 3 v -8 h -3 z" /></clipPath><clipPath
       id="clipPath42"
       clipPathUnits="userSpaceOnUse"><path
         id="path40"
         d="M 0,0 H 223 V 468 H 0 Z" /></clipPath><clipPath
       id="clipPath52"
       clipPathUnits="userSpaceOnUse"><path
         id="path50"
         clip-rule="evenodd"
         d="m 8,358 v -3 H 0 v 3 z" /></clipPath><clipPath
       id="clipPath58"
       clipPathUnits="userSpaceOnUse"><path
         id="path56"
         d="M 0,0 H 223 V 468 H 0 Z" /></clipPath><clipPath
       id="clipPath68"
       clipPathUnits="userSpaceOnUse"><path
         id="path66"
         d="M 0,0 H 223 V 468 H 0 Z" /></clipPath><clipPath
       id="clipPath90"
       clipPathUnits="userSpaceOnUse"><path
         id="path88"
         clip-rule="evenodd"
         d="m 110,222 h 3 v -8 h -3 z" /></clipPath><clipPath
       id="clipPath96"
       clipPathUnits="userSpaceOnUse"><path
         id="path94"
         d="M 0,0 H 223 V 468 H 0 Z" /></clipPath><clipPath
       id="clipPath106"
       clipPathUnits="userSpaceOnUse"><path
         id="path104"
         clip-rule="evenodd"
         d="m 8,112 v -3 H 0 v 3 z" /></clipPath><clipPath
       id="clipPath112"
       clipPathUnits="userSpaceOnUse"><path
         id="path110"
         d="M 0,0 H 223 V 468 H 0 Z" /></clipPath><clipPath
       id="clipPath122"
       clipPathUnits="userSpaceOnUse"><path
         id="path120"
         d="M 0,0 H 223 V 468 H 0 Z" /></clipPath></defs><sodipodi:namedview
     id="namedview4"
     inkscape:window-height="480"
     inkscape:window-width="640"
     inkscape:pageshadow="2"
     inkscape:pageopacity="0"
     guidetolerance="10"
     gridtolerance="10"
     objecttolerance="10"
     borderopacity="1"
     bordercolor="#666666"
     pagecolor="#ffffff" /><g
     transform="matrix(1.3333333,0,0,-1.3333333,0,624)"
     inkscape:label="patternfly-template"
     inkscape:groupmode="layer"
     id="g10"><g
       id="g12" /><g
       id="g14"><g
         clip-path="url(#clipPath20)"
         id="g16"><g
           transform="matrix(1,0,0,-1,4.017986,463.9811)"
           id="g22"><path
             id="path24"
             style="fill:none;stroke:#0066cc;stroke-width:8;stroke-linecap:butt;stroke-linejoin:miter;stroke-miterlimit:10;stroke-dasharray:none;stroke-opacity:1"
             d="m 0,108.9629 c 1.056789,58.18 48.54958,105.0182 106.982,105.0182 59.0945,0 107,-47.9056 107,-107 C 213.982,48.56603 167.1717,1.084131 109.0158,0" /></g><g
           transform="matrix(1,0,0,-1,4.004511,463.9956)"
           id="g26"><path
             id="path28"
             style="fill:none;stroke:#ec7a08;stroke-width:8;stroke-linecap:butt;stroke-linejoin:miter;stroke-miterlimit:10;stroke-dasharray:none;stroke-opacity:1"
             d="M 106.0099,0 C 47.69986,0.5261618 0.5299987,47.69364 0,106.0027" /></g></g></g><g
       id="g30"><g
         clip-path="url(#clipPath36)"
         id="g32"><g
           clip-path="url(#clipPath42)"
           id="g38"><path
             id="path44"
             style="fill:#ffffff;fill-opacity:1;fill-rule:nonzero;stroke:none"
             d="m 105,473 h 13 v -18 h -13 z" /></g></g></g><g
       id="g46"><g
         clip-path="url(#clipPath52)"
         id="g48"><g
           clip-path="url(#clipPath58)"
           id="g54"><path
             id="path60"
             style="fill:#ffffff;fill-opacity:1;fill-rule:nonzero;stroke:none"
             d="M 13,363 V 350 H -5 v 13 z" /></g></g></g><g
       id="g62"><g
         clip-path="url(#clipPath68)"
         id="g64"><g
           transform="matrix(1,0,0,-1,96.5,372.2)"
           id="g70"><text
             id="text74"
             style="font-variant:normal;font-weight:500;font-size:24px;font-family:'Red Hat Display';-inkscape-font-specification:RedHatDisplay-Medium;writing-mode:lr-tb;fill:#151515;fill-opacity:1;fill-rule:nonzero;stroke:none"
             transform="translate(0.056,24.2)"><tspan
               id="tspan72"
               sodipodi:role="line"
               y="0"
               x="0 14.784">80</tspan></text></g><g
           transform="matrix(1,0,0,-1,4.017986,217.9811)"
           id="g76"><path
             id="path78"
             style="fill:none;stroke:#0066cc;stroke-width:8;stroke-linecap:butt;stroke-linejoin:miter;stroke-miterlimit:10;stroke-dasharray:none;stroke-opacity:1"
             d="m 0,108.9629 c 1.056789,58.18 48.54958,105.0182 106.982,105.0182 59.0945,0 107,-47.9056 107,-107 C 213.982,48.56603 167.1717,1.084131 109.0158,0" /></g><g
           transform="matrix(1,0,0,-1,4.004511,217.9956)"
           id="g80"><path
             id="path82"
             style="fill:none;stroke:#8bc1f7;stroke-width:8;stroke-linecap:butt;stroke-linejoin:miter;stroke-miterlimit:10;stroke-dasharray:none;stroke-opacity:1"
             d="M 106.0099,0 C 47.69986,0.5261618 0.5299987,47.69364 0,106.0027" /></g></g></g><g
       id="g84"><g
         clip-path="url(#clipPath90)"
         id="g86"><g
           clip-path="url(#clipPath96)"
           id="g92"><path
             id="path98"
             style="fill:#ffffff;fill-opacity:1;fill-rule:nonzero;stroke:none"
             d="m 105,227 h 13 v -18 h -13 z" /></g></g></g><g
       id="g100"><g
         clip-path="url(#clipPath106)"
         id="g102"><g
           clip-path="url(#clipPath112)"
           id="g108"><path
             id="path114"
             style="fill:#ffffff;fill-opacity:1;fill-rule:nonzero;stroke:none"
             d="M 13,117 V 104 H -5 v 13 z" /></g></g></g><g
       id="g116"><g
         clip-path="url(#clipPath122)"
         id="g118"><g
           transform="matrix(1,0,0,-1,92,136.2)"
           id="g124"><text
             id="text128"
             style="font-variant:normal;font-weight:500;font-size:24px;font-family:'Red Hat Display';-inkscape-font-specification:RedHatDisplay-Medium;writing-mode:lr-tb;fill:#151515;fill-opacity:1;fill-rule:nonzero;stroke:none"
             transform="translate(0.128,24.2)"><tspan
               id="tspan126"
               sodipodi:role="line"
               y="0"
               x="0 7.5359998 23.639999">100</tspan></text></g><g
           transform="matrix(1,0,0,-1,97,102)"
           id="g130"><text
             id="text134"
             style="font-variant:normal;font-weight:normal;font-size:14px;font-family:'Red Hat Text';-inkscape-font-specification:RedHatText-Regular;writing-mode:lr-tb;fill:#6a6e73;fill-opacity:1;fill-rule:nonzero;stroke:none"
             transform="translate(0.213,13)"><tspan
               id="tspan132"
               sodipodi:role="line"
               y="0"
               x="0 9.1560001 16.954 22.246">Pets</tspan></text></g></g></g></g></svg>
