<?xml version="1.0" encoding="UTF-8" standalone="no"?>
<svg
   xmlns:dc="http://purl.org/dc/elements/1.1/"
   xmlns:cc="http://creativecommons.org/ns#"
   xmlns:rdf="http://www.w3.org/1999/02/22-rdf-syntax-ns#"
   xmlns:svg="http://www.w3.org/2000/svg"
   xmlns="http://www.w3.org/2000/svg"
   xmlns:sodipodi="http://sodipodi.sourceforge.net/DTD/sodipodi-0.dtd"
   xmlns:inkscape="http://www.inkscape.org/namespaces/inkscape"
   sodipodi:docname="patternfly-template.pdf"
   viewBox="0 0 800 394.66666"
   height="394.66666"
   width="800"
   xml:space="preserve"
   id="svg2"
   version="1.1"><metadata
     id="metadata8"><rdf:RDF><cc:Work
         rdf:about=""><dc:format>image/svg+xml</dc:format><dc:type
           rdf:resource="http://purl.org/dc/dcmitype/StillImage" /></cc:Work></rdf:RDF></metadata><defs
     id="defs6"><clipPath
       id="clipPath20"
       clipPathUnits="userSpaceOnUse"><path
         id="path18"
         clip-rule="evenodd"
         d="M 0,296 H 600 V 208 H 0 Z" /></clipPath><clipPath
       id="clipPath26"
       clipPathUnits="userSpaceOnUse"><path
         id="path24"
         d="M 0,0 H 600 V 296 H 0 Z" /></clipPath><clipPath
       id="clipPath36"
       clipPathUnits="userSpaceOnUse"><path
         id="path34"
         clip-rule="evenodd"
         d="m 0,296 h 600 v -3 H 0 Z" /></clipPath><clipPath
       id="clipPath42"
       clipPathUnits="userSpaceOnUse"><path
         id="path40"
         d="M 0,0 H 600 V 296 H 0 Z" /></clipPath><clipPath
       id="clipPath52"
       clipPathUnits="userSpaceOnUse"><path
         id="path50"
         clip-rule="evenodd"
         d="m 27.74998,260.5 c 4.2802,0 7.74998,3.4698 7.74998,7.75 0,4.2802 -3.46978,7.75 -7.74998,7.75 C 23.46978,276 20,272.5302 20,268.25 c 0,-4.2802 3.46978,-7.75 7.74998,-7.75 z m -1.60357,3.6465 -3.24999,3.25 c -0.19522,0.1952 -0.19522,0.5118 0,0.7071 l 0.70712,0.7071 c 0.19525,0.1952 0.51187,0.1952 0.70712,0 l 2.18932,-2.1894 4.68932,4.6893 c 0.19529,0.1953 0.51191,0.1953 0.70713,0 l 0.70712,-0.707 c 0.19522,-0.1953 0.19522,-0.5119 0,-0.7072 l -5.74999,-5.7499 c -0.19528,-0.1953 -0.51187,-0.1953 -0.70715,0 z" /></clipPath><clipPath
       id="clipPath58"
       clipPathUnits="userSpaceOnUse"><path
         id="path56"
         d="M 0,0 H 600 V 296 H 0 Z" /></clipPath><clipPath
       id="clipPath68"
       clipPathUnits="userSpaceOnUse"><path
         id="path66"
         clip-rule="evenodd"
         d="m 569.3728,262.2878 3.1272,3.1272 3.1272,-3.1272 c 0.3837,-0.3837 1.0062,-0.3837 1.39,0 l 0.695,0.695 c 0.3837,0.3838 0.3837,1.006 0,1.39 l -3.1272,3.1272 3.1272,3.1272 c 0.3837,0.3837 0.3837,1.0059 0,1.39 l -0.695,0.695 c -0.3838,0.3837 -1.006,0.3837 -1.39,0 l -3.1272,-3.1272 -3.1272,3.1272 c -0.3837,0.3837 -1.0059,0.3837 -1.39,0 l -0.695,-0.695 c -0.3837,-0.3838 -0.3837,-1.0059 0,-1.39 l 3.1272,-3.1272 -3.1272,-3.1272 c -0.3837,-0.3837 -0.3837,-1.0059 0,-1.39 l 0.695,-0.695 c 0.3838,-0.3837 1.0063,-0.3837 1.39,0 z" /></clipPath><clipPath
       id="clipPath74"
       clipPathUnits="userSpaceOnUse"><path
         id="path72"
         d="M 0,0 H 600 V 296 H 0 Z" /></clipPath><clipPath
       id="clipPath84"
       clipPathUnits="userSpaceOnUse"><path
         id="path82"
         d="m 44,224 h 540 v 28 H 44 Z" /></clipPath><clipPath
       id="clipPath98"
       clipPathUnits="userSpaceOnUse"><path
         id="path96"
         d="m 44,258 h 516 v 20 H 44 Z" /></clipPath><clipPath
       id="clipPath112"
       clipPathUnits="userSpaceOnUse"><path
         id="path110"
         clip-rule="evenodd"
         d="M 0,192 H 600 V 104 H 0 Z" /></clipPath><clipPath
       id="clipPath118"
       clipPathUnits="userSpaceOnUse"><path
         id="path116"
         d="M 0,0 H 600 V 296 H 0 Z" /></clipPath><clipPath
       id="clipPath128"
       clipPathUnits="userSpaceOnUse"><path
         id="path126"
         clip-rule="evenodd"
         d="m 0,192 h 600 v -3 H 0 Z" /></clipPath><clipPath
       id="clipPath134"
       clipPathUnits="userSpaceOnUse"><path
         id="path132"
         d="M 0,0 H 600 V 296 H 0 Z" /></clipPath><clipPath
       id="clipPath144"
       clipPathUnits="userSpaceOnUse"><path
         id="path142"
         clip-rule="evenodd"
         d="m 35.49812,156 c 1.15203,0 1.87606,1.2498 1.29925,2.2496 l -7.49809,13.0009 c -0.57608,0.9984 -2.02148,1.0003 -2.59857,0 l -7.4983,-13.0009 C 18.62673,157.2517 19.34743,156 20.50169,156 Z m -6.73958,5.5 h -1.51709 c -0.19915,0 -0.36358,0.1557 -0.37442,0.3546 l -0.23181,4.25 c -0.01172,0.2148 0.15927,0.3954 0.37439,0.3954 h 1.98074 c 0.21512,0 0.38614,-0.1806 0.37442,-0.3954 l -0.23181,-4.25 C 29.12213,161.6557 28.9577,161.5 28.75854,161.5 Z M 28,158.0625 c -0.79392,0 -1.4375,0.6436 -1.4375,1.4375 0,0.7939 0.64358,1.4375 1.4375,1.4375 0.79391,0 1.43749,-0.6436 1.43749,-1.4375 0,-0.7939 -0.64358,-1.4375 -1.43749,-1.4375 z" /></clipPath><clipPath
       id="clipPath150"
       clipPathUnits="userSpaceOnUse"><path
         id="path148"
         d="M 0,0 H 600 V 296 H 0 Z" /></clipPath><clipPath
       id="clipPath160"
       clipPathUnits="userSpaceOnUse"><path
         id="path158"
         clip-rule="evenodd"
         d="m 569.3728,158.2878 3.1272,3.1272 3.1272,-3.1272 c 0.3837,-0.3837 1.0062,-0.3837 1.39,0 l 0.695,0.695 c 0.3837,0.3838 0.3837,1.006 0,1.39 l -3.1272,3.1272 3.1272,3.1272 c 0.3837,0.3837 0.3837,1.0059 0,1.39 l -0.695,0.695 c -0.3838,0.3837 -1.006,0.3837 -1.39,0 l -3.1272,-3.1272 -3.1272,3.1272 c -0.3837,0.3837 -1.0059,0.3837 -1.39,0 l -0.695,-0.695 c -0.3837,-0.3838 -0.3837,-1.0059 0,-1.39 l 3.1272,-3.1272 -3.1272,-3.1272 c -0.3837,-0.3837 -0.3837,-1.0059 0,-1.39 l 0.695,-0.695 c 0.3838,-0.3837 1.0063,-0.3837 1.39,0 z" /></clipPath><clipPath
       id="clipPath166"
       clipPathUnits="userSpaceOnUse"><path
         id="path164"
         d="M 0,0 H 600 V 296 H 0 Z" /></clipPath><clipPath
       id="clipPath176"
       clipPathUnits="userSpaceOnUse"><path
         id="path174"
         d="m 44,120 h 540 v 28 H 44 Z" /></clipPath><clipPath
       id="clipPath190"
       clipPathUnits="userSpaceOnUse"><path
         id="path188"
         d="m 44,154 h 516 v 20 H 44 Z" /></clipPath><clipPath
       id="clipPath204"
       clipPathUnits="userSpaceOnUse"><path
         id="path202"
         clip-rule="evenodd"
         d="M 0,88 H 600 V 0 H 0 Z" /></clipPath><clipPath
       id="clipPath210"
       clipPathUnits="userSpaceOnUse"><path
         id="path208"
         d="M 0,0 H 600 V 296 H 0 Z" /></clipPath><clipPath
       id="clipPath220"
       clipPathUnits="userSpaceOnUse"><path
         id="path218"
         clip-rule="evenodd"
         d="M 0,88 H 600 V 85 H 0 Z" /></clipPath><clipPath
       id="clipPath226"
       clipPathUnits="userSpaceOnUse"><path
         id="path224"
         d="M 0,0 H 600 V 296 H 0 Z" /></clipPath><clipPath
       id="clipPath236"
       clipPathUnits="userSpaceOnUse"><path
         id="path234"
         clip-rule="evenodd"
         d="m 27.74998,52.50004 c 4.2799,0 7.74998,3.46883 7.74998,7.74998 C 35.49996,64.52866 32.02988,68 27.74998,68 23.47008,68 20,64.52866 20,60.25002 c 0,-4.28115 3.47008,-7.74998 7.74998,-7.74998 z m 0.75854,6.74998 h -1.51708 c -0.19916,0 -0.36359,0.1557 -0.37442,0.35455 l -0.23181,4.24999 c -0.01172,0.21482 0.15927,0.39545 0.37439,0.39545 h 1.98074 c 0.21511,0 0.38613,-0.18063 0.37441,-0.39545 l -0.23181,-4.24999 c -0.01083,-0.19885 -0.17526,-0.35455 -0.37442,-0.35455 z m -0.75854,-3.43749 c -0.79391,0 -1.4375,0.64358 -1.4375,1.4375 0,0.79391 0.64359,1.43749 1.4375,1.43749 0.79391,0 1.4375,-0.64358 1.4375,-1.43749 0,-0.79392 -0.64359,-1.4375 -1.4375,-1.4375 z" /></clipPath><clipPath
       id="clipPath242"
       clipPathUnits="userSpaceOnUse"><path
         id="path240"
         d="M 0,0 H 600 V 296 H 0 Z" /></clipPath><clipPath
       id="clipPath252"
       clipPathUnits="userSpaceOnUse"><path
         id="path250"
         clip-rule="evenodd"
         d="m 569.3728,54.28783 3.1272,3.12719 3.1272,-3.12719 c 0.3837,-0.38376 1.0062,-0.38376 1.39,0 l 0.695,0.695 c 0.3837,0.38376 0.3837,1.00592 0,1.38999 L 574.585,59.5 l 3.1272,3.1272 c 0.3837,0.38372 0.3837,1.00591 0,1.38998 l -0.695,0.695 c -0.3838,0.38376 -1.006,0.38376 -1.39,0 l -3.1272,-3.12719 -3.1272,3.12719 c -0.3837,0.38376 -1.0059,0.38376 -1.39,0 l -0.695,-0.695 c -0.3837,-0.38376 -0.3837,-1.00592 0,-1.38998 L 570.415,59.5 567.2878,56.37282 c -0.3837,-0.38373 -0.3837,-1.00592 0,-1.38999 l 0.695,-0.695 c 0.3838,-0.38376 1.0063,-0.38376 1.39,0 z" /></clipPath><clipPath
       id="clipPath258"
       clipPathUnits="userSpaceOnUse"><path
         id="path256"
         d="M 0,0 H 600 V 296 H 0 Z" /></clipPath><clipPath
       id="clipPath268"
       clipPathUnits="userSpaceOnUse"><path
         id="path266"
         d="M 44,16 H 584 V 44 H 44 Z" /></clipPath><clipPath
       id="clipPath282"
       clipPathUnits="userSpaceOnUse"><path
         id="path280"
         d="M 44,50 H 560 V 70 H 44 Z" /></clipPath></defs><sodipodi:namedview
     id="namedview4"
     inkscape:window-height="480"
     inkscape:window-width="640"
     inkscape:pageshadow="2"
     inkscape:pageopacity="0"
     guidetolerance="10"
     gridtolerance="10"
     objecttolerance="10"
     borderopacity="1"
     bordercolor="#666666"
     pagecolor="#ffffff" /><g
     transform="matrix(1.3333333,0,0,-1.3333333,0,394.66667)"
     inkscape:label="patternfly-template"
     inkscape:groupmode="layer"
     id="g10"><g
       id="g12" /><g
       id="g14"><g
         clip-path="url(#clipPath20)"
         id="g16"><g
           clip-path="url(#clipPath26)"
           id="g22"><path
             id="path28"
             style="fill:#f3faf2;fill-opacity:1;fill-rule:nonzero;stroke:none"
             d="M -5,301 H 605 V 203 H -5 Z" /></g></g></g><g
       id="g30"><g
         clip-path="url(#clipPath36)"
         id="g32"><g
           clip-path="url(#clipPath42)"
           id="g38"><path
             id="path44"
             style="fill:#3e8635;fill-opacity:1;fill-rule:nonzero;stroke:none"
             d="M -5,301 H 605 V 288 H -5 Z" /></g></g></g><g
       id="g46"><g
         clip-path="url(#clipPath52)"
         id="g48"><g
           clip-path="url(#clipPath58)"
           id="g54"><path
             id="path60"
             style="fill:#3e8635;fill-opacity:1;fill-rule:nonzero;stroke:none"
             d="M 15,281 H 40.49996 V 255.5 H 15 Z" /></g></g></g><g
       id="g62"><g
         clip-path="url(#clipPath68)"
         id="g64"><g
           clip-path="url(#clipPath74)"
           id="g70"><path
             id="path76"
             style="fill:#6a6e73;fill-opacity:1;fill-rule:nonzero;stroke:none"
             d="m 562,278 h 21 v -21 h -21 z" /></g></g></g><g
       id="g78"><g
         clip-path="url(#clipPath84)"
         id="g80"><g
           transform="matrix(1,0,0,-1,44,252)"
           id="g86"><text
             id="text90"
             style="font-variant:normal;font-weight:normal;font-size:14px;font-family:'Red Hat Text';-inkscape-font-specification:RedHatText-Regular;writing-mode:lr-tb;fill:#151515;fill-opacity:1;fill-rule:nonzero;stroke:none"
             transform="translate(0,14)"><tspan
               id="tspan88"
               sodipodi:role="line"
               y="0"
               x="0 10.192 17.99 24.318001 31.444 36.372002 39.493999 47.655998 52.948002 56.07 64.204002">Description</tspan></text></g></g></g><g
       id="g92"><g
         clip-path="url(#clipPath98)"
         id="g94"><g
           transform="matrix(1,0,0,-1,44,278)"
           id="g100"><text
             id="text104"
             style="font-variant:normal;font-weight:500;font-size:14px;font-family:'Red Hat Text';-inkscape-font-specification:RedHatText-Medium;writing-mode:lr-tb;fill:#1e4f18;fill-opacity:1;fill-rule:nonzero;stroke:none"
             transform="translate(0,14)"><tspan
               id="tspan102"
               sodipodi:role="line"
               y="0"
               x="0 8.9460001 12.474 18.27 21.798">Title</tspan></text></g></g></g><g
       id="g106"><g
         clip-path="url(#clipPath112)"
         id="g108"><g
           clip-path="url(#clipPath118)"
           id="g114"><path
             id="path120"
             style="fill:#fdf7e7;fill-opacity:1;fill-rule:nonzero;stroke:none"
             d="M -5,197 H 605 V 99 H -5 Z" /></g></g></g><g
       id="g122"><g
         clip-path="url(#clipPath128)"
         id="g124"><g
           clip-path="url(#clipPath134)"
           id="g130"><path
             id="path136"
             style="fill:#f0ab00;fill-opacity:1;fill-rule:nonzero;stroke:none"
             d="M -5,197 H 605 V 184 H -5 Z" /></g></g></g><g
       id="g138"><g
         clip-path="url(#clipPath144)"
         id="g140"><g
           clip-path="url(#clipPath150)"
           id="g146"><path
             id="path152"
             style="fill:#f0ab00;fill-opacity:1;fill-rule:nonzero;stroke:none"
             d="M 14,177 H 41.99996 V 151 H 14 Z" /></g></g></g><g
       id="g154"><g
         clip-path="url(#clipPath160)"
         id="g156"><g
           clip-path="url(#clipPath166)"
           id="g162"><path
             id="path168"
             style="fill:#6a6e73;fill-opacity:1;fill-rule:nonzero;stroke:none"
             d="m 562,174 h 21 v -21 h -21 z" /></g></g></g><g
       id="g170"><g
         clip-path="url(#clipPath176)"
         id="g172"><g
           transform="matrix(1,0,0,-1,44,148)"
           id="g178"><text
             id="text182"
             style="font-variant:normal;font-weight:normal;font-size:14px;font-family:'Red Hat Text';-inkscape-font-specification:RedHatText-Regular;writing-mode:lr-tb;fill:#151515;fill-opacity:1;fill-rule:nonzero;stroke:none"
             transform="translate(0,14)"><tspan
               id="tspan180"
               sodipodi:role="line"
               y="0"
               x="0 10.192 17.99 24.318001 31.444 36.372002 39.493999 47.655998 52.948002 56.07 64.204002">Description</tspan></text></g></g></g><g
       id="g184"><g
         clip-path="url(#clipPath190)"
         id="g186"><g
           transform="matrix(1,0,0,-1,44,174)"
           id="g192"><text
             id="text196"
             style="font-variant:normal;font-weight:500;font-size:14px;font-family:'Red Hat Text';-inkscape-font-specification:RedHatText-Medium;writing-mode:lr-tb;fill:#795600;fill-opacity:1;fill-rule:nonzero;stroke:none"
             transform="translate(0,14)"><tspan
               id="tspan194"
               sodipodi:role="line"
               y="0"
               x="0 8.9460001 12.474 18.27 21.798">Title</tspan></text></g></g></g><g
       id="g198"><g
         clip-path="url(#clipPath204)"
         id="g200"><g
           clip-path="url(#clipPath210)"
           id="g206"><path
             id="path212"
             style="fill:#faeae8;fill-opacity:1;fill-rule:nonzero;stroke:none"
             d="M -5,93 H 605 V -5 H -5 Z" /></g></g></g><g
       id="g214"><g
         clip-path="url(#clipPath220)"
         id="g216"><g
           clip-path="url(#clipPath226)"
           id="g222"><path
             id="path228"
             style="fill:#c9190b;fill-opacity:1;fill-rule:nonzero;stroke:none"
             d="M -5,93 H 605 V 80 H -5 Z" /></g></g></g><g
       id="g230"><g
         clip-path="url(#clipPath236)"
         id="g232"><g
           clip-path="url(#clipPath242)"
           id="g238"><path
             id="path244"
             style="fill:#c9190b;fill-opacity:1;fill-rule:nonzero;stroke:none"
             d="M 15,73 H 40.49996 V 47.50004 H 15 Z" /></g></g></g><g
       id="g246"><g
         clip-path="url(#clipPath252)"
         id="g248"><g
           clip-path="url(#clipPath258)"
           id="g254"><path
             id="path260"
             style="fill:#6a6e73;fill-opacity:1;fill-rule:nonzero;stroke:none"
             d="m 562,70 h 21 V 49.00001 h -21 z" /></g></g></g><g
       id="g262"><g
         clip-path="url(#clipPath268)"
         id="g264"><g
           transform="matrix(1,0,0,-1,44,44)"
           id="g270"><text
             id="text274"
             style="font-variant:normal;font-weight:normal;font-size:14px;font-family:'Red Hat Text';-inkscape-font-specification:RedHatText-Regular;writing-mode:lr-tb;fill:#151515;fill-opacity:1;fill-rule:nonzero;stroke:none"
             transform="translate(0,14)"><tspan
               id="tspan272"
               sodipodi:role="line"
               y="0"
               x="0 10.192 17.99 24.318001 31.444 36.372002 39.493999 47.655998 52.948002 56.07 64.204002">Description</tspan></text></g></g></g><g
       id="g276"><g
         clip-path="url(#clipPath282)"
         id="g278"><g
           transform="matrix(1,0,0,-1,44,70)"
           id="g284"><text
             id="text288"
             style="font-variant:normal;font-weight:500;font-size:14px;font-family:'Red Hat Text';-inkscape-font-specification:RedHatText-Medium;writing-mode:lr-tb;fill:#7d1007;fill-opacity:1;fill-rule:nonzero;stroke:none"
             transform="translate(0,14)"><tspan
               id="tspan286"
               sodipodi:role="line"
               y="0"
               x="0 8.9460001 12.474 18.27 21.798">Title</tspan></text></g></g></g></g></svg>
