<?xml version="1.0" encoding="UTF-8" standalone="no"?>
<svg
   xmlns:dc="http://purl.org/dc/elements/1.1/"
   xmlns:cc="http://creativecommons.org/ns#"
   xmlns:rdf="http://www.w3.org/1999/02/22-rdf-syntax-ns#"
   xmlns:svg="http://www.w3.org/2000/svg"
   xmlns="http://www.w3.org/2000/svg"
   xmlns:sodipodi="http://sodipodi.sourceforge.net/DTD/sodipodi-0.dtd"
   xmlns:inkscape="http://www.inkscape.org/namespaces/inkscape"
   sodipodi:docname="patternfly-template.pdf"
   viewBox="0 0 201.33333 432"
   height="432"
   width="201.33333"
   xml:space="preserve"
   id="svg2"
   version="1.1"><metadata
     id="metadata8"><rdf:RDF><cc:Work
         rdf:about=""><dc:format>image/svg+xml</dc:format><dc:type
           rdf:resource="http://purl.org/dc/dcmitype/StillImage" /></cc:Work></rdf:RDF></metadata><defs
     id="defs6"><clipPath
       id="clipPath20"
       clipPathUnits="userSpaceOnUse"><path
         id="path18"
         d="M 1,0 H 151 V 324 H 1 Z" /></clipPath><clipPath
       id="clipPath36"
       clipPathUnits="userSpaceOnUse"><path
         id="path34"
         clip-rule="evenodd"
         d="m 2,250 h 8 v -3 H 2 Z" /></clipPath><clipPath
       id="clipPath42"
       clipPathUnits="userSpaceOnUse"><path
         id="path40"
         d="M 1,0 H 151 V 324 H 1 Z" /></clipPath><clipPath
       id="clipPath52"
       clipPathUnits="userSpaceOnUse"><path
         id="path50"
         clip-rule="evenodd"
         d="m 73,323 h 3 v -8 h -3 z" /></clipPath><clipPath
       id="clipPath58"
       clipPathUnits="userSpaceOnUse"><path
         id="path56"
         d="M 1,0 H 151 V 324 H 1 Z" /></clipPath><clipPath
       id="clipPath68"
       clipPathUnits="userSpaceOnUse"><path
         id="path66"
         d="M 1,0 H 151 V 324 H 1 Z" /></clipPath><clipPath
       id="clipPath90"
       clipPathUnits="userSpaceOnUse"><path
         id="path88"
         clip-rule="evenodd"
         d="m 2,76 h 8 V 73 H 2 Z" /></clipPath><clipPath
       id="clipPath96"
       clipPathUnits="userSpaceOnUse"><path
         id="path94"
         d="M 1,0 H 151 V 324 H 1 Z" /></clipPath><clipPath
       id="clipPath106"
       clipPathUnits="userSpaceOnUse"><path
         id="path104"
         clip-rule="evenodd"
         d="m 73,149 h 3 v -8 h -3 z" /></clipPath><clipPath
       id="clipPath112"
       clipPathUnits="userSpaceOnUse"><path
         id="path110"
         d="M 1,0 H 151 V 324 H 1 Z" /></clipPath><clipPath
       id="clipPath122"
       clipPathUnits="userSpaceOnUse"><path
         id="path120"
         d="M 1,0 H 151 V 324 H 1 Z" /></clipPath></defs><sodipodi:namedview
     id="namedview4"
     inkscape:window-height="480"
     inkscape:window-width="640"
     inkscape:pageshadow="2"
     inkscape:pageopacity="0"
     guidetolerance="10"
     gridtolerance="10"
     objecttolerance="10"
     borderopacity="1"
     bordercolor="#666666"
     pagecolor="#ffffff" /><g
     transform="matrix(1.3333333,0,0,-1.3333333,0,432)"
     inkscape:label="patternfly-template"
     inkscape:groupmode="layer"
     id="g10"><g
       id="g12" /><g
       id="g14"><g
         clip-path="url(#clipPath20)"
         id="g16"><g
           transform="matrix(1,0,0,-1,6,319)"
           id="g22"><path
             id="path24"
             style="fill:none;stroke:#0066cc;stroke-width:8;stroke-linecap:butt;stroke-linejoin:miter;stroke-miterlimit:10;stroke-dasharray:none;stroke-opacity:1"
             d="m 70,140 c 38.6599,0 70,-31.3401 70,-70 C 140,31.34007 108.6599,0 70,0 31.34007,0 0,31.34007 0,70 c 0,38.6599 31.34007,70 70,70 z" /></g><g
           transform="matrix(1,0,0,-1,6,319)"
           id="g26"><path
             id="path28"
             style="fill:none;stroke:#8bc1f7;stroke-width:8;stroke-linecap:butt;stroke-linejoin:miter;stroke-miterlimit:10;stroke-dasharray:none;stroke-opacity:1"
             d="M 70,0 C 31.34007,0 0,31.34007 0,70" /></g></g></g><g
       id="g30"><g
         clip-path="url(#clipPath36)"
         id="g32"><g
           clip-path="url(#clipPath42)"
           id="g38"><path
             id="path44"
             style="fill:#ffffff;fill-opacity:1;fill-rule:nonzero;stroke:none"
             d="M -3,255 H 15 V 242 H -3 Z" /></g></g></g><g
       id="g46"><g
         clip-path="url(#clipPath52)"
         id="g48"><g
           clip-path="url(#clipPath58)"
           id="g54"><path
             id="path60"
             style="fill:#ffffff;fill-opacity:1;fill-rule:nonzero;stroke:none"
             d="M 68,328 H 81 V 310 H 68 Z" /></g></g></g><g
       id="g62"><g
         clip-path="url(#clipPath68)"
         id="g64"><g
           transform="matrix(1,0,0,-1,69,264.2)"
           id="g70"><text
             id="text74"
             style="font-variant:normal;font-weight:500;font-size:24px;font-family:'Red Hat Display';-inkscape-font-specification:RedHatDisplay-Medium;writing-mode:lr-tb;fill:#151515;fill-opacity:1;fill-rule:nonzero;stroke:none"
             transform="translate(0.34,24.2)"><tspan
               id="tspan72"
               y="0"
               x="0">2</tspan></text></g><g
           transform="matrix(1,0,0,-1,6,145)"
           id="g76"><path
             id="path78"
             style="fill:none;stroke:#b2b0ea;stroke-width:8;stroke-linecap:butt;stroke-linejoin:miter;stroke-miterlimit:10;stroke-dasharray:none;stroke-opacity:1"
             d="m 70,140 c 38.6599,0 70,-31.3401 70,-70 C 140,31.34007 108.6599,0 70,0 31.34007,0 0,31.34007 0,70 c 0,38.6599 31.34007,70 70,70 z" /></g><g
           transform="matrix(1,0,0,-1,6,145)"
           id="g80"><path
             id="path82"
             style="fill:none;stroke:#5752d1;stroke-width:8;stroke-linecap:butt;stroke-linejoin:miter;stroke-miterlimit:10;stroke-dasharray:none;stroke-opacity:1"
             d="M 70,0 C 31.34007,0 0,31.34007 0,70" /></g></g></g><g
       id="g84"><g
         clip-path="url(#clipPath90)"
         id="g86"><g
           clip-path="url(#clipPath96)"
           id="g92"><path
             id="path98"
             style="fill:#ffffff;fill-opacity:1;fill-rule:nonzero;stroke:none"
             d="M -3,81 H 15 V 68 H -3 Z" /></g></g></g><g
       id="g100"><g
         clip-path="url(#clipPath106)"
         id="g102"><g
           clip-path="url(#clipPath112)"
           id="g108"><path
             id="path114"
             style="fill:#ffffff;fill-opacity:1;fill-rule:nonzero;stroke:none"
             d="M 68,154 H 81 V 136 H 68 Z" /></g></g></g><g
       id="g116"><g
         clip-path="url(#clipPath122)"
         id="g118"><g
           transform="matrix(1,0,0,-1,56,98.2)"
           id="g124"><text
             id="text128"
             style="font-variant:normal;font-weight:500;font-size:24px;font-family:'Red Hat Display';-inkscape-font-specification:RedHatDisplay-Medium;writing-mode:lr-tb;fill:#151515;fill-opacity:1;fill-rule:nonzero;stroke:none"
             transform="translate(0.128,24.2)"><tspan
               id="tspan126"
               sodipodi:role="line"
               y="0"
               x="0 7.5359998 23.639999">100</tspan></text></g><g
           transform="matrix(1,0,0,-1,54.5,66)"
           id="g130"><text
             id="text134"
             style="font-variant:normal;font-weight:normal;font-size:12px;font-family:'Red Hat Text';-inkscape-font-specification:RedHatText-Regular;writing-mode:lr-tb;fill:#6a6e73;fill-opacity:1;fill-rule:nonzero;stroke:none"
             transform="translate(0.28,13)"><tspan
               id="tspan132"
               sodipodi:role="line"
               y="0"
               x="0 7.7639999 14.448 21.444 25.98 28.656 31.332001 38.015999">Reptiles</tspan></text></g></g></g></g></svg>
